SplineFontDB: 1.0
FontName: Garuda-Bold
FullName: Garuda Bold
FamilyName: Garuda
Weight: Bold
Copyright: Generated by NECTEC for Public Domain\n\nModified by TLWG
Version: 2.0 : Oct 10, 2003
ItalicAngle: 0
UnderlinePosition: -27
UnderlineWidth: 20
Ascent: 872
Descent: 128
NeedsXUIDChange: 1
FSType: 0
PfmFamily: 33
TTFWeight: 700
TTFWidth: 5
Panose: 2 11 7 4 2 2 2 2 2 4
LineGap: 0
VLineGap: 0
OS2WinAscent: 0
OS2WinAOffset: 1
OS2WinDescent: 0
OS2WinDOffset: 1
ScriptLang: 3
 1 latn 1 dflt 
 1 thai 4 KUY  PAL  THA  dflt 
 1 thai 1 PAL  
ContextSub: glyph 0 2 ' RQD' 0 0 0 1
 String: 15 uni0E0D uni0E10
 BString: 0 
 FString: 0 
 1
  SeqLookup: 0 'nds0'
EndFPST
ChainSub: coverage 0 1 'ccmp' 0 0 0 1
 2 0 0
  Coverage: 19 uni0E4B uni0E4B.low
  Coverage: 7 uni0E4D
 2
  SeqLookup: 0 'amni'
  SeqLookup: 1 'G006'
EndFPST
ChainSub: coverage 0 1 'ccmp' 0 0 0 1
 2 0 0
  Coverage: 19 uni0E4A uni0E4A.low
  Coverage: 7 uni0E4D
 2
  SeqLookup: 0 'amni'
  SeqLookup: 1 'G005'
EndFPST
ChainSub: coverage 0 1 'ccmp' 0 0 0 1
 2 0 0
  Coverage: 19 uni0E49 uni0E49.low
  Coverage: 7 uni0E4D
 2
  SeqLookup: 0 'amni'
  SeqLookup: 1 'G004'
EndFPST
ChainSub: coverage 0 1 'ccmp' 0 0 0 1
 2 0 0
  Coverage: 19 uni0E48 uni0E48.low
  Coverage: 7 uni0E4D
 2
  SeqLookup: 0 'amni'
  SeqLookup: 1 'G003'
EndFPST
ChainSub: coverage 0 1 'ccmp' 0 0 0 1
 1 0 1
  Coverage: 15 uni0E0D uni0E10
  FCoverage: 23 uni0E38 uni0E39 uni0E3A
 1
  SeqLookup: 0 'ndsc'
EndFPST
ChainSub: coverage 0 1 'ccmp' 0 0 0 1
 1 2 0
  Coverage: 39 uni0E48 uni0E49 uni0E4A uni0E4B uni0E4C
  BCoverage: 23 uni0E38 uni0E39 uni0E3A

StartChar: .notdef
Encoding: 0 -1 0
OldEncoding: 0
Width: 500
VWidth: 2048
Flags: HW
HStem: 0 62<125 375> 810 62<125 375>
VStem: 62 62<62 810> 375 62<62 810>
Fore
62 0 m 1
 62 872 l 1
 438 872 l 1
 438 0 l 1
 62 0 l 1
125 62 m 1
 375 62 l 1
 375 810 l 1
 125 810 l 1
 125 62 l 1
EndSplineSet
MinimumDistance: x2,-1 
EndChar
StartChar: exclam
Encoding: 33 33 2
OldEncoding: 33
Width: 201
Flags: HW
HStem: -14 94 119 313
VStem: 53 95
Fore
142 138 m 1
 64 138 l 1
 64 455 l 1
 144 455 l 1
 142 138 l 1
148 49 m 0
 148 27 135 1 105 1 c 0
 75 1 61 27 61 49 c 0
 61 71 75 96 105 96 c 0
 135 96 148 71 148 49 c 0
EndSplineSet
MinimumDistance: x4,-1 
EndChar
StartChar: quotedbl
Encoding: 34 34 3
OldEncoding: 34
Width: 299
Flags: HW
HStem: 256 173
VStem: 28 95 176 95
Fore
235 297 m 1
 218 297 l 1
 193 377 l 1
 193 455 l 1
 259 455 l 1
 259 377 l 1
 235 297 l 1
81 297 m 1
 64 297 l 1
 40 377 l 1
 40 455 l 1
 106 455 l 1
 106 377 l 1
 81 297 l 1
EndSplineSet
MinimumDistance: x8,-1 
EndChar
StartChar: numbersign
Encoding: 35 35 4
OldEncoding: 35
Width: 390
Flags: HW
HStem: -17 39 91 64 245 64
VStem: 44 331
Fore
288 173 m 1
 352 173 l 1
 352 108 l 1
 275 108 l 1
 252 0 l 1
 189 0 l 1
 212 108 l 1
 142 108 l 1
 120 0 l 1
 56 0 l 1
 78 108 l 1
 20 108 l 1
 20 173 l 1
 91 173 l 1
 108 269 l 1
 47 269 l 1
 47 336 l 1
 119 336 l 1
 141 457 l 1
 206 457 l 1
 184 336 l 1
 253 336 l 1
 278 457 l 1
 340 457 l 1
 316 336 l 1
 370 336 l 1
 370 269 l 1
 306 269 l 1
 288 173 l 1
155 173 m 1
 224 173 l 1
 244 269 l 1
 172 269 l 1
 155 173 l 1
EndSplineSet
MinimumDistance: x9,-1 
EndChar
StartChar: dollar
Encoding: 36 36 5
OldEncoding: 36
Width: 375
Flags: HW
HStem: 202 41 374 41
VStem: 192 34
Fore
172 415 m 0
 172 456 l 1
 234 456 l 1
 234 415 l 1
 293 407 346 359 337 296 c 0
 336 284 325 283 324 283 c 2
 278 283 l 2
 276 283 266 284 265 296 c 0
 265 319 258 340 234 347 c 1
 234 246 l 1
 255 239 296 223 318 197 c 0
 354 156 351 87 322 49 c 0
 296 15 257 3 234 1 c 1
 234 -49 l 1
 172 -49 l 1
 172 1 l 1
 104 7 65 47 61 114 c 0
 60 123 62 137 74 137 c 2
 119 137 l 2
 121 137 131 136 132 125 c 1
 133 120 l 1
 136 91 141 78 172 69 c 1
 172 186 l 1
 150 190 108 202 80 233 c 0
 56 260 48 332 88 375 c 0
 111 399 140 413 172 415 c 0
173 283 m 0
 173 283 l 0
 173 300 173 349 173 349 c 1
 154 346 132 332 132 301 c 0
 132 276 174 258 173 268 c 0
 173 265 173 279 173 283 c 0
234 172 m 1
 234 68 l 1
 251 72 271 87 270 123 c 0
 270 151 249 166 234 172 c 1
EndSplineSet
MinimumDistance: x24,-1 
EndChar
StartChar: percent
Encoding: 37 37 6
OldEncoding: 37
Width: 455
Flags: HW
HStem: -12 39 207 39 395 39
VStem: 18 59 142 59 257 59 382 59
Fore
27 333 m 0
 27 333 l 0
 27 396 53 456 116 456 c 0
 180 456 207 396 207 333 c 0
 207 271 181 210 116 210 c 0
 53 210 27 272 27 333 c 0
147 390 m 0
 147 390 l 0
 143 407 133 419 116 419 c 0
 80 419 82 358 82 333 c 0
 82 311 81 250 116 250 c 0
 153 250 151 306 151 331 c 0
 151 350 152 371 147 390 c 0
265 119 m 0
 265 119 l 0
 265 180 291 241 355 241 c 0
 419 241 446 182 446 119 c 0
 446 56 419 -5 355 -5 c 0
 291 -5 265 57 265 119 c 0
355 203 m 0
 355 203 l 0
 319 203 321 143 321 119 c 0
 321 96 320 35 355 35 c 0
 391 35 390 91 390 115 c 0
 390 140 393 203 355 203 c 0
331 456 m 1
 407 456 l 1
 140 -1 l 1
 62 -1 l 1
 331 456 l 1
EndSplineSet
MinimumDistance: x14,-1 
EndChar
StartChar: ampersand
Encoding: 38 38 7
OldEncoding: 38
Width: 468
Flags: HW
HStem: -6 80 382 64
VStem: 77 95 268 78
Fore
414 1 m 0
 414 1 l 0
 376 1 349 12 319 53 c 1
 269 9 230 -5 177 -5 c 0
 139 -5 100 2 70 25 c 0
 39 49 20 99 20 143 c 0
 20 205 66 229 138 257 c 1
 122 278 117 286 112 293 c 0
 99 313 89 333 89 360 c 0
 89 430 149 461 214 461 c 0
 282 461 334 425 334 352 c 0
 334 300 304 269 242 243 c 1
 326 153 l 1
 355 188 367 223 374 254 c 1
 443 244 l 1
 431 195 406 149 369 101 c 1
 390 76 406 63 431 65 c 2
 446 66 l 1
 446 5 l 1
 435 2 425 1 414 1 c 0
216 414 m 0
 216 414 l 0
 193 414 163 399 163 363 c 0
 163 336 184 315 200 298 c 1
 215 280 l 1
 246 293 278 312 278 352 c 0
 278 392 248 414 216 414 c 0
176 213 m 1
 131 205 103 180 106 143 c 0
 109 92 147 57 190 57 c 0
 219 57 248 70 281 97 c 1
 176 213 l 1
EndSplineSet
MinimumDistance: x22,-1 
EndChar
StartChar: quotesingle
Encoding: 39 39 8
OldEncoding: 39
Width: 195
Flags: HW
HStem: 278 173
VStem: 53 95
Fore
106 319 m 1
 89 319 l 1
 65 399 l 1
 65 477 l 1
 130 477 l 1
 130 399 l 1
 106 319 l 1
EndSplineSet
MinimumDistance: x2,-1 
EndChar
StartChar: parenleft
Encoding: 40 40 9
OldEncoding: 40
Width: 247
Flags: HW
VStem: 25 95
Fore
102 180 m 0
 102 81 125 -22 168 -109 c 1
 124 -109 l 1
 70 -24 37 78 37 183 c 0
 37 288 68 394 126 477 c 1
 170 477 l 1
 123 386 102 284 102 180 c 0
EndSplineSet
EndChar
StartChar: parenright
Encoding: 41 41 10
OldEncoding: 41
Width: 247
Flags: HW
VStem: 99 95
Fore
95 -109 m 1
 51 -109 l 1
 94 -22 117 81 117 180 c 0
 117 284 96 386 49 477 c 1
 93 477 l 1
 151 394 182 288 182 183 c 0
 182 78 149 -24 95 -109 c 1
EndSplineSet
EndChar
StartChar: asterisk
Encoding: 42 42 11
OldEncoding: 42
Width: 390
Flags: HW
Fore
212 342 m 1
 275 252 l 1
 253 234 l 1
 195 329 l 1
 137 234 l 1
 115 252 l 1
 180 342 l 1
 79 373 l 1
 88 402 l 1
 185 364 l 1
 181 477 l 1
 209 477 l 1
 205 364 l 1
 302 403 l 1
 311 373 l 1
 212 342 l 1
EndSplineSet
EndChar
StartChar: plus
Encoding: 43 43 12
OldEncoding: 43
Width: 369
Flags: HW
HStem: 144 80
VStem: 149 78
Fore
215 172 m 1
 215 42 l 1
 161 42 l 1
 161 172 l 1
 43 172 l 1
 43 231 l 1
 161 231 l 1
 161 361 l 1
 215 361 l 1
 215 231 l 1
 333 231 l 1
 333 172 l 1
 215 172 l 1
EndSplineSet
MinimumDistance: x2,-1 y6,4 y6,5 y0,10 y0,11 x9,7 x9,8 x0,2 x0,1 
EndChar
StartChar: comma
Encoding: 44 44 13
OldEncoding: 44
Width: 165
Flags: HW
HStem: -98 39 3 94
Fore
79 -46 m 0
 88 -28 87 -19 86 0 c 1
 9 -2 17 107 81 104 c 0
 127 101 137 52 134 19 c 0
 126 -46 102 -93 34 -105 c 1
 34 -72 l 1
 52 -69 70 -64 79 -46 c 0
EndSplineSet
EndChar
StartChar: hyphen
Encoding: 45 45 14
OldEncoding: 45
Width: 297
Flags: HW
HStem: 131 64
VStem: 0 149
Fore
26 157 m 1
 26 210 l 1
 269 210 l 1
 269 157 l 1
 26 157 l 1
EndSplineSet
EndChar
StartChar: period
Encoding: 46 46 15
OldEncoding: 46
Width: 142
Flags: HW
HStem: -2 39
Fore
121 49 m 0
 121 27 107 1 77 1 c 0
 47 1 33 27 33 49 c 0
 33 71 47 96 77 96 c 0
 107 96 121 71 121 49 c 0
EndSplineSet
EndChar
StartChar: slash
Encoding: 47 47 16
OldEncoding: 47
Width: 390
Flags: HW
Fore
290 456 m 1
 372 456 l 1
 105 -1 l 1
 21 -1 l 1
 290 456 l 1
EndSplineSet
MinimumDistance: x3,-1 
EndChar
StartChar: zero
Encoding: 48 48 17
OldEncoding: 48
Width: 455
Flags: HW
HStem: -7 64 405 64
VStem: 46 95 344 95
Fore
432 230 m 0
 432 230 l 0
 429 118 400 1 241 0 c 0
 101 -1 53 113 53 229 c 0
 53 334 101 456 241 457 c 0
 392 459 434 337 432 230 c 0
244 404 m 0
 158 403 136 305 134 229 c 0
 133 157 154 50 243 50 c 0
 333 50 350 152 350 228 c 0
 350 304 337 405 244 404 c 0
EndSplineSet
MinimumDistance: x6,-1 
EndChar
StartChar: one
Encoding: 49 49 18
OldEncoding: 49
Width: 455
Flags: HW
HStem: -5 35
VStem: 238 95
Fore
245 -3 m 1
 245 407 l 1
 222 381 211 369 191 353 c 0
 176 340 161 327 143 314 c 1
 106 352 l 1
 121 363 l 2
 137 375 208 434 218 450 c 0
 220 454 222 458 227 458 c 2
 329 458 l 1
 329 -3 l 1
 245 -3 l 1
EndSplineSet
MinimumDistance: x2,-1 
EndChar
StartChar: two
Encoding: 50 50 19
OldEncoding: 50
Width: 455
Flags: HW
HStem: -3 64
VStem: 67 95
Fore
435 -2 m 1
 76 -2 l 1
 78 52 81 101 119 141 c 0
 163 189 211 214 267 243 c 1
 500 358 230 468 164 369 c 0
 148 344 149 321 164 290 c 1
 88 261 l 1
 70 288 67 313 69 340 c 0
 72 375 101 417 139 438 c 0
 220 482 344 473 399 416 c 0
 482 330 412 255 375 231 c 0
 343 210 319 194 295 180 c 0
 258 159 219 134 185 94 c 0
 177 85 175 76 174 64 c 1
 243 64 416 64 436 65 c 1
 435 -2 l 1
EndSplineSet
MinimumDistance: x7,-1 
EndChar
StartChar: three
Encoding: 51 51 20
OldEncoding: 51
Width: 455
Flags: HW
HStem: -7 20
VStem: 64 78
Fore
160 329 m 1
 162 327 l 1
 82 330 l 1
 86 369 92 389 119 415 c 0
 174 467 325 481 386 423 c 0
 439 373 436 312 408 282 c 0
 392 266 363 250 342 246 c 1
 342 240 l 1
 365 237 396 224 417 199 c 0
 449 161 452 108 425 64 c 0
 371 -26 154 -27 92 55 c 0
 73 79 68 106 66 138 c 1
 148 138 l 1
 151 114 153 98 164 84 c 0
 206 32 355 33 357 131 c 0
 359 214 271 214 210 213 c 1
 210 269 l 1
 235 266 253 265 272 269 c 0
 304 275 340 286 349 315 c 0
 353 326 364 404 257 403 c 0
 213 403 176 383 163 341 c 0
 162 338 162 334 161 331 c 0
 161 330 160 329 160 329 c 1
EndSplineSet
MinimumDistance: x21,-1 
EndChar
StartChar: four
Encoding: 52 52 21
OldEncoding: 52
Width: 455
Flags: HW
HStem: -3 39 113 64
VStem: 293 95
Fore
383 116 m 1
 383 -3 l 1
 299 -3 l 1
 299 116 l 1
 45 116 l 1
 45 177 l 1
 273 460 l 1
 382 460 l 1
 382 170 l 1
 457 170 l 1
 457 116 l 1
 383 116 l 1
298 399 m 1
 123 170 l 1
 298 170 l 1
 298 399 l 1
EndSplineSet
MinimumDistance: x8,6 y6,8 y6,7 y3,12 y3,13 y9,11 x11,9 x11,10 x3,5 x3,4 
EndChar
StartChar: five
Encoding: 53 53 22
OldEncoding: 53
Width: 455
Flags: HW
HStem: -5 64 269 51 405 64
VStem: 373 78
Fore
263 -10 m 0
 173 -10 128 17 105 47 c 0
 88 68 83 90 77 120 c 1
 161 120 l 1
 169 65 207 47 262 48 c 0
 336 49 362 91 367 145 c 0
 378 268 223 291 156 205 c 1
 79 205 l 1
 115 455 l 1
 416 455 l 1
 425 392 l 1
 185 392 l 1
 183 387 182 382 181 377 c 0
 174 343 168 314 162 280 c 1
 176 288 203 307 218 312 c 0
 236 318 263 325 300 323 c 0
 401 318 447 244 449 153 c 0
 452 57 398 -10 263 -10 c 0
EndSplineSet
EndChar
StartChar: six
Encoding: 54 54 23
OldEncoding: 54
Width: 455
Flags: HW
HStem: -7 64 255 51 408 64
VStem: 67 95 367 78
Fore
257 -10 m 0
 257 -10 l 0
 87 -2 65 132 71 246 c 0
 77 348 127 461 268 463 c 0
 346 464 410 437 433 359 c 1
 359 359 l 1
 342 395 310 410 271 410 c 0
 199 412 166 353 158 291 c 0
 156 276 156 264 156 249 c 1
 160 251 163 253 166 256 c 2
 171 261 l 2
 198 287 232 297 268 299 c 0
 378 302 441 240 441 146 c 0
 441 60 384 -15 257 -10 c 0
258 248 m 0
 206 247 156 210 160 140 c 0
 162 88 193 46 260 46 c 0
 331 46 363 91 363 144 c 0
 363 217 310 250 258 248 c 0
EndSplineSet
MinimumDistance: x9,-1 
EndChar
StartChar: seven
Encoding: 55 55 24
OldEncoding: 55
Width: 455
Flags: HW
HStem: -5 39 403 64
VStem: 149 95
Fore
276 165 m 0
 253 103 247 66 245 -1 c 1
 151 -1 l 1
 159 87 178 146 220 221 c 0
 255 284 304 342 360 397 c 1
 86 397 l 1
 86 453 l 1
 431 453 l 1
 431 392 l 1
 365 331 307 245 276 165 c 0
EndSplineSet
EndChar
StartChar: eight
Encoding: 56 56 25
OldEncoding: 56
Width: 455
Flags: HW
HStem: -4 64 227 64 421 51
VStem: 65 95 346 95
Fore
434 142 m 0
 434 142 l 0
 436 60 379 -6 254 -4 c 0
 127 -3 71 66 72 143 c 0
 73 228 159 248 181 251 c 1
 181 266 l 1
 129 272 89 305 93 363 c 0
 98 431 177 460 254 460 c 0
 336 460 411 433 415 362 c 0
 418 306 383 275 333 266 c 1
 334 251 l 1
 354 247 432 228 434 142 c 0
357 142 m 0
 357 142 l 0
 354 184 327 227 253 227 c 0
 182 227 152 188 149 142 c 0
 146 95 185 45 253 44 c 0
 325 42 361 93 357 142 c 0
254 417 m 0
 211 417 174 399 171 356 c 0
 167 315 199 283 253 284 c 0
 315 284 340 313 338 355 c 0
 337 399 300 417 254 417 c 0
EndSplineSet
MinimumDistance: x14,-1 
EndChar
StartChar: nine
Encoding: 57 57 26
OldEncoding: 57
Width: 455
Flags: HW
HStem: -4 64 162 51 411 64
VStem: 77 78 350 95
Fore
438 217 m 0
 438 217 l 0
 432 117 383 -4 244 -5 c 0
 126 -6 93 59 84 88 c 2
 82 94 l 1
 152 94 l 1
 168 58 201 43 241 43 c 0
 281 42 313 61 336 105 c 0
 366 164 364 165 364 220 c 1
 352 214 348 206 340 198 c 0
 314 173 281 163 246 162 c 0
 138 159 74 217 74 310 c 0
 74 395 130 469 255 463 c 0
 423 456 444 332 438 217 c 0
253 410 m 0
 181 410 150 365 150 312 c 0
 150 177 360 185 352 316 c 0
 350 368 319 410 253 410 c 0
EndSplineSet
MinimumDistance: x8,-1 
EndChar
StartChar: colon
Encoding: 58 58 27
OldEncoding: 58
Width: 192
Flags: HW
HStem: 0 39
Fore
136 297 m 0
 136 297 l 0
 136 275 123 250 93 250 c 0
 63 250 49 275 49 297 c 0
 49 319 63 345 93 345 c 0
 123 345 136 319 136 297 c 0
136 49 m 0
 136 27 123 1 93 1 c 0
 63 1 49 27 49 49 c 0
 49 71 63 96 93 96 c 0
 123 96 136 71 136 49 c 0
EndSplineSet
EndChar
StartChar: semicolon
Encoding: 59 59 28
OldEncoding: 59
Width: 209
Flags: HW
HStem: -98 39
Fore
140 294 m 0
 140 294 l 0
 140 272 126 247 96 247 c 0
 66 247 52 272 52 294 c 0
 52 316 66 342 96 342 c 0
 126 342 140 316 140 294 c 0
94 -46 m 0
 104 -28 102 -15 101 3 c 1
 25 3 39 110 102 103 c 0
 132 100 155 70 149 16 c 0
 141 -49 122 -93 54 -105 c 1
 54 -72 l 1
 72 -69 85 -64 94 -46 c 0
EndSplineSet
EndChar
StartChar: less
Encoding: 60 60 29
OldEncoding: 60
Width: 390
Flags: HW
Fore
48 161 m 1
 48 228 l 1
 342 348 l 1
 342 284 l 1
 113 195 l 1
 342 105 l 1
 342 41 l 1
 48 161 l 1
EndSplineSet
MinimumDistance: x5,-1 
EndChar
StartChar: equal
Encoding: 61 61 30
OldEncoding: 61
Width: 355
Flags: HW
HStem: 70 80 224 80
VStem: 38 314
Fore
43 262 m 1
 43 321 l 1
 324 321 l 1
 324 262 l 1
 43 262 l 1
43 90 m 1
 43 150 l 1
 324 150 l 1
 324 90 l 1
 43 90 l 1
EndSplineSet
EndChar
StartChar: greater
Encoding: 62 62 31
OldEncoding: 62
Width: 390
Flags: HW
Fore
48 41 m 1
 48 105 l 1
 276 195 l 1
 48 284 l 1
 48 348 l 1
 342 228 l 1
 342 161 l 1
 48 41 l 1
EndSplineSet
MinimumDistance: x2,-1 
EndChar
StartChar: question
Encoding: 63 63 32
OldEncoding: 63
Width: 351
Flags: HW
HStem: -2 20
Fore
275 426 m 0
 275 426 l 0
 328 381 329 281 263 212 c 0
 234 182 199 159 199 113 c 0
 199 109 199 106 198 92 c 1
 145 91 l 1
 147 120 148 134 151 148 c 0
 154 162 159 175 170 199 c 0
 192 246 238 273 240 329 c 0
 244 410 144 433 106 379 c 0
 100 370 89 347 96 326 c 1
 163 365 187 287 157 258 c 0
 123 226 79 243 58 272 c 0
 24 320 42 405 95 438 c 0
 147 472 225 469 275 426 c 0
175 74 m 0
 225 74 225 -1 175 -1 c 0
 125 -1 125 74 175 74 c 0
EndSplineSet
MinimumDistance: x13,-1 
EndChar
StartChar: at
Encoding: 64 64 33
OldEncoding: 64
Width: 512
Flags: HW
HStem: -20 51 75 39 256 64 380 51
VStem: 39 59 131 78 426 47
Fore
334 88 m 0
 334 88 l 0
 313 88 295 100 294 127 c 1
 268 99 250 90 232 90 c 0
 179 90 133 140 133 202 c 0
 133 279 180 350 253 350 c 0
 280 350 301 341 327 308 c 1
 333 346 l 1
 385 346 l 1
 375 274 366 214 356 147 c 0
 355 139 356 130 367 130 c 0
 393 130 426 181 426 253 c 0
 426 363 356 420 265 420 c 0
 164 420 97 339 97 228 c 0
 97 109 173 35 275 35 c 0
 318 35 356 52 388 79 c 1
 443 79 l 1
 396 21 349 -18 270 -17 c 0
 129 -16 37 85 37 226 c 0
 37 364 134 472 266 472 c 0
 382 472 475 385 475 274 c 0
 475 222 470 184 442 145 c 0
 411 102 391 88 334 88 c 0
201 213 m 0
 201 180 218 152 248 152 c 0
 286 152 310 188 310 229 c 0
 310 263 291 287 261 287 c 0
 226 287 201 250 201 213 c 0
EndSplineSet
MinimumDistance: x9,-1 
EndChar
StartChar: A
Encoding: 65 65 34
OldEncoding: 65
Width: 410
Flags: HW
HStem: -11 39 79 80 389 39
Fore
300 2 m 1
 273 101 l 1
 120 101 l 1
 92 2 l 1
 16 2 l 1
 150 459 l 1
 255 459 l 1
 385 2 l 1
 300 2 l 1
198 389 m 1
 137 164 l 1
 256 164 l 1
 198 389 l 1
EndSplineSet
MinimumDistance: x0,-1 
EndChar
StartChar: B
Encoding: 66 66 35
OldEncoding: 66
Width: 422
Flags: HW
HStem: -11 80 174 80 348 80
VStem: 42 95 298 106
Fore
344 26 m 0
 344 26 l 0
 315 3 277 2 238 2 c 2
 54 2 l 1
 54 459 l 1
 238 459 l 2
 270 459 304 460 333 440 c 0
 364 418 380 386 380 345 c 0
 380 298 349 256 298 241 c 1
 297 235 l 1
 355 222 392 175 392 119 c 0
 392 82 372 49 344 26 c 0
271 391 m 0
 271 391 l 0
 253 402 226 399 206 399 c 2
 132 399 l 1
 132 267 l 1
 214 267 l 2
 235 267 257 266 275 281 c 0
 291 294 299 315 299 336 c 0
 299 357 290 379 271 391 c 0
277 197 m 0
 261 208 238 208 220 208 c 2
 132 208 l 1
 132 65 l 1
 215 65 l 2
 237 65 261 65 280 78 c 0
 298 91 308 115 308 139 c 0
 308 162 296 185 277 197 c 0
EndSplineSet
MinimumDistance: x19,-1 
EndChar
StartChar: C
Encoding: 67 67 36
OldEncoding: 67
Width: 422
Flags: HW
HStem: -15 80 356 80
VStem: 20 106
Fore
221 -2 m 0
 99 -2 33 105 33 233 c 0
 33 362 101 467 224 467 c 0
 323 467 374 409 388 307 c 1
 306 301 l 1
 303 351 282 402 221 401 c 0
 146 400 123 291 123 228 c 0
 123 155 154 60 226 63 c 0
 279 64 304 109 312 153 c 1
 388 148 l 1
 374 52 312 -2 221 -2 c 0
EndSplineSet
MinimumDistance: x6,-1 
EndChar
StartChar: D
Encoding: 68 68 37
OldEncoding: 68
Width: 422
Flags: HW
HStem: -11 88 384 88
VStem: 31 95 286 106
Fore
333 65 m 0
 333 65 l 0
 293 16 229 2 169 2 c 2
 36 2 l 1
 36 459 l 1
 152 459 l 2
 215 459 280 454 324 408 c 0
 368 362 387 299 387 232 c 0
 387 170 370 110 333 65 c 0
271 352 m 0
 244 391 199 389 162 389 c 2
 115 389 l 1
 115 71 l 1
 161 71 l 2
 206 71 253 77 279 124 c 0
 298 158 306 197 306 235 c 0
 306 276 295 319 271 352 c 0
EndSplineSet
MinimumDistance: x10,-1 
EndChar
StartChar: E
Encoding: 69 69 38
OldEncoding: 69
Width: 371
Flags: HW
HStem: 0 80 185 80 359 80
VStem: 40 95
Fore
52 1 m 1
 52 455 l 1
 341 455 l 1
 341 389 l 1
 130 389 l 1
 130 255 l 1
 296 255 l 1
 296 191 l 1
 130 191 l 1
 130 62 l 1
 341 62 l 1
 341 1 l 1
 52 1 l 1
EndSplineSet
MinimumDistance: x10,-1 x3,1 x3,2 x7,5 x7,6 x8,10 x8,9 
EndChar
StartChar: F
Encoding: 70 70 39
OldEncoding: 70
Width: 346
Flags: HW
HStem: -12 43 177 88 383 88
VStem: 39 95
Fore
129 388 m 1
 129 256 l 1
 296 256 l 1
 296 188 l 1
 129 188 l 1
 129 1 l 1
 51 1 l 1
 51 457 l 1
 339 457 l 1
 339 388 l 1
 129 388 l 1
EndSplineSet
MinimumDistance: x2,-1 y6,4 y6,5 x9,7 x9,8 x0,2 x0,1 
EndChar
StartChar: G
Encoding: 71 71 40
OldEncoding: 71
Width: 422
Flags: HW
HStem: -18 80 141 80 353 80
VStem: 19 106 287 95
Fore
323 0 m 1
 323 12 323 56 323 49 c 1
 306 3 265 -4 218 -4 c 0
 99 -4 20 101 20 226 c 0
 20 353 92 467 228 464 c 0
 313 463 375 412 391 324 c 1
 318 313 l 1
 310 360 278 400 225 401 c 0
 139 402 101 290 101 223 c 0
 101 163 145 60 230 60 c 0
 282 60 317 100 314 170 c 1
 232 170 l 1
 232 233 l 1
 388 233 l 1
 388 0 l 1
 323 0 l 1
EndSplineSet
MinimumDistance: x2,-1 
EndChar
StartChar: H
Encoding: 72 72 41
OldEncoding: 72
Width: 429
Flags: HW
HStem: -11 39 177 80 389 39
VStem: 38 95 284 95
Fore
313 2 m 1
 313 201 l 1
 118 201 l 1
 118 2 l 1
 39 2 l 1
 39 459 l 1
 118 459 l 1
 118 271 l 1
 313 271 l 1
 313 459 l 1
 395 459 l 1
 395 2 l 1
 313 2 l 1
EndSplineSet
MinimumDistance: x2,-1 y4,2 y4,3 y5,7 y5,6 y10,8 y10,9 y11,1 y11,0 
EndChar
StartChar: I
Encoding: 73 73 42
OldEncoding: 73
Width: 192
Flags: HW
HStem: -11 39 389 39
VStem: 42 95
Fore
54 2 m 1
 54 459 l 1
 132 459 l 1
 132 2 l 1
 54 2 l 1
EndSplineSet
MinimumDistance: x2,-1 
EndChar
StartChar: J
Encoding: 74 74 43
OldEncoding: 74
Width: 315
Flags: HW
HStem: 413 40
VStem: 10 58 204 58
Fore
229 19 m 0
 197 -2 153 -5 136 0 c 1
 41 6 19 89 19 122 c 2
 19 179 l 1
 95 179 l 1
 95 124 l 2
 95 55 200 46 211 128 c 0
 213 144 213 160 213 173 c 2
 213 457 l 1
 290 457 l 1
 290 119 l 1
 282 80 264 42 229 19 c 0
EndSplineSet
MinimumDistance: x2,-1 
EndChar
StartChar: K
Encoding: 75 75 44
OldEncoding: 75
Width: 410
Flags: HW
HStem: -14 39 386 39
VStem: 42 95
Fore
299 0 m 1
 209 213 l 1
 129 85 l 1
 129 0 l 1
 54 0 l 1
 54 456 l 1
 129 456 l 1
 129 207 l 1
 283 455 l 1
 283 455 353 455 366 455 c 1
 265 286 l 1
 387 0 l 1
 299 0 l 1
EndSplineSet
MinimumDistance: x1,-1 
EndChar
StartChar: L
Encoding: 76 76 45
OldEncoding: 76
Width: 320
Flags: HW
HStem: -11 80 389 39
VStem: 37 95
Fore
49 2 m 1
 49 459 l 1
 128 459 l 1
 128 72 l 1
 304 72 l 1
 304 2 l 1
 49 2 l 1
EndSplineSet
MinimumDistance: x2,-1 y3,5 y3,4 x3,1 x3,2 
EndChar
StartChar: M
Encoding: 77 77 46
OldEncoding: 77
Width: 563
Flags: HW
HStem: -11 39 348 80
VStem: 40 78 424 95
Fore
429 2 m 1
 429 396 l 1
 405 396 l 1
 296 2 l 1
 244 2 l 1
 137 396 l 1
 115 396 l 1
 115 2 l 1
 52 2 l 1
 52 459 l 1
 192 459 l 1
 278 136 l 1
 367 459 l 1
 507 459 l 1
 507 2 l 1
 429 2 l 1
EndSplineSet
MinimumDistance: x2,-1 
EndChar
StartChar: N
Encoding: 78 78 47
OldEncoding: 78
Width: 422
Flags: HW
HStem: -11 173 291 137
VStem: 40 78 300 78
Fore
297 2 m 1
 129 345 l 1
 107 345 l 1
 107 2 l 1
 52 2 l 1
 52 459 l 1
 143 459 l 1
 290 154 l 1
 310 154 l 1
 310 459 l 1
 366 459 l 1
 366 2 l 1
 297 2 l 1
EndSplineSet
MinimumDistance: x2,-1 
EndChar
StartChar: O
Encoding: 79 79 48
OldEncoding: 79
Width: 422
Flags: HW
HStem: -15 80 356 80
VStem: 21 106 290 106
Fore
349 73 m 0
 349 73 l 0
 316 23 266 -2 209 -2 c 0
 153 -2 102 17 70 67 c 0
 40 113 21 175 21 233 c 0
 21 358 89 467 209 467 c 0
 265 467 316 453 348 404 c 0
 377 360 391 290 391 234 c 0
 391 180 376 116 349 73 c 0
292 347 m 0
 278 384 249 402 212 402 c 0
 170 402 141 372 125 334 c 0
 111 302 105 264 105 233 c 0
 105 166 133 66 213 66 c 0
 254 66 277 92 295 129 c 0
 310 161 313 200 313 233 c 0
 313 269 306 312 292 347 c 0
EndSplineSet
MinimumDistance: x9,-1 
EndChar
StartChar: P
Encoding: 80 80 49
OldEncoding: 80
Width: 408
Flags: HW
HStem: -13 39 150 80 346 80
VStem: 40 95 285 95
Fore
329 209 m 0
 329 209 l 0
 312 194 295 186 276 183 c 0
 256 179 234 180 212 180 c 2
 119 180 l 1
 119 0 l 1
 41 0 l 1
 41 457 l 1
 209 457 l 2
 248 457 286 457 320 432 c 0
 354 406 372 368 372 323 c 0
 372 279 358 236 329 209 c 0
266 379 m 0
 247 395 225 395 203 395 c 2
 119 395 l 1
 119 241 l 1
 204 241 l 2
 216 241 228 241 240 244 c 0
 252 247 264 254 274 266 c 0
 287 281 292 300 292 318 c 0
 292 340 284 364 266 379 c 0
EndSplineSet
MinimumDistance: x10,-1 y16,14 y16,15 
EndChar
StartChar: Q
Encoding: 81 81 50
OldEncoding: 81
Width: 422
Flags: HW
HStem: -104 80 -18 80 353 80
VStem: 21 106 290 106
Fore
297 18 m 0
 297 18 l 0
 294 -27 322 -42 349 -39 c 2
 374 -37 l 1
 374 -98 l 1
 366 -99 357 -100 350 -100 c 0
 289 -100 261 -81 252 -1 c 1
 212 -5 l 2
 157 -11 107 19 74 69 c 0
 44 116 30 172 30 230 c 0
 30 355 92 464 213 464 c 0
 268 464 315 447 347 398 c 0
 376 353 394 286 394 230 c 0
 394 144 362 61 297 18 c 0
288 344 m 0
 273 381 250 399 213 399 c 0
 171 399 142 374 128 336 c 0
 117 304 114 261 114 230 c 0
 114 163 137 62 217 62 c 0
 258 62 283 84 296 123 c 0
 306 155 311 197 311 230 c 0
 311 266 301 309 288 344 c 0
EndSplineSet
EndChar
StartChar: R
Encoding: 82 82 51
OldEncoding: 82
Width: 430
Flags: HW
HStem: -12 39 161 80 347 80
VStem: 38 95 285 106
Fore
330 -1 m 1
 330 -1 l 0
 314 41 311 55 312 98 c 0
 313 147 313 183 248 183 c 2
 111 183 l 1
 111 -1 l 1
 35 -1 l 1
 35 455 l 1
 244 455 l 2
 314 455 388 440 394 330 c 0
 397 272 380 258 338 224 c 1
 433 157 351 73 411 24 c 1
 411 -1 l 1
 330 -1 l 1
245 380 m 2
 111 380 l 1
 111 258 l 1
 240 258 l 2
 278 258 310 252 316 306 c 0
 324 379 282 380 245 380 c 2
EndSplineSet
MinimumDistance: x12,-1 y3,1 y3,2 
EndChar
StartChar: S
Encoding: 83 83 52
OldEncoding: 83
Width: 384
Flags: HW
HStem: -17 80 354 80
VStem: 25 95 266 95
Fore
300 31 m 1
 267 4 222 -4 179 -4 c 0
 104 -4 39 29 17 106 c 1
 17 106 91 129 96 129 c 1
 112 80 143 68 188 68 c 0
 209 68 263 77 265 123 c 0
 265 151 251 167 234 176 c 0
 217 184 200 187 182 191 c 0
 103 209 35 233 35 327 c 0
 35 369 48 403 77 430 c 0
 106 456 144 465 182 465 c 0
 252 465 307 441 333 373 c 1
 263 349 l 1
 251 378 237 396 188 396 c 0
 154 396 122 383 121 343 c 0
 121 319 127 306 142 298 c 0
 156 291 172 287 187 284 c 0
 223 276 268 264 296 243 c 0
 329 219 349 185 349 143 c 0
 349 100 330 58 300 31 c 1
EndSplineSet
MinimumDistance: x2,-1 
EndChar
StartChar: T
Encoding: 84 84 53
OldEncoding: 84
Width: 346
Flags: HW
HStem: -12 39 347 80
VStem: 120 95
Fore
210 388 m 1
 210 1 l 1
 132 1 l 1
 132 388 l 1
 20 388 l 1
 20 458 l 1
 320 458 l 1
 320 388 l 1
 210 388 l 1
EndSplineSet
MinimumDistance: x2,-1 y0,6 y0,7 x5,3 x5,4 x0,2 x0,1 
EndChar
StartChar: U
Encoding: 85 85 54
OldEncoding: 85
Width: 422
Flags: HW
HStem: -17 80 389 39
VStem: 33 106 289 95
Fore
382 140 m 0
 380 104 364 70 340 42 c 1
 307 7 260 -4 213 -4 c 0
 167 -4 118 3 87 33 c 0
 47 70 45 121 45 179 c 2
 45 456 l 1
 133 456 l 1
 133 179 l 2
 133 154 132 121 144 99 c 0
 161 67 194 64 220 64 c 0
 242 64 270 67 287 91 c 0
 303 116 300 150 300 179 c 2
 300 456 l 1
 382 456 l 1
 382 179 l 2
 382 140 l 0
EndSplineSet
MinimumDistance: x0,-1 
EndChar
StartChar: V
Encoding: 86 86 55
OldEncoding: 86
Width: 384
Flags: HW
HStem: -13 39 387 39
Fore
244 0 m 1
 145 0 l 1
 20 457 l 1
 105 457 l 1
 198 82 l 1
 290 456 l 1
 302 457 364 457 364 457 c 1
 244 0 l 1
EndSplineSet
EndChar
StartChar: W
Encoding: 87 87 56
OldEncoding: 87
Width: 576
Flags: HW
HStem: -12 137 279 148
Fore
451 -1 m 1
 366 -1 l 1
 293 327 l 1
 293 327 284 327 285 327 c 1
 206 -1 l 1
 124 -1 l 1
 17 455 l 1
 97 455 l 1
 157 167 l 1
 165 132 l 1
 163 131 169 131 175 131 c 1
 250 456 l 1
 250 456 330 459 328 456 c 1
 404 136 l 1
 412 132 l 1
 420 167 l 1
 486 455 l 1
 556 456 l 1
 451 -1 l 1
EndSplineSet
MinimumDistance: x1,-1 
EndChar
StartChar: X
Encoding: 88 88 57
OldEncoding: 88
Width: 410
Flags: HW
HStem: -13 39 387 39
Fore
287 0 m 1
 201 175 l 1
 111 0 l 1
 27 0 l 1
 160 237 l 1
 43 457 l 1
 134 457 l 1
 208 307 l 1
 284 456 l 1
 275 456 345 456 365 456 c 1
 253 243 l 1
 378 0 l 1
 287 0 l 1
EndSplineSet
MinimumDistance: x3,-1 
EndChar
StartChar: Y
Encoding: 89 89 58
OldEncoding: 89
Width: 384
Flags: HW
HStem: -13 39 387 39
VStem: 149 95
Fore
231 184 m 1
 232 0 l 1
 153 0 l 1
 153 194 l 1
 23 457 l 1
 115 457 l 1
 199 273 l 1
 285 457 l 1
 363 457 l 1
 231 184 l 1
EndSplineSet
MinimumDistance: x1,-1 
EndChar
StartChar: Z
Encoding: 90 90 59
OldEncoding: 90
Width: 422
Flags: HW
HStem: -14 80 345 80
VStem: 60 332
Fore
56 -1 m 1
 56 64 l 1
 291 391 l 1
 72 391 l 1
 72 456 l 1
 380 456 l 1
 380 391 l 1
 145 65 l 1
 387 65 l 1
 387 -1 l 1
 56 -1 l 1
EndSplineSet
MinimumDistance: x5,-1 
EndChar
StartChar: bracketleft
Encoding: 91 91 60
OldEncoding: 91
Width: 243
Flags: HW
HStem: -124 39<115 179> 385 39
VStem: 52 78
Fore
64 -124 m 1
 64 456 l 1
 179 456 l 1
 179 416 l 1
 115 416 l 1
 115 -85 l 1
 179 -85 l 1
 179 -124 l 1
 64 -124 l 1
EndSplineSet
MinimumDistance: x6,-1 x3,1 x3,2 x4,6 x4,5 
EndChar
StartChar: backslash
Encoding: 92 92 61
OldEncoding: 92
Width: 271
Flags: HW
HStem: -11 39 389 39
Fore
162 2 m 1
 26 459 l 1
 91 458 l 1
 235 1 l 1
 162 2 l 1
EndSplineSet
EndChar
StartChar: bracketright
Encoding: 93 93 62
OldEncoding: 93
Width: 243
Flags: HW
HStem: -126 39 383 39
VStem: 113 78
Fore
64 -131 m 1
 64 -87 l 1
 128 -87 l 1
 128 412 l 1
 64 412 l 1
 64 456 l 1
 179 456 l 1
 179 -131 l 1
 64 -131 l 1
EndSplineSet
MinimumDistance: x2,-1 x5,3 x5,4 x6,0 x6,7 
EndChar
StartChar: asciicircum
Encoding: 94 94 63
OldEncoding: 94
Width: 384
Flags: HW
HStem: 389 39
Fore
275 186 m 1
 191 419 l 1
 108 186 l 1
 62 186 l 1
 159 459 l 1
 222 459 l 1
 321 186 l 1
 275 186 l 1
EndSplineSet
MinimumDistance: x1,-1 
EndChar
StartChar: underscore
Encoding: 95 95 64
OldEncoding: 95
Width: 363
VWidth: 2048
Flags: HMW
HStem: -130 42<-10 371>
Fore
-10 -130 m 1
 -10 -88 l 1
 371 -88 l 5
 371 -130 l 1
 -10 -130 l 1
EndSplineSet
EndChar
StartChar: grave
Encoding: 96 96 65
OldEncoding: 96
Width: 243
Flags: HW
Fore
179 404 m 1
 57 451 l 1
 68 501 l 1
 187 438 l 1
 179 404 l 1
EndSplineSet
EndChar
StartChar: a
Encoding: 97 97 66
OldEncoding: 97
Width: 350
Flags: HW
HStem: -16 51 258 64
VStem: 19 95 222 95
Fore
122 -3 m 0
 122 -3 l 0
 68 -3 31 26 31 85 c 0
 31 130 56 166 95 182 c 0
 112 190 135 197 157 201 c 0
 179 204 202 205 233 208 c 1
 233 222 l 2
 233 242 233 258 221 274 c 0
 210 290 190 295 174 295 c 0
 144 295 114 283 107 248 c 1
 43 248 l 1
 53 318 112 343 184 343 c 0
 234 343 256 333 279 312 c 0
 301 293 302 269 303 241 c 0
 303 231 303 221 303 210 c 2
 303 104 l 2
 303 94 303 90 303 81 c 0
 302 41 339 40 341 40 c 0
 344 40 342 -5 341 0 c 1
 335 0 283 -3 268 17 c 0
 254 35 251 45 251 45 c 1
 223 -10 165 -3 122 -3 c 0
233 163 m 1
 179 157 107 154 107 96 c 0
 107 60 125 45 159 45 c 0
 183 45 206 60 219 82 c 0
 233 107 233 119 233 147 c 2
 233 163 l 1
EndSplineSet
MinimumDistance: x17,-1 
EndChar
StartChar: b
Encoding: 98 98 67
OldEncoding: 98
Width: 353
Flags: HW
HStem: -18 64 256 64 388 39
VStem: 36 95 238 95
Fore
202 -2 m 0
 202 -2 l 0
 160 -2 119 4 106 32 c 1
 106 7 106 43 106 20 c 0
 106 14 107 4 106 0 c 1
 41 0 l 1
 41 458 l 1
 111 458 l 1
 111 305 l 1
 115 304 l 1
 132 341 177 344 214 342 c 0
 295 338 334 251 334 167 c 0
 334 74 289 -2 202 -2 c 0
177 284 m 0
 124 284 112 234 112 189 c 2
 112 138 l 2
 112 118 113 92 125 71 c 0
 136 52 153 43 175 43 c 0
 235 43 260 122 260 167 c 0
 260 212 236 284 177 284 c 0
EndSplineSet
MinimumDistance: x9,-1 
EndChar
StartChar: c
Encoding: 99 99 68
OldEncoding: 99
Width: 346
Flags: HW
HStem: -12 80 262 64
VStem: 18 106
Fore
182 0 m 0
 91 -2 30 69 30 168 c 0
 30 272 93 346 187 346 c 0
 266 346 305 298 316 230 c 1
 249 230 l 1
 245 261 228 288 190 288 c 0
 130 288 113 231 113 178 c 0
 113 127 125 59 187 59 c 0
 224 59 244 88 250 120 c 1
 318 119 l 1
 306 47 266 1 182 0 c 0
EndSplineSet
MinimumDistance: x4,-1 
EndChar
StartChar: d
Encoding: 100 100 69
OldEncoding: 100
Width: 346
Flags: HW
HStem: -17 64 257 64 389 39
VStem: 19 95 219 95
Fore
250 0 m 1
 251 31 l 0
 252 32 242 33 244 30 c 1
 225 -12 187 -4 150 -4 c 0
 71 -4 31 80 31 164 c 0
 31 250 71 341 152 341 c 0
 186 341 213 346 247 299 c 1
 246 459 l 1
 316 459 l 1
 316 0 l 1
 250 0 l 1
246 185 m 2
 246 189 240 275 190 275 c 0
 129 275 106 209 106 161 c 0
 106 116 132 47 185 47 c 0
 209 47 223 60 233 79 c 1
 241 98 247 121 246 139 c 1
 246 185 l 2
EndSplineSet
MinimumDistance: x11,-1 
EndChar
StartChar: e
Encoding: 101 101 70
OldEncoding: 101
Width: 346
Flags: HW
HStem: -10 64 147 51 264 64
VStem: 16 95 231 95
Fore
104 170 m 1
 105 141 l 0
 107 92 133 57 182 57 c 0
 212 57 237 71 244 106 c 1
 239 106 295 105 311 106 c 1
 301 76 277 0 177 0 c 0
 86 0 28 76 28 176 c 0
 28 276 74 343 167 343 c 0
 236 343 276 319 293 283 c 0
 312 240 312 213 312 170 c 1
 104 170 l 1
180 287 m 0
 145 287 113 279 108 221 c 1
 245 221 l 1
 242 274 217 287 180 287 c 0
EndSplineSet
EndChar
StartChar: f
Encoding: 102 102 71
OldEncoding: 102
Width: 192
Flags: HW
HStem: -11 39 242 64 368 64
VStem: 44 95
Fore
173 410 m 2
 129 413 126 384 126 345 c 2
 126 325 l 1
 184 325 l 1
 184 271 l 1
 126 271 l 1
 126 2 l 1
 56 2 l 1
 56 271 l 1
 18 271 l 1
 18 325 l 1
 56 325 l 1
 56 353 56 369 57 385 c 0
 59 401 62 414 69 425 c 0
 88 456 125 468 160 465 c 2
 192 463 l 1
 192 409 l 1
 173 410 l 2
EndSplineSet
MinimumDistance: x16,-1 y14,12 y14,13 x11,9 x11,10 x0,15 x0,16 
EndChar
StartChar: g
Encoding: 103 103 72
OldEncoding: 103
Width: 343
Flags: HW
HStem: -125 51 -11 80 121 51 320 51
VStem: 3 78 229 95
Fore
246 300 m 0
 246 300 l 0
 243 315 246 342 246 342 c 1
 247 342 290 342 306 342 c 1
 306 67 l 2
 306 -42 298 -141 175 -150 c 0
 106 -155 30 -123 23 -45 c 1
 22 -36 l 1
 86 -36 l 1
 91 -60 90 -75 119 -87 c 0
 129 -92 142 -97 158 -98 c 0
 183 -99 190 -95 205 -89 c 1
 231 -75 235 -59 241 -33 c 0
 244 -19 238 13 243 26 c 0
 243 27 242 31 245 32 c 1
 220 11 189 -3 145 -1 c 0
 123 1 100 3 74 24 c 1
 -5 77 0 219 49 288 c 0
 56 298 97 343 155 341 c 0
 189 339 221 330 246 300 c 0
215 253 m 2
 211 257 l 1
 202 270 173 280 161 281 c 0
 71 282 58 142 96 88 c 0
 123 49 184 40 217 76 c 0
 256 119 251 218 215 253 c 2
EndSplineSet
MinimumDistance: x12,-1 
EndChar
StartChar: h
Encoding: 104 104 73
OldEncoding: 104
Width: 346
Flags: HW
HStem: -11 39 241 80 389 39
VStem: 33 95 217 95
Fore
238 -2 m 1
 238 158 l 2
 238 178 239 196 239 220 c 0
 238 253 229 271 201 272 c 0
 170 273 133 249 123 226 c 0
 113 204 112 179 112 158 c 2
 112 -2 l 1
 42 -2 l 1
 42 456 l 1
 112 456 l 1
 112 288 l 1
 114 285 l 1
 131 329 191 343 226 342 c 0
 253 341 277 330 293 306 c 0
 301 295 305 282 307 266 c 0
 309 250 308 233 308 217 c 2
 308 -2 l 1
 238 -2 l 1
EndSplineSet
MinimumDistance: x2,-1 
EndChar
StartChar: i
Encoding: 105 105 74
OldEncoding: 105
Width: 166
Flags: HW
HStem: -14 325 337 94
VStem: 35 95
Fore
47 387 m 1
 47 455 l 1
 117 455 l 1
 117 387 l 1
 47 387 l 1
47 -1 m 1
 47 341 l 1
 117 341 l 1
 117 -1 l 1
 47 -1 l 1
EndSplineSet
MinimumDistance: x6,-1 
EndChar
StartChar: j
Encoding: 106 106 75
OldEncoding: 106
Width: 166
Flags: HW
HStem: -117 80 349 94
VStem: 34 95
Fore
43 386 m 1
 43 455 l 1
 117 455 l 1
 117 386 l 1
 43 386 l 1
114 -51 m 0
 114 -68 111 -81 105 -94 c 0
 91 -124 64 -134 28 -134 c 0
 15 -134 -2 -138 -15 -135 c 1
 -15 -78 l 1
 -5 -79 l 2
 54 -84 47 -33 47 4 c 2
 47 341 l 1
 117 341 l 1
 117 4 l 2
 117 -13 115 -33 114 -51 c 0
EndSplineSet
MinimumDistance: x12,-1 
EndChar
StartChar: k
Encoding: 107 107 76
OldEncoding: 107
Width: 358
Flags: HW
HStem: -11 39 389 39
VStem: 36 95
Fore
259 0 m 1
 185 169 l 1
 118 79 l 1
 118 0 l 1
 48 0 l 1
 48 459 l 1
 118 459 l 1
 118 172 l 1
 170 234 l 1
 253 341 l 1
 271 340 329 341 328 341 c 1
 239 231 l 1
 337 0 l 1
 259 0 l 1
EndSplineSet
MinimumDistance: x1,-1 
EndChar
StartChar: l
Encoding: 108 108 77
OldEncoding: 108
Width: 166
Flags: HW
HStem: -11 39 389 39
VStem: 35 95
Fore
47 2 m 1
 47 459 l 1
 117 459 l 1
 117 2 l 1
 47 2 l 1
EndSplineSet
MinimumDistance: x2,-1 
EndChar
StartChar: m
Encoding: 109 109 78
OldEncoding: 109
Width: 525
Flags: HW
HStem: -11 39 241 80
VStem: 31 95 215 95 398 95
Fore
411 0 m 1
 411 163 l 2
 411 170 411 183 411 195 c 0
 411 207 411 228 411 236 c 0
 408 272 390 282 358 282 c 0
 331 282 308 249 299 227 c 0
 294 218 297 173 297 163 c 2
 297 0 l 1
 227 0 l 1
 227 163 l 2
 227 184 227 204 227 225 c 0
 225 272 204 283 178 283 c 0
 148 283 127 251 119 228 c 0
 113 208 113 184 113 163 c 2
 113 0 l 1
 43 0 l 1
 43 341 l 1
 109 341 l 1
 109 298 l 1
 110 293 l 1
 135 338 166 341 204 341 c 0
 235 341 268 310 275 284 c 1
 308 345 352 341 389 341 c 0
 415 341 449 325 466 304 c 0
 474 293 479 260 481 243 c 0
 482 225 481 207 481 189 c 2
 481 0 l 1
 411 0 l 1
EndSplineSet
MinimumDistance: x2,-1 
EndChar
StartChar: n
Encoding: 110 110 79
OldEncoding: 110
Width: 346
Flags: HW
HStem: -11 39 241 80
VStem: 32 95 219 95
Fore
232 0 m 1
 232 176 l 2
 232 196 234 220 229 240 c 0
 223 262 214 279 184 279 c 0
 162 279 133 255 124 235 c 0
 112 212 114 178 114 156 c 2
 114 0 l 1
 44 0 l 1
 44 341 l 1
 113 341 l 1
 113 289 l 1
 113 289 111 290 114 290 c 1
 154 349 184 341 217 341 c 0
 245 341 270 331 286 307 c 0
 303 283 302 239 302 210 c 2
 302 0 l 1
 232 0 l 1
EndSplineSet
MinimumDistance: x2,-1 
EndChar
StartChar: o
Encoding: 111 111 80
OldEncoding: 111
Width: 350
Flags: HW
HStem: -15 64 259 64
VStem: 17 95 233 95
Fore
172 -2 m 0
 172 -2 l 0
 80 -2 26 72 26 170 c 0
 26 269 80 343 172 343 c 0
 265 343 323 267 323 167 c 0
 323 71 260 -2 172 -2 c 0
230 251 m 1
 230 247 222 290 172 289 c 0
 114 287 103 228 103 181 c 0
 103 136 114 49 175 49 c 0
 235 49 246 117 246 166 c 0
 246 194 240 222 230 251 c 1
EndSplineSet
MinimumDistance: x8,-1 
EndChar
StartChar: p
Encoding: 112 112 81
OldEncoding: 112
Width: 350
Flags: HW
HStem: -16 64 258 64
VStem: 37 95 237 95
Fore
194 -3 m 0
 194 -3 l 0
 175 -3 129 -8 114 26 c 1
 105 25 l 1
 105 -117 l 1
 35 -117 l 1
 35 341 l 1
 99 341 l 1
 99 319 l 1
 100 310 98 286 98 286 c 1
 122 331 163 345 204 344 c 0
 244 343 273 326 293 289 c 0
 312 254 323 212 323 168 c 0
 323 81 278 -3 194 -3 c 0
172 282 m 0
 148 282 129 269 118 247 c 0
 107 224 105 212 105 190 c 2
 105 155 l 2
 105 129 105 105 118 82 c 0
 129 63 150 49 170 49 c 0
 226 49 248 126 248 167 c 0
 248 210 226 282 172 282 c 0
EndSplineSet
MinimumDistance: x13,-1 
EndChar
StartChar: q
Encoding: 113 113 82
OldEncoding: 113
Width: 346
Flags: HW
HStem: -16 64 258 64
VStem: 19 95 220 95
Fore
314 290 m 0
 314 -117 l 1
 244 -117 l 1
 244 30 l 1
 219 -5 188 -3 158 -3 c 0
 71 -3 22 78 22 169 c 0
 22 260 67 341 156 341 c 0
 197 341 230 336 249 296 c 1
 250 324 247 315 249 341 c 1
 253 343 311 340 314 340 c 1
 314 343 314 302 314 290 c 0
246 200 m 2
 246 236 228 282 180 284 c 0
 120 286 97 216 97 169 c 0
 97 146 100 114 110 90 c 0
 119 67 147 52 172 52 c 0
 194 52 216 67 225 82 c 0
 239 105 246 123 246 146 c 2
 246 200 l 2
EndSplineSet
MinimumDistance: x10,-1 
EndChar
StartChar: r
Encoding: 114 114 83
OldEncoding: 114
Width: 226
Flags: HW
HStem: 0 41 293 53
VStem: 44 47
Fore
101 297 m 1
 121 325 150 342 172 342 c 2
 208 342 l 1
 208 272 l 1
 190 271 168 271 151 265 c 1
 117 249 101 221 101 166 c 2
 101 0 l 1
 32 0 l 1
 32 342 l 1
 101 342 l 1
 101 297 l 1
EndSplineSet
MinimumDistance: x0,-1 
EndChar
StartChar: s
Encoding: 115 115 84
OldEncoding: 115
Width: 315
Flags: HW
HStem: -5 41 315 41
VStem: 22 47 232 47
Fore
234 8 m 0
 217 0 195 -5 173 -7 c 1
 84 -7 23 13 21 120 c 1
 83 120 l 1
 88 61 126 49 175 49 c 1
 205 53 232 61 232 96 c 0
 232 111 228 123 205 130 c 0
 165 142 129 156 91 173 c 0
 63 184 30 196 30 247 c 0
 30 316 89 345 155 345 c 0
 244 345 280 305 283 228 c 1
 219 228 l 1
 218 270 200 286 150 286 c 0
 102 286 81 244 118 226 c 0
 166 203 212 202 258 173 c 0
 326 131 298 37 234 8 c 0
EndSplineSet
MinimumDistance: x8,-1 
EndChar
StartChar: t
Encoding: 116 116 85
OldEncoding: 116
Width: 243
Flags: HW
HStem: -11 80 241 80
VStem: 72 78
Fore
216 7 m 1
 199 5 183 2 166 2 c 0
 140 2 108 6 91 22 c 0
 67 43 68 82 68 114 c 2
 68 284 l 1
 15 284 l 1
 15 340 l 1
 71 340 l 1
 72 456 l 1
 138 456 l 1
 138 341 l 1
 210 341 l 1
 208 284 l 1
 138 284 l 1
 138 129 l 2
 138 86 139 54 197 59 c 2
 213 60 l 1
 213 -4 l 1
 221 9 l 1
 216 7 l 1
EndSplineSet
MinimumDistance: x12,-1 x13,11 y11,13 y11,12 x17,15 x17,16 
EndChar
StartChar: u
Encoding: 117 117 86
OldEncoding: 117
Width: 346
Flags: HW
HStem: -10 80 282 39
VStem: 35 95 233 78
Fore
236 -1 m 1
 236 45 l 1
 222 45 l 1
 195 4 169 0 130 0 c 0
 99 0 76 10 61 36 c 0
 45 64 47 97 47 128 c 2
 47 340 l 1
 117 340 l 1
 117 128 l 2
 117 92 123 65 165 65 c 0
 192 65 213 84 223 110 c 0
 230 129 229 141 229 161 c 2
 229 340 l 1
 299 340 l 1
 299 -1 l 1
 236 -1 l 1
EndSplineSet
MinimumDistance: x2,-1 
EndChar
StartChar: v
Encoding: 118 118 87
OldEncoding: 118
Width: 306
Flags: HW
HStem: -7 39 279 39
Fore
193 0 m 1
 121 0 l 1
 18 341 l 1
 93 341 l 1
 162 111 l 1
 224 341 l 1
 296 341 l 1
 193 0 l 1
EndSplineSet
MinimumDistance: x3,-1 
EndChar
StartChar: w
Encoding: 119 119 88
OldEncoding: 119
Width: 474
Flags: HW
HStem: -6 125 203 116
Fore
365 1 m 1
 299 1 l 1
 242 244 l 1
 237 244 l 1
 180 1 l 1
 109 2 l 1
 17 342 l 1
 92 342 l 1
 147 106 l 1
 151 107 l 1
 204 342 l 1
 206 342 287 343 276 341 c 1
 333 107 l 1
 336 106 l 1
 392 341 l 1
 456 341 l 1
 365 1 l 1
EndSplineSet
MinimumDistance: x4,-1 
EndChar
StartChar: x
Encoding: 120 120 89
OldEncoding: 120
Width: 346
Flags: HW
HStem: -9 39 277 39
Fore
230 0 m 1
 169 120 l 1
 106 0 l 1
 32 0 l 1
 133 176 l 2
 135 179 42 341 42 341 c 1
 123 341 l 1
 174 235 l 1
 226 341 l 1
 296 341 l 1
 209 183 l 1
 311 0 l 1
 230 0 l 1
EndSplineSet
EndChar
StartChar: y
Encoding: 121 121 90
OldEncoding: 121
Width: 307
Flags: HW
HStem: -116 64 283 39
Fore
200 23 m 2
 194 3 188 -16 182 -34 c 0
 165 -88 131 -121 71 -125 c 2
 28 -128 l 1
 29 -61 l 1
 81 -66 114 -60 130 9 c 1
 25 341 l 1
 100 341 l 1
 165 98 l 1
 231 341 l 1
 293 341 l 1
 200 23 l 2
EndSplineSet
EndChar
StartChar: z
Encoding: 122 122 91
OldEncoding: 122
Width: 269
Flags: HW
HStem: -6 64 255 64
VStem: 15 243
Fore
15 0 m 1
 15 67 l 1
 170 286 l 1
 27 286 l 1
 27 341 l 1
 240 341 l 1
 240 290 l 1
 84 57 l 1
 247 57 l 1
 247 0 l 1
 15 0 l 1
EndSplineSet
EndChar
StartChar: braceleft
Encoding: 123 123 92
OldEncoding: 123
Width: 243
Flags: HW
HStem: -121 51 376 51
VStem: 84 78
Fore
157 -119 m 2
 139 -119 96 -95 96 -44 c 2
 96 105 l 2
 96 146 65 155 44 156 c 1
 44 190 l 1
 65 191 96 199 96 234 c 2
 96 383 l 2
 96 434 139 458 157 458 c 2
 199 458 l 1
 199 421 l 1
 188 421 l 2
 147 421 146 392 146 374 c 2
 146 236 l 2
 146 197 115 181 85 178 c 1
 85 166 l 1
 115 164 146 154 146 104 c 2
 146 -35 l 2
 146 -53 147 -82 188 -82 c 2
 199 -82 l 1
 199 -119 l 1
 157 -119 l 2
EndSplineSet
MinimumDistance: x13,-1 x10,13 x10,12 x0,18 x0,19 
EndChar
StartChar: bar
Encoding: 124 124 93
OldEncoding: 124
Width: 192
Flags: HW
HStem: -11 39 389 39
VStem: 58 78
Fore
70 2 m 1
 70 459 l 1
 122 459 l 1
 122 2 l 1
 70 2 l 1
EndSplineSet
MinimumDistance: x2,-1 
EndChar
StartChar: braceright
Encoding: 125 125 94
OldEncoding: 125
Width: 243
Flags: HW
HStem: -123 51 374 51
VStem: 81 78
Fore
147 103 m 2
 147 -46 l 2
 147 -97 104 -121 86 -121 c 2
 44 -121 l 1
 44 -84 l 1
 56 -84 l 2
 96 -84 97 -54 97 -37 c 2
 97 102 l 2
 97 152 125 161 156 163 c 1
 156 177 l 1
 125 180 97 195 97 234 c 2
 97 372 l 2
 97 389 96 419 56 419 c 2
 44 419 l 1
 44 456 l 1
 86 456 l 2
 104 456 147 432 147 381 c 2
 147 232 l 2
 147 197 178 189 199 188 c 1
 199 154 l 1
 178 153 147 144 147 103 c 2
EndSplineSet
MinimumDistance: x2,-1 y1,19 x18,1 x18,0 x0,2 x0,1 
EndChar
StartChar: asciitilde
Encoding: 126 126 95
OldEncoding: 126
Width: 384
Flags: HW
VStem: 28 59 296 59
Fore
225 158 m 0
 178 185 112 237 94 205 c 0
 88 194 88 178 88 165 c 1
 30 165 l 1
 32 197 37 227 57 254 c 0
 103 315 194 239 231 216 c 0
 290 179 295 208 297 255 c 1
 353 255 l 1
 351 223 347 193 327 166 c 0
 310 143 268 133 225 158 c 0
EndSplineSet
MinimumDistance: x3,-1 
EndChar
StartChar: uni0E10.descless
Encoding: 128 63232 96
OldEncoding: 63232
Width: 400
Flags: HW
HStem: -2 20 343 39
VStem: 140 78 279 78
Fore
385 347 m 1
 385 347 l 0
 383 346 363 323 315 324 c 0
 260 325 230 352 175 348 c 0
 137 345 128 323 127 323 c 0
 130 323 176 323 237 304 c 0
 299 284 328 262 342 230 c 0
 352 209 350 196 349 178 c 1
 343 87 l 1
 341 52 329 25 294 9 c 0
 259 -8 194 -4 172 12 c 0
 149 27 139 37 136 72 c 1
 132 111 l 1
 93 103 48 127 50 177 c 0
 52 219 85 248 132 243 c 0
 176 239 199 212 202 161 c 2
 207 75 l 2
 208 58 212 47 237 47 c 0
 259 47 268 51 269 68 c 2
 275 175 l 1
 277 195 275 211 260 229 c 0
 242 249 196 267 142 276 c 0
 86 286 44 290 43 290 c 1
 43 292 45 331 89 366 c 0
 131 399 189 396 220 391 c 0
 260 385 289 371 322 373 c 0
 353 374 362 390 362 390 c 1
 385 347 l 1
118 199 m 0
 87 199 87 152 118 152 c 0
 150 152 150 199 118 199 c 0
EndSplineSet
EndChar
StartChar: uni0E34.left
Encoding: 129 63233 97
OldEncoding: 63233
Width: 0
Flags: HW
HStem: 488 39 581 39
VStem: -499 78
Fore
-324 601 m 0
 -324 601 l 0
 -198 600 -156 458 -159 421 c 1
 -159 421 -214 468 -333 473 c 0
 -430 478 -483 450 -484 450 c 1
 -479 522 -430 602 -324 601 c 0
-324 558 m 0
 -398 560 -411 505 -411 505 c 1
 -411 505 -377 514 -328 512 c 0
 -274 510 -229 493 -229 493 c 1
 -229 493 -249 557 -324 558 c 0
EndSplineSet
EndChar
StartChar: uni0E35.left
Encoding: 130 63234 98
OldEncoding: 63234
Width: 0
Flags: HW
HStem: 475 39
VStem: -495 78 -249 78
Fore
-480 437 m 0
 -480 437 l 0
 -478 509 -426 569 -364 583 c 0
 -315 595 -269 583 -240 566 c 1
 -240 615 l 1
 -165 615 l 5
 -165 463 l 1
 -165 463 -162 452 -160 438 c 0
 -157 423 -155 410 -155 408 c 1
 -155 408 -210 455 -328 460 c 0
 -426 465 -479 437 -480 437 c 0
-320 545 m 0
 -394 547 -407 492 -407 492 c 1
 -407 492 -373 501 -324 499 c 0
 -270 497 -225 480 -225 480 c 1
 -225 480 -245 544 -320 545 c 0
EndSplineSet
EndChar
StartChar: uni0E36.left
Encoding: 131 63235 99
OldEncoding: 63235
Width: 0
Flags: HW
HStem: 463 39
VStem: -646 78
Fore
-494 436 m 0
 -494 436 l 0
 -494 470 -478 524 -426 555 c 0
 -377 584 -320 579 -293 570 c 1
 -293 572 -292 593 -266 611 c 0
 -240 628 -201 619 -183 603 c 0
 -162 584 -159 564 -165 539 c 0
 -170 516 -182 502 -203 492 c 1
 -195 478 -189 468 -184 452 c 0
 -178 433 -177 452 -176 415 c 1
 -176 415 -229 444 -347 449 c 0
 -445 454 -493 436 -494 436 c 0
-338 534 m 0
 -338 534 l 0
 -413 536 -426 481 -426 481 c 1
 -426 481 -392 490 -342 488 c 0
 -289 486 -243 469 -243 469 c 1
 -243 469 -264 533 -338 534 c 0
-228 524 m 0
 -185 525 -186 589 -229 589 c 0
 -272 589 -271 523 -228 524 c 0
EndSplineSet
EndChar
StartChar: uni0E37.left
Encoding: 132 63236 100
OldEncoding: 63236
Width: 0
Flags: HW
HStem: 479 39 567 39
VStem: -502 78 -338 59 -232 59
Fore
-487 441 m 0
 -487 441 l 0
 -487 444 -486 501 -442 547 c 0
 -394 596 -339 592 -330 592 c 1
 -330 620 l 1
 -270 620 l 1
 -270 581 l 1
 -266 580 -259 575 -252 571 c 0
 -245 567 -233 557 -232 557 c 1
 -232 620 l 1
 -167 620 l 1
 -167 446 l 1
 -162 412 l 1
 -162 412 -217 459 -335 464 c 0
 -433 469 -486 441 -487 441 c 0
-327 549 m 0
 -401 551 -414 496 -414 496 c 1
 -414 496 -380 505 -330 503 c 0
 -277 501 -231 484 -231 484 c 1
 -231 484 -252 548 -327 549 c 0
EndSplineSet
EndChar
StartChar: ellipsis
Encoding: 133 8230 101
OldEncoding: 8230
Width: 416
VWidth: 2048
Flags: HW
VStem: 32 88<39 47> 170 87<39 47> 308 87<39 47>
Fore
76 87 m 0
 105 87 120 72 120 43 c 0
 120 31 116 21 107 12 c 0
 99 4 88 0 76 0 c 0
 47 0 32 14 32 43 c 0
 32 72 47 87 76 87 c 0
213 87 m 0
 242 87 257 72 257 43 c 0
 257 14 242 -0 213 0 c 0
 184 0 170 14 170 43 c 0
 170 72 184 87 213 87 c 0
351 87 m 0
 380 87 395 72 395 43 c 0
 395 31 391 21 382 12 c 0
 373 4 363 0 351 0 c 0
 322 0 308 14 308 43 c 0
 308 72 322 87 351 87 c 0
EndSplineSet
MinimumDistance: x10,-1 
EndChar
StartChar: uni0E48.low_left
Encoding: 134 63237 102
OldEncoding: 63237
Width: 0
Flags: HW
HStem: 450 173
VStem: -270 78
Fore
-262 436 m 1
 -262 602 l 1
 -185 602 l 1
 -185 436 l 5
 -262 436 l 1
EndSplineSet
MinimumDistance: x2,-1 
EndChar
StartChar: uni0E49.low_left
Encoding: 135 63238 103
OldEncoding: 63238
Width: 0
Flags: HW
HStem: 598 39
Fore
-333 467 m 0
 -333 467 l 0
 -320 484 -317 500 -317 500 c 1
 -334 500 -359 510 -369 531 c 0
 -384 566 -365 616 -317 618 c 0
 -279 619 -251 598 -246 566 c 0
 -241 528 -261 491 -273 483 c 1
 -253 486 -235 491 -214 501 c 0
 -190 513 -178 523 -163 537 c 0
 -132 566 -114 602 -114 602 c 1
 -114 512 l 1
 -114 512 -150 475 -210 456 c 0
 -263 439 -332 435 -365 439 c 1
 -365 439 -346 450 -333 467 c 0
-312 532 m 0
 -277 532 -279 586 -314 586 c 0
 -349 586 -347 532 -312 532 c 0
EndSplineSet
MinimumDistance: x1,-1 
EndChar
StartChar: uni0E4A.low_left
Encoding: 136 63239 104
OldEncoding: 63239
Width: 0
Flags: HW
HStem: 520 19 583 39
VStem: -142 59
Fore
-349 544 m 0
 -349 544 l 0
 -354 534 -352 523 -352 521 c 1
 -351 521 -331 531 -310 521 c 0
 -284 508 -283 466 -302 449 c 0
 -329 424 -372 441 -386 471 c 0
 -405 512 -392 591 -344 601 c 0
 -306 608 -285 579 -284 579 c 0
 -283 579 -261 602 -233 602 c 0
 -207 602 -181 584 -178 546 c 0
 -174 515 -189 489 -189 489 c 1
 -186 490 -165 502 -150 528 c 0
 -136 554 -133 586 -133 598 c 1
 -81 571 l 1
 -81 571 -95 502 -154 469 c 0
 -192 447 -248 440 -264 440 c 0
 -261 440 -231 459 -224 501 c 0
 -219 530 -224 560 -249 560 c 0
 -264 560 -286 543 -286 543 c 2
 -287 543 -305 561 -327 561 c 0
 -340 561 -345 553 -349 544 c 0
-336 460 m 0
 -307 460 -307 504 -336 504 c 0
 -365 504 -365 460 -336 460 c 0
EndSplineSet
MinimumDistance: x2,-1 
EndChar
StartChar: uni0E4B.low_left
Encoding: 137 63240 105
OldEncoding: 63240
Width: 0
Flags: HW
HStem: 531 51
VStem: -314 78
Fore
-305 640 m 1
 -232 640 l 1
 -232 568 l 1
 -154 568 l 1
 -154 514 l 1
 -232 514 l 1
 -232 443 l 1
 -305 443 l 1
 -305 514 l 1
 -382 514 l 1
 -382 568 l 1
 -305 568 l 1
 -305 640 l 1
EndSplineSet
MinimumDistance: x9,-1 y7,5 y7,6 y10,0 y10,11 x4,2 x4,3 x10,8 x10,9 
EndChar
StartChar: uni0E4C.low_left
Encoding: 138 63241 106
OldEncoding: 63241
Width: 0
Flags: HW
HStem: 539 29
VStem: -179 59
Fore
-223 570 m 0
 -223 570 l 0
 -258 567 -261 550 -262 550 c 0
 -260 550 -198 550 -199 487 c 0
 -199 435 -276 419 -308 457 c 0
 -337 491 -328 552 -290 579 c 0
 -252 605 -219 596 -188 619 c 0
 -172 631 -172 661 -172 664 c 1
 -117 664 l 1
 -117 661 -122 622 -138 604 c 0
 -155 586 -175 574 -223 570 c 0
-256 465 m 0
 -218 465 -218 522 -256 522 c 0
 -294 522 -294 465 -256 465 c 0
EndSplineSet
EndChar
StartChar: uni0E48.low
Encoding: 139 63242 107
OldEncoding: 63242
Width: 0
Flags: HW
HStem: 460 173
VStem: -136 78
AnchorPoint: "AboveBase" -57 400 mark 0
Fore
-132 446 m 1
 -132 612 l 1
 -55 612 l 1
 -55 446 l 1
 -132 446 l 1
EndSplineSet
MinimumDistance: x2,-1 
Substitution: 0 65534 'amni' uni0E4D
EndChar
StartChar: uni0E49.low
Encoding: 140 63243 108
OldEncoding: 63243
Width: 0
Flags: HW
HStem: 637 39
AnchorPoint: "AboveBase" -57 400 mark 0
Fore
-249 477 m 0
 -249 477 l 0
 -234 497 -232 516 -232 516 c 1
 -251 516 -280 528 -292 553 c 0
 -311 596 -287 652 -232 655 c 0
 -187 657 -154 632 -148 594 c 0
 -141 550 -165 506 -178 496 c 1
 -155 499 -134 505 -110 517 c 0
 -81 532 -69 542 -50 560 c 0
 -13 595 7 637 7 637 c 1
 7 531 l 1
 7 531 -35 487 -105 464 c 0
 -168 443 -248 440 -287 444 c 1
 -287 444 -265 456 -249 477 c 0
-226 554 m 0
 -184 555 -186 618 -228 617 c 0
 -269 616 -267 553 -226 554 c 0
EndSplineSet
MinimumDistance: x1,-1 
Substitution: 0 65534 'amni' uni0E4D
EndChar
StartChar: uni0E4A.low
Encoding: 141 63244 109
OldEncoding: 63244
Width: 0
Flags: HW
HStem: 536 19 605 51
VStem: -2 59
AnchorPoint: "AboveBase" -57 400 mark 0
Fore
-261 568 m 0
 -261 568 l 0
 -268 554 -264 544 -264 541 c 1
 -263 541 -240 554 -215 541 c 0
 -184 525 -182 477 -205 457 c 0
 -238 427 -288 445 -305 481 c 0
 -328 530 -312 621 -255 634 c 0
 -208 645 -184 610 -184 609 c 0
 -184 608 -157 636 -123 636 c 0
 -93 636 -64 615 -59 570 c 0
 -55 533 -73 503 -73 503 c 1
 -69 505 -45 518 -27 549 c 0
 -10 580 -6 617 -6 630 c 1
 55 600 l 1
 55 600 38 518 -31 479 c 0
 -76 453 -142 444 -160 445 c 1
 -156 447 -123 467 -113 517 c 0
 -107 551 -113 586 -144 586 c 0
 -161 586 -186 566 -186 566 c 2
 -187 566 -208 589 -234 588 c 0
 -249 587 -256 579 -261 568 c 0
-244 468 m 0
 -210 468 -210 520 -244 520 c 0
 -278 520 -278 468 -244 468 c 0
EndSplineSet
MinimumDistance: x1,-1 
Substitution: 0 65534 'amni' uni0E4D
EndChar
StartChar: uni0E4B.low
Encoding: 142 63245 110
OldEncoding: 63245
Width: 0
Flags: HW
HStem: 544 64
VStem: -137 78
AnchorPoint: "AboveBase" -57 400 mark 0
Fore
-133 674 m 1
 -56 674 l 1
 -56 591 l 1
 35 591 l 1
 35 527 l 1
 -56 527 l 1
 -56 445 l 1
 -133 445 l 1
 -133 527 l 1
 -224 527 l 1
 -224 591 l 1
 -133 591 l 1
 -133 674 l 1
EndSplineSet
MinimumDistance: y7,5 y7,6 y10,0 y10,11 x4,2 x4,3 x10,8 x10,9 
Substitution: 0 65534 'amni' uni0E4D
EndChar
StartChar: uni0E4C.low
Encoding: 143 63246 111
OldEncoding: 63246
Width: 0
Flags: HW
HStem: 548 39
VStem: -25 59
AnchorPoint: "AboveBase" -57 400 mark 0
Fore
-85 584 m 0
 -85 584 l 0
 -124 581 -127 562 -128 562 c 0
 -125 562 -57 562 -58 493 c 0
 -60 434 -145 417 -180 460 c 1
 -213 498 -204 563 -160 594 c 0
 -117 623 -80 613 -47 639 c 0
 -29 653 -29 686 -29 689 c 1
 33 689 l 1
 33 686 29 643 10 622 c 0
 -9 601 -33 588 -85 584 c 0
-122 467 m 0
 -80 467 -80 531 -122 531 c 0
 -165 531 -165 467 -122 467 c 0
EndSplineSet
MinimumDistance: x1,-1 
EndChar
StartChar: uni0E0D.descless
Encoding: 144 63247 112
OldEncoding: 63247
Width: 571
Flags: HW
HStem: -1 39 98 39 350 51
VStem: 70 78 298 78 455 78
Fore
517 96 m 1
 517 96 l 0
 517 77 517 49 503 31 c 0
 493 17 475 0 453 0 c 2
 262 0 l 1
 262 51 l 1
 288 51 l 1
 288 260 l 2
 288 310 267 338 210 338 c 0
 161 338 133 315 133 315 c 1
 135 314 147 307 168 292 c 0
 186 278 201 262 201 262 c 1
 199 262 180 254 161 232 c 0
 146 213 145 190 145 180 c 2
 145 132 l 1
 146 132 208 134 213 74 c 0
 218 16 175 -1 145 -1 c 0
 97 -1 68 30 68 85 c 2
 68 180 l 2
 68 187 70 215 83 233 c 0
 98 252 116 259 116 259 c 1
 116 259 100 276 75 290 c 0
 54 302 32 313 29 314 c 1
 42 332 103 390 208 391 c 0
 326 392 365 330 365 268 c 2
 365 51 l 1
 410 51 l 2
 419 51 425 50 434 58 c 0
 442 66 440 74 440 80 c 2
 440 388 l 1
 517 388 l 1
 517 96 l 1
155 89 m 0
 127 89 126 37 155 37 c 0
 186 37 186 89 155 89 c 0
EndSplineSet
MinimumDistance: x4,-1 x7,5 x7,6 
EndChar
StartChar: quoteleft
Encoding: 145 8216 113
OldEncoding: 8216
Width: 193
Flags: HW
Fore
93 421 m 0
 83 408 81 389 81 387 c 1
 97 391 113 387 125 376 c 0
 147 357 142 310 113 299 c 0
 79 285 54 301 46 317 c 0
 29 349 40 407 67 437 c 0
 83 456 103 468 128 472 c 1
 128 446 l 1
 119 444 106 436 93 421 c 0
EndSplineSet
EndChar
StartChar: quoteright
Encoding: 146 8217 114
OldEncoding: 8217
Width: 183
Flags: HW
Fore
90 351 m 0
 101 364 103 383 103 385 c 1
 86 381 71 385 58 396 c 0
 37 415 42 462 70 473 c 0
 105 487 131 471 140 455 c 0
 156 423 144 366 116 335 c 0
 100 316 81 305 55 300 c 1
 55 326 l 1
 64 328 77 336 90 351 c 0
EndSplineSet
EndChar
StartChar: quotedblleft
Encoding: 147 8220 115
OldEncoding: 8220
Width: 318
Flags: HW
HStem: 301 94 459 39
Fore
96 427 m 0
 96 427 l 0
 86 401 91 390 91 388 c 1
 92 388 133 389 140 347 c 0
 144 322 128 292 91 292 c 0
 43 292 35 340 41 374 c 0
 51 437 80 480 136 483 c 1
 136 448 l 1
 129 448 104 447 96 427 c 0
236 427 m 0
 225 401 231 390 231 388 c 1
 232 388 273 389 279 347 c 0
 283 322 268 292 231 292 c 0
 182 292 175 340 180 374 c 0
 191 437 219 480 275 483 c 1
 275 448 l 1
 269 448 244 447 236 427 c 0
EndSplineSet
EndChar
StartChar: quotedblright
Encoding: 148 8221 116
OldEncoding: 8221
Width: 322
Flags: HW
HStem: 302 39 405 94
Fore
232 349 m 0
 232 349 l 0
 242 375 237 386 237 388 c 1
 236 388 195 387 188 429 c 0
 184 454 200 484 237 484 c 0
 285 484 293 436 287 402 c 0
 276 339 248 296 192 293 c 1
 192 328 l 1
 199 328 224 329 232 349 c 0
92 349 m 0
 103 375 97 386 97 388 c 1
 96 388 55 387 49 429 c 0
 44 454 60 484 97 484 c 0
 146 484 153 436 147 402 c 0
 137 339 109 296 52 293 c 1
 52 328 l 1
 59 328 84 329 92 349 c 0
EndSplineSet
EndChar
StartChar: bullet
Encoding: 149 8226 117
OldEncoding: 8226
Width: 347
Flags: HW
Fore
183 285 m 0
 330 285 330 65 183 65 c 0
 37 65 37 285 183 285 c 0
EndSplineSet
EndChar
StartChar: endash
Encoding: 150 8211 118
OldEncoding: 8211
Width: 434
Flags: HW
HStem: 167 64
Fore
397 162 m 1
 31 162 l 1
 31 225 l 1
 397 225 l 1
 397 162 l 1
EndSplineSet
EndChar
StartChar: emdash
Encoding: 151 8212 119
OldEncoding: 8212
Width: 689
Flags: HW
HStem: 167 64
Fore
657 162 m 1
 32 162 l 1
 32 225 l 1
 657 225 l 1
 654 204 657 176 657 162 c 1
EndSplineSet
EndChar
StartChar: uni0E31.left
Encoding: 152 63248 120
OldEncoding: 63248
Width: 0
Flags: HW
Fore
6 514 m 1
 6 514 l 0
 5 514 -33 473 -110 456 c 0
 -179 440 -253 448 -283 459 c 0
 -355 488 -349 569 -307 594 c 0
 -266 620 -205 599 -197 551 c 0
 -191 515 -213 494 -213 494 c 1
 -210 494 -160 491 -110 511 c 0
 -24 544 6 596 6 596 c 1
 6 514 l 1
-237 540 m 0
 -238 580 -298 578 -297 538 c 0
 -296 499 -236 500 -237 540 c 0
EndSplineSet
MinimumDistance: x3,-1 
EndChar
StartChar: uni0E4D.left
Encoding: 153 63249 121
OldEncoding: 63249
Width: 0
Flags: HW
Fore
-258 617 m 0
 -258 617 l 0
 -149 617 -149 454 -258 454 c 0
 -367 454 -367 617 -258 617 c 0
-258 497 m 0
 -208 497 -208 572 -258 572 c 0
 -308 572 -308 497 -258 497 c 0
EndSplineSet
EndChar
StartChar: uni0E47.left
Encoding: 154 63250 122
OldEncoding: 63250
Width: 0
Flags: HW
HStem: 464 39 548 39
VStem: -359 78
Fore
-131 692 m 1
 -131 692 l 1
 -131 692 -127 608 -194 598 c 0
 -245 590 -275 606 -324 604 c 0
 -354 602 -368 575 -368 548 c 0
 -368 523 -348 515 -348 515 c 1
 -348 517 -346 546 -322 552 c 0
 -297 559 -268 525 -268 525 c 1
 -268 525 -260 562 -220 562 c 0
 -189 562 -169 534 -173 496 c 0
 -175 468 -195 451 -220 450 c 0
 -265 448 -283 500 -307 499 c 0
 -337 498 -328 450 -328 449 c 1
 -366 450 -400 467 -412 502 c 0
 -431 554 -416 622 -361 640 c 0
 -316 654 -253 634 -210 646 c 0
 -188 651 -191 674 -189 692 c 1
 -131 692 l 1
-219 526 m 0
 -241 526 -244 487 -219 487 c 0
 -195 487 -198 526 -219 526 c 0
EndSplineSet
MinimumDistance: x16,-1 
EndChar
StartChar: uni0E48.left
Encoding: 155 63251 123
OldEncoding: 63251
Width: 0
Flags: HW
HStem: 673 137
VStem: -252 78
Fore
-244 652 m 1
 -244 784 l 1
 -167 784 l 1
 -167 652 l 1
 -244 652 l 1
EndSplineSet
MinimumDistance: x2,-1 
EndChar
StartChar: uni0E49.left
Encoding: 156 63252 124
OldEncoding: 63252
Width: 0
Flags: HW
HStem: 800 38
Fore
-245 665 m 0
 -245 665 l 0
 -232 682 -230 689 -230 689 c 1
 -246 689 -271 698 -280 719 c 0
 -295 753 -276 802 -230 804 c 0
 -192 805 -165 785 -160 753 c 0
 -154 716 -174 687 -186 679 c 1
 -167 681 -149 687 -129 697 c 0
 -105 708 -93 718 -78 732 c 0
 -48 760 -31 796 -31 796 c 1
 -31 709 l 1
 -31 709 -66 673 -125 654 c 0
 -176 638 -244 634 -276 638 c 1
 -276 638 -258 648 -245 665 c 0
-225 720 m 0
 -191 720 -192 772 -227 772 c 0
 -261 772 -259 720 -225 720 c 0
EndSplineSet
MinimumDistance: x2,-1 
EndChar
StartChar: uni0E4A.left
Encoding: 157 63253 125
OldEncoding: 63253
Width: 0
Flags: HW
HStem: 734 19 797 39
VStem: -61 59
Fore
-271 752 m 0
 -271 752 l 0
 -275 741 -274 731 -274 729 c 1
 -273 729 -252 739 -232 729 c 0
 -205 716 -205 674 -223 657 c 0
 -250 632 -294 648 -307 678 c 0
 -327 720 -313 799 -266 808 c 0
 -227 816 -207 787 -206 787 c 0
 -205 787 -182 810 -154 810 c 0
 -128 810 -103 792 -99 754 c 0
 -96 723 -111 697 -111 697 c 1
 -108 698 -86 709 -72 736 c 0
 -57 762 -54 794 -54 806 c 1
 -2 779 l 1
 -2 779 -17 710 -76 676 c 0
 -114 655 -170 647 -185 647 c 1
 -182 648 -152 667 -146 709 c 0
 -141 738 -146 768 -171 768 c 0
 -185 768 -208 751 -208 751 c 2
 -209 751 -226 769 -248 769 c 0
 -261 769 -267 761 -271 752 c 0
-257 668 m 0
 -228 668 -228 711 -257 711 c 0
 -286 711 -286 668 -257 668 c 0
EndSplineSet
MinimumDistance: x1,-1 
EndChar
StartChar: uni0E4B.left
Encoding: 158 63254 126
OldEncoding: 63254
Width: 0
Flags: HW
HStem: 722 39
VStem: -246 78
Fore
-239 798 m 1
 -165 798 l 1
 -164 745 l 1
 -98 745 l 1
 -98 700 l 1
 -164 700 l 1
 -165 650 l 1
 -239 650 l 1
 -238 700 l 1
 -304 700 l 1
 -304 745 l 1
 -238 745 l 1
 -239 798 l 1
EndSplineSet
MinimumDistance: x11,-1 
EndChar
StartChar: uni0E4C.left
Encoding: 159 63255 127
OldEncoding: 63255
Width: 0
Flags: HW
HStem: 678 19
VStem: -113 59
Fore
-153 702 m 0
 -153 702 l 0
 -186 699 -189 684 -189 684 c 1
 -186 684 -129 684 -130 625 c 0
 -130 575 -204 560 -234 597 c 0
 -260 628 -253 686 -216 711 c 0
 -180 736 -149 728 -120 750 c 0
 -106 760 -106 789 -106 792 c 1
 -52 792 l 1
 -52 789 -56 751 -73 734 c 0
 -89 718 -109 706 -153 702 c 0
-184 603 m 0
 -148 603 -148 658 -184 658 c 0
 -220 658 -220 603 -184 603 c 0
EndSplineSet
MinimumDistance: x0,-1 
EndChar
StartChar: uni0E01
Encoding: 161 3585 129
OldEncoding: 3585
Width: 440
Flags: HW
HStem: 0 39 351 51
VStem: 78 78 320 78
Fore
76 0 m 1
 76 180 l 2
 76 187 78 215 91 233 c 0
 106 252 124 259 124 259 c 1
 124 259 108 276 82 290 c 0
 61 302 40 311 37 312 c 1
 49 330 115 390 219 390 c 0
 338 390 386 330 386 268 c 2
 386 0 l 1
 309 0 l 1
 309 267 l 2
 309 317 278 342 221 342 c 0
 169 342 141 315 141 315 c 1
 143 314 155 307 176 292 c 0
 194 278 209 262 209 262 c 1
 207 262 187 254 169 232 c 0
 153 213 152 190 152 180 c 2
 152 0 l 1
 76 0 l 1
EndSplineSet
MinimumDistance: x14,-1 
EndChar
StartChar: uni0E02
Encoding: 162 3586 130
OldEncoding: 3586
Width: 430
Flags: HW
HStem: 0 51<78 124 201 268 268 273> 229 39
VStem: 128 78 312 78
Fore
378 87 m 1
 378 87 l 0
 378 75 376 46 358 25 c 0
 336 1 308 0 293 0 c 2
 78 0 l 1
 78 51 l 1
 124 51 l 1
 124 146 l 2
 124 181 151 201 173 232 c 0
 194 262 194 288 186 309 c 0
 171 352 140 346 128 346 c 1
 133 343 151 332 157 304 c 0
 165 270 144 223 92 223 c 0
 50 223 18 251 19 297 c 0
 20 346 56 384 111 389 c 0
 181 396 226 373 246 327 c 0
 259 297 252 258 237 231 c 0
 213 189 201 175 201 150 c 2
 201 51 l 1
 268 51 l 2
 278 51 287 53 295 62 c 0
 301 69 302 79 302 88 c 2
 302 388 l 1
 378 388 l 1
 378 87 l 1
91 269 m 0
 122 267 124 319 92 320 c 0
 62 320 60 271 91 269 c 0
EndSplineSet
MinimumDistance: x4,-1 y8,5 y8,6 x4,6 x4,5 
EndChar
StartChar: uni0E03
Encoding: 163 3587 131
OldEncoding: 3587
Width: 437
Flags: HW
HStem: 0 51<86 133 210 267 267 271> 314 51
VStem: 137 78 313 78
Fore
379 78 m 1
 379 78 l 0
 379 69 376 36 355 19 c 0
 334 3 310 0 282 0 c 2
 86 0 l 1
 86 51 l 1
 133 51 l 1
 133 144 l 2
 133 178 162 206 189 252 c 0
 217 300 191 325 184 326 c 0
 167 329 145 299 144 299 c 0
 143 299 135 318 116 330 c 0
 99 341 81 342 72 332 c 0
 65 324 64 315 64 314 c 1
 64 314 76 318 93 311 c 0
 129 298 140 252 122 219 c 0
 100 177 36 179 15 221 c 0
 -3 255 5 302 16 331 c 0
 29 364 56 388 87 389 c 0
 121 390 146 354 147 354 c 0
 150 353 172 389 200 389 c 0
 239 389 262 341 265 308 c 0
 267 286 261 249 240 217 c 0
 215 181 210 167 210 140 c 2
 210 51 l 1
 267 51 l 2
 275 51 287 52 296 60 c 0
 305 68 303 80 303 86 c 2
 303 388 l 1
 379 388 l 1
 379 78 l 1
92 254 m 0
 92 268 84 280 70 280 c 0
 42 280 43 230 71 229 c 0
 84 229 91 241 92 254 c 0
EndSplineSet
MinimumDistance: x4,-1 y8,5 y8,6 x8,10 x8,9 
EndChar
StartChar: uni0E04
Encoding: 164 3588 132
OldEncoding: 3588
Width: 458
Flags: HW
HStem: 0 39 363 39
VStem: 99 78 339 78
Fore
404 0 m 1
 328 0 l 1
 328 244 l 2
 328 291 318 335 222 333 c 0
 146 332 120 293 116 249 c 0
 113 202 137 113 139 110 c 1
 139 113 146 197 162 227 c 0
 175 252 191 269 231 270 c 0
 269 270 291 244 297 216 c 0
 303 186 292 151 257 139 c 0
 223 127 196 144 196 144 c 1
 194 134 187 115 183 88 c 0
 178 54 174 20 174 0 c 1
 96 0 l 1
 96 14 l 2
 96 28 91 68 81 94 c 0
 69 130 42 185 46 248 c 0
 50 329 107 387 224 390 c 0
 339 393 404 337 404 248 c 2
 404 0 l 1
231 227 m 0
 198 227 198 178 231 178 c 0
 263 178 263 227 231 227 c 0
EndSplineSet
MinimumDistance: x4,-1 
EndChar
StartChar: uni0E05
Encoding: 165 3589 133
OldEncoding: 3589
Width: 456
Flags: HW
HStem: 0 39 225 39
VStem: 92 78 333 78
Fore
399 0 m 1
 322 0 l 1
 322 244 l 2
 322 260 325 287 313 307 c 0
 302 327 283 327 279 325 c 2
 221 295 l 1
 160 324 l 2
 151 328 115 308 110 250 c 0
 105 203 130 113 132 110 c 1
 132 113 141 185 153 209 c 0
 165 231 180 256 224 256 c 0
 261 257 287 232 291 202 c 0
 295 171 288 141 250 125 c 0
 220 112 189 127 189 127 c 1
 185 112 181 100 178 83 c 0
 173 51 168 31 166 0 c 1
 89 0 l 1
 89 16 l 2
 89 28 86 65 76 94 c 0
 63 130 35 184 40 247 c 0
 49 372 154 393 160 390 c 2
 221 353 l 1
 285 390 l 2
 288 391 339 388 372 349 c 0
 404 310 399 269 399 249 c 2
 399 0 l 1
226 212 m 0
 194 212 194 163 226 163 c 0
 258 163 258 212 226 212 c 0
EndSplineSet
MinimumDistance: x4,-1 
EndChar
StartChar: uni0E06
Encoding: 166 3590 134
OldEncoding: 3590
Width: 501
Flags: HW
HStem: -3 51 137 39 308 51
VStem: 186 78 379 78
Fore
443 58 m 1
 443 58 l 0
 443 30 430 7 400 0 c 0
 359 -9 339 17 305 54 c 0
 272 90 259 98 257 101 c 1
 257 64 l 2
 257 7 212 -3 177 -3 c 0
 143 -3 108 16 96 51 c 0
 83 89 92 139 123 163 c 0
 144 179 167 183 180 183 c 1
 180 229 l 2
 180 253 197 263 203 289 c 0
 208 312 198 325 191 326 c 0
 174 329 151 299 150 299 c 0
 149 299 141 318 123 330 c 0
 106 341 88 342 79 332 c 0
 72 324 71 315 71 314 c 1
 71 314 82 318 100 311 c 0
 136 298 147 252 129 219 c 0
 107 177 43 179 21 221 c 0
 4 255 12 302 23 331 c 0
 36 364 63 388 94 389 c 0
 128 390 153 354 154 354 c 0
 157 353 178 389 207 389 c 0
 245 389 270 341 272 308 c 0
 273 286 257 258 257 227 c 2
 257 168 l 1
 259 167 279 159 304 139 c 0
 328 119 334 112 355 93 c 0
 366 83 367 83 367 91 c 2
 367 388 l 1
 443 388 l 1
 443 58 l 1
180 70 m 0
 180 129 l 0
 179 129 152 141 145 99 c 0
 139 68 152 51 170 50 c 0
 181 49 180 50 180 70 c 0
98 253 m 0
 98 267 91 279 77 279 c 0
 49 279 50 229 77 228 c 0
 91 228 98 240 98 253 c 0
EndSplineSet
MinimumDistance: x12,-1 
EndChar
StartChar: uni0E07
Encoding: 167 3591 135
OldEncoding: 3591
Width: 333
Flags: HW
HStem: -2 20 256 39 363 39
VStem: 203 78
Fore
273 99 m 1
 273 99 l 0
 273 67 265 35 231 13 c 0
 201 -7 115 -17 83 48 c 0
 68 80 67 109 49 138 c 0
 36 158 26 154 12 158 c 1
 12 225 l 1
 14 225 59 233 86 200 c 0
 123 154 120 54 168 56 c 0
 193 57 196 76 196 95 c 2
 196 247 l 1
 195 247 171 244 147 258 c 0
 120 275 110 304 117 337 c 0
 125 372 157 390 187 390 c 0
 265 390 273 329 273 300 c 2
 273 99 l 1
212 318 m 0
 212 331 204 344 187 344 c 0
 150 344 154 293 187 293 c 0
 203 292 212 305 212 318 c 0
EndSplineSet
MinimumDistance: x4,-1 
EndChar
StartChar: uni0E08
Encoding: 168 3592 136
OldEncoding: 3592
Width: 396
Flags: HW
HStem: -2 51
VStem: 135 78 274 78
Fore
341 132 m 1
 341 132 l 0
 341 105 345 63 320 34 c 0
 297 7 272 -2 233 -2 c 0
 179 -2 144 25 137 61 c 0
 130 93 131 126 131 129 c 1
 123 128 97 129 82 138 c 0
 41 161 42 230 85 254 c 0
 118 272 165 265 184 233 c 0
 203 203 197 149 201 114 c 0
 204 81 201 56 233 56 c 0
 257 55 265 65 265 91 c 2
 265 247 l 2
 265 285 258 313 213 327 c 0
 163 342 113 327 88 309 c 0
 63 290 54 284 54 283 c 1
 10 317 l 1
 10 317 17 348 76 373 c 0
 122 394 223 398 275 370 c 0
 337 337 341 301 341 253 c 2
 341 132 l 1
144 195 m 0
 143 208 135 220 119 220 c 0
 87 220 84 172 119 171 c 0
 136 171 144 183 144 195 c 0
EndSplineSet
MinimumDistance: x4,-1 
EndChar
StartChar: uni0E09
Encoding: 169 3593 137
OldEncoding: 3593
Width: 464
Flags: HW
HStem: -1 64 121 39 363 39
VStem: 107 78 300 78
Fore
435 29 m 0
 435 29 l 0
 415 -1 370 -11 329 7 c 0
 293 23 290 47 290 61 c 2
 290 106 l 1
 289 104 270 84 243 40 c 0
 219 3 197 -4 153 -1 c 0
 124 1 104 22 104 48 c 2
 104 117 l 1
 77 117 53 130 43 156 c 0
 28 191 43 247 101 252 c 0
 149 256 180 221 180 180 c 2
 180 81 l 2
 180 76 180 74 186 74 c 0
 198 75 210 97 236 129 c 0
 267 168 287 177 290 179 c 1
 290 254 l 2
 290 305 257 329 197 330 c 0
 90 333 69 281 68 278 c 1
 16 310 l 1
 16 312 53 393 190 394 c 0
 294 395 366 354 367 272 c 1
 367 194 l 1
 370 194 397 192 423 173 c 0
 458 147 461 68 435 29 c 0
403 101 m 0
 403 101 l 0
 396 145 367 143 367 143 c 1
 367 87 l 2
 367 65 364 56 381 56 c 0
 410 56 401 114 403 101 c 0
101 208 m 0
 73 209 72 161 101 161 c 0
 121 161 134 207 101 208 c 0
EndSplineSet
MinimumDistance: x16,-1 
EndChar
StartChar: uni0E0A
Encoding: 170 3594 138
OldEncoding: 3594
Width: 428
Flags: HW
HStem: 2 51<68 114 191 258 258 263.5> 231 39
VStem: 118 78 302 78
Fore
397 366 m 1
 397 366 l 0
 397 365 380 346 346 326 c 0
 327 314 302 306 299 305 c 1
 302 304 328 294 345 273 c 0
 366 248 369 226 369 196 c 2
 369 89 l 2
 369 77 367 47 348 27 c 0
 326 3 299 2 283 2 c 2
 68 2 l 1
 68 53 l 1
 114 53 l 1
 114 147 l 2
 114 183 140 198 163 234 c 0
 182 264 183 285 177 307 c 0
 164 350 125 344 118 344 c 1
 123 341 142 334 146 306 c 0
 152 267 129 227 82 225 c 0
 45 224 13 251 13 298 c 0
 13 346 50 384 102 389 c 0
 166 395 214 376 235 330 c 0
 236 326 238 322 239 318 c 1
 242 320 270 334 311 364 c 0
 361 400 379 436 380 437 c 1
 397 366 l 1
292 90 m 0
 292 212 l 0
 292 229 290 243 279 255 c 0
 262 275 258 275 242 276 c 2
 241 277 l 1
 239 261 234 245 227 233 c 0
 203 191 191 177 191 152 c 2
 191 53 l 1
 258 53 l 2
 269 53 277 55 285 64 c 0
 291 71 292 81 292 90 c 0
79 269 m 0
 110 267 113 319 80 320 c 0
 50 320 49 271 79 269 c 0
EndSplineSet
MinimumDistance: x9,-1 x2,4 x2,3 
EndChar
StartChar: uni0E0B
Encoding: 171 3595 139
OldEncoding: 3595
Width: 453
Flags: HW
HStem: -2 51<96 143 219 286 286 291.5> 308 51 425 20
VStem: 147 78 331 78
Fore
425 362 m 1
 425 362 l 0
 425 361 408 341 374 321 c 0
 355 309 330 302 327 301 c 1
 330 301 356 291 373 270 c 0
 394 245 397 223 397 192 c 2
 397 85 l 2
 397 73 395 44 376 23 c 0
 354 -1 327 -2 311 -2 c 2
 96 -2 l 1
 96 49 l 1
 143 49 l 1
 143 178 l 2
 143 209 160 227 183 252 c 0
 221 293 202 325 195 326 c 0
 177 329 155 299 154 299 c 0
 153 299 145 318 127 330 c 0
 109 341 92 341 82 332 c 1
 75 324 75 315 75 314 c 1
 75 314 86 318 104 311 c 0
 140 298 150 252 133 219 c 0
 111 177 48 180 25 221 c 0
 7 255 14 302 25 331 c 0
 38 364 67 388 98 389 c 0
 132 390 157 354 158 354 c 0
 161 353 182 389 210 389 c 0
 247 389 262 347 266 314 c 1
 269 315 298 329 340 359 c 0
 383 391 408 432 409 434 c 1
 425 362 l 1
320 86 m 0
 320 209 l 0
 320 225 317 241 307 251 c 1
 291 270 280 274 261 274 c 1
 261 277 l 1
 256 265 248 252 237 237 c 0
 218 210 219 195 219 184 c 2
 219 49 l 1
 286 49 l 2
 297 49 306 51 313 60 c 0
 319 67 320 77 320 86 c 0
103 254 m 0
 103 267 96 278 81 278 c 0
 53 278 54 231 81 230 c 0
 95 230 102 241 103 254 c 0
EndSplineSet
MinimumDistance: x17,-1 x10,12 x10,11 
EndChar
StartChar: uni0E0C
Encoding: 172 3596 140
OldEncoding: 3596
Width: 576
Flags: HW
HStem: -3 39 350 51
VStem: 71 78 299 78 456 78
Fore
162 232 m 0
 84 233 l 0
 99 252 117 259 117 259 c 1
 117 259 101 276 76 290 c 0
 54 302 33 311 30 312 c 1
 43 330 98 389 209 391 c 0
 327 393 366 330 366 268 c 2
 366 159 l 1
 367 159 388 155 404 144 c 0
 419 133 433 121 441 104 c 1
 441 388 l 1
 518 388 l 1
 518 49 l 2
 518 38 515 18 501 10 c 0
 480 -4 450 -4 438 16 c 1
 427 38 424 54 404 82 c 0
 387 108 368 113 366 114 c 1
 367 112 377 87 371 55 c 0
 363 17 340 -3 303 -3 c 0
 260 -3 221 40 236 102 c 0
 247 150 289 154 289 154 c 1
 289 267 l 2
 289 317 268 338 210 338 c 0
 162 338 134 315 134 315 c 1
 136 314 148 307 169 292 c 0
 187 278 202 262 202 262 c 1
 200 262 181 254 162 232 c 0
304 108 m 0
 304 108 l 0
 272 108 269 43 304 45 c 0
 335 46 336 109 304 108 c 0
86 233 m 0
 164 232 l 0
 149 213 147 190 147 180 c 2
 147 132 l 1
 149 132 211 134 216 74 c 0
 221 16 178 -1 147 -1 c 0
 100 -1 71 30 71 85 c 2
 71 180 l 2
 71 187 73 215 86 233 c 0
155 37 m 0
 186 37 186 89 155 89 c 0
 126 89 126 37 155 37 c 0
EndSplineSet
MinimumDistance: x6,-1 
EndChar
StartChar: uni0E0D
Encoding: 173 3597 141
OldEncoding: 3597
Width: 576
Flags: HW
HStem: -194 39 -77 39 -1 39 97 39 350 51
VStem: 73 78 301 78 458 78
Fore
520 96 m 1
 520 96 l 0
 520 77 520 49 506 31 c 0
 496 17 478 0 456 0 c 2
 265 0 l 1
 265 51 l 1
 291 51 l 1
 291 267 l 2
 291 317 270 338 212 338 c 0
 164 338 136 315 136 315 c 1
 138 314 150 307 171 292 c 0
 189 278 204 262 204 262 c 1
 202 262 182 254 164 232 c 0
 149 213 147 190 147 180 c 2
 147 132 l 1
 149 132 211 134 216 74 c 0
 221 16 178 -1 147 -1 c 0
 100 -1 71 30 71 85 c 2
 71 180 l 2
 71 187 73 215 86 233 c 0
 101 252 119 259 119 259 c 1
 119 259 103 276 78 290 c 0
 56 302 35 311 32 312 c 1
 45 330 100 391 210 391 c 0
 329 391 368 330 368 268 c 2
 368 51 l 1
 413 51 l 2
 422 51 428 50 437 58 c 0
 445 66 443 74 443 80 c 2
 443 388 l 1
 520 388 l 1
 520 96 l 1
515 -47 m 1
 515 -47 l 1
 515 -47 517 -102 483 -140 c 0
 457 -170 419 -187 363 -188 c 0
 307 -189 249 -169 243 -113 c 0
 240 -82 256 -45 304 -44 c 0
 348 -42 370 -80 363 -116 c 0
 358 -141 339 -146 338 -146 c 0
 339 -146 354 -149 378 -146 c 0
 404 -142 425 -127 437 -105 c 0
 448 -82 446 -48 446 -48 c 1
 515 -47 l 1
155 37 m 0
 155 37 l 0
 186 37 186 89 155 89 c 0
 126 89 126 37 155 37 c 0
283 -104 m 0
 283 -116 291 -127 306 -127 c 0
 336 -127 337 -81 307 -81 c 0
 291 -81 284 -92 283 -104 c 0
EndSplineSet
MinimumDistance: x9,-1 x8,10 x8,9 
Substitution: 0 65534 'nds0' uni0E0D.descless
Substitution: 0 65534 'ndsc' uni0E0D.descless
EndChar
StartChar: uni0E0E
Encoding: 174 3598 142
OldEncoding: 3598
Width: 444
Flags: HW
HStem: -212 80 -2 39 351 51
VStem: 91 78 321 78
AnchorPoint: "BelowBase" 387 -202 basechar 0
Fore
387 -87 m 5
 387 -87 l 0
 387 -89 373 -125 341 -156 c 0
 310 -186 276 -206 275 -206 c 1
 273 -203 256 -183 238 -165 c 0
 226 -153 206 -137 205 -137 c 1
 205 -138 188 -189 139 -201 c 0
 58 -219 22 -150 38 -104 c 0
 65 -22 168 -59 169 -59 c 1
 169 -59 171 -51 173 -42 c 0
 174 -31 176 -23 176 -23 c 1
 232 -23 l 1
 232 -24 230 -41 228 -53 c 0
 225 -72 220 -81 220 -81 c 1
 220 -81 240 -92 248 -100 c 0
 263 -113 273 -121 275 -124 c 1
 277 -124 281 -120 294 -110 c 0
 304 -101 310 -87 310 -87 c 1
 310 267 l 2
 310 317 291 339 234 339 c 0
 181 340 153 315 153 315 c 1
 155 314 168 307 188 292 c 0
 206 278 221 262 221 262 c 1
 219 262 200 254 181 232 c 0
 166 213 165 190 165 180 c 2
 165 73 l 2
 165 31 143 -2 97 -2 c 0
 50 -2 19 33 30 81 c 0
 41 132 88 129 88 129 c 1
 88 180 l 2
 88 187 90 215 104 233 c 0
 119 252 137 259 137 259 c 1
 137 259 120 276 95 290 c 0
 74 302 52 311 49 312 c 1
 62 330 122 392 232 392 c 0
 350 392 387 330 387 268 c 2
 387 -87 l 5
157 -104 m 0
 157 -104 l 0
 155 -101 115 -84 94 -109 c 0
 76 -131 89 -156 116 -155 c 0
 152 -154 158 -106 157 -104 c 0
93 88 m 0
 65 88 64 40 93 40 c 0
 121 40 121 88 93 88 c 0
EndSplineSet
MinimumDistance: x11,-1 
EndChar
StartChar: uni0E0F
Encoding: 175 3599 143
OldEncoding: 3599
Width: 450
Flags: HW
HStem: -209 80 -2 39 351 51
VStem: 96 78 326 78
AnchorPoint: "BelowBase" 393 -202 basechar 0
Fore
392 -87 m 1
 392 -87 l 1
 392 -87 384 -119 359 -151 c 0
 335 -181 297 -203 295 -203 c 1
 240 -126 l 1
 194 -200 l 1
 151 -143 l 1
 151 -146 136 -191 98 -198 c 0
 47 -207 9 -153 25 -96 c 0
 46 -22 117 -56 118 -56 c 1
 118 -23 l 1
 171 -23 l 1
 171 -24 172 -38 171 -52 c 0
 169 -63 168 -81 168 -81 c 1
 190 -114 l 1
 237 -43 l 1
 293 -116 l 1
 294 -116 300 -112 307 -104 c 0
 313 -96 315 -87 315 -87 c 1
 315 267 l 2
 315 317 296 340 239 340 c 0
 186 341 158 315 158 315 c 1
 160 314 173 307 193 292 c 0
 211 278 226 262 226 262 c 1
 224 262 205 254 186 232 c 0
 171 213 170 190 170 180 c 2
 170 73 l 2
 170 31 147 -2 102 -2 c 0
 55 -2 27 32 36 81 c 0
 45 130 93 129 93 129 c 1
 93 180 l 2
 93 187 95 215 109 233 c 0
 123 252 142 259 142 259 c 1
 142 259 125 276 100 290 c 0
 79 302 57 311 54 312 c 1
 67 330 133 391 237 391 c 0
 355 391 392 331 392 269 c 2
 392 -87 l 1
109 -106 m 0
 109 -106 l 0
 107 -103 94 -82 74 -99 c 0
 57 -113 63 -155 87 -152 c 0
 112 -149 109 -107 109 -106 c 0
99 86 m 0
 70 86 70 38 99 38 c 0
 127 38 127 86 99 86 c 0
EndSplineSet
MinimumDistance: x10,-1 
EndChar
StartChar: uni0E10
Encoding: 176 3600 144
OldEncoding: 3600
Width: 397
Flags: HW
HStem: -69 39 343 39
VStem: 127 78 263 78
Fore
372 347 m 1
 372 347 l 0
 370 346 350 322 303 323 c 0
 247 324 217 351 162 347 c 0
 124 344 115 320 114 320 c 0
 117 320 163 320 224 301 c 0
 286 281 315 262 330 230 c 0
 340 209 338 196 337 178 c 1
 331 87 l 1
 329 52 316 24 281 8 c 0
 246 -9 182 -6 159 10 c 0
 136 25 127 37 123 72 c 1
 119 111 l 1
 81 103 36 127 38 177 c 0
 40 219 73 248 119 243 c 0
 163 239 186 212 189 161 c 2
 194 75 l 2
 195 58 201 45 225 45 c 0
 247 45 255 56 256 73 c 1
 263 182 l 1
 264 202 263 210 247 228 c 0
 230 248 183 266 129 275 c 0
 74 285 31 290 30 290 c 1
 30 292 32 331 77 366 c 0
 118 399 177 394 208 389 c 0
 247 383 276 369 309 371 c 0
 340 372 349 390 349 390 c 1
 372 347 l 1
340 -139 m 1
 340 -139 l 0
 340 -148 337 -180 322 -197 c 0
 302 -220 274 -226 243 -223 c 0
 202 -220 178 -185 178 -185 c 1
 142 -224 l 1
 112 -177 l 1
 112 -177 90 -228 50 -228 c 0
 7 -228 -17 -182 -12 -142 c 0
 -8 -111 10 -83 41 -79 c 0
 71 -75 94 -92 94 -92 c 1
 94 -91 99 -83 101 -68 c 0
 103 -50 104 -40 104 -39 c 1
 155 -39 l 1
 155 -40 154 -64 148 -87 c 0
 143 -112 135 -125 135 -126 c 1
 153 -155 l 1
 181 -128 l 1
 181 -130 193 -148 210 -161 c 0
 221 -170 233 -177 248 -176 c 0
 274 -173 273 -154 273 -154 c 1
 270 -154 223 -151 215 -109 c 0
 209 -72 231 -34 275 -35 c 0
 331 -35 340 -76 340 -115 c 2
 340 -139 l 1
106 152 m 0
 106 152 l 0
 137 152 137 199 106 199 c 0
 74 199 74 152 106 152 c 0
77 -139 m 0
 77 -139 l 1
 77 -139 46 -102 32 -134 c 0
 22 -156 33 -186 53 -180 c 0
 73 -175 77 -140 77 -139 c 0
276 -72 m 0
 246 -72 246 -116 276 -116 c 0
 305 -116 305 -72 276 -72 c 0
EndSplineSet
MinimumDistance: x25,-1 
Substitution: 0 65534 'nds0' uni0E10.descless
Substitution: 0 65534 'ndsc' uni0E10.descless
EndChar
StartChar: uni0E11
Encoding: 177 3601 145
OldEncoding: 3601
Width: 543
Flags: HW
HStem: 0 39 312 51
VStem: 182 78 424 78
Fore
487 0 m 1
 410 1 l 0
 410 71 410 246 410 267 c 0
 409 291 411 298 392 304 c 0
 363 314 326 231 293 151 c 0
 268 89 255 4 255 0 c 1
 177 0 l 1
 177 207 l 2
 177 221 178 240 190 264 c 0
 214 311 205 325 190 326 c 0
 173 327 148 294 147 294 c 0
 146 294 143 309 122 325 c 0
 107 337 91 337 81 326 c 0
 72 315 73 302 73 301 c 1
 73 301 87 305 105 299 c 0
 140 287 151 243 134 206 c 0
 114 164 48 167 26 209 c 0
 9 243 14 298 27 329 c 0
 41 362 66 389 98 389 c 0
 132 389 150 352 151 352 c 0
 154 351 174 388 204 389 c 0
 244 390 274 347 267 307 c 0
 260 269 252 267 252 243 c 2
 252 187 l 2
 252 192 276 260 303 306 c 0
 339 367 378 398 425 388 c 0
 479 377 487 324 487 305 c 2
 487 0 l 1
104 240 m 0
 104 253 97 265 83 265 c 0
 55 265 55 216 83 215 c 0
 96 215 104 226 104 240 c 0
EndSplineSet
MinimumDistance: x4,-1 
EndChar
StartChar: uni0E12
Encoding: 178 3602 146
OldEncoding: 3602
Width: 603
Flags: HW
HStem: 122 39
VStem: 88 95 331 78 482 78
Fore
543 68 m 1
 543 68 l 0
 543 55 546 29 534 12 c 0
 527 3 518 0 507 0 c 2
 474 0 l 1
 474 1 468 46 446 80 c 0
 424 114 402 115 401 115 c 1
 403 110 421 84 412 49 c 0
 405 20 386 -7 345 -7 c 0
 302 -7 271 25 273 81 c 0
 275 139 319 150 320 150 c 1
 320 254 l 2
 320 272 320 291 311 308 c 0
 300 330 280 330 278 329 c 2
 219 297 l 1
 164 328 l 1
 164 328 128 325 115 267 c 0
 107 227 114 183 126 151 c 0
 146 101 148 73 148 73 c 1
 154 85 154 85 161 99 c 0
 172 121 182 140 182 140 c 1
 182 140 145 147 146 203 c 0
 147 247 188 278 233 262 c 0
 278 245 282 193 256 146 c 0
 239 116 239 111 213 64 c 0
 199 40 181 1 181 0 c 1
 87 0 l 1
 87 3 87 27 76 76 c 0
 57 154 27 210 44 282 c 0
 66 380 147 391 150 390 c 2
 218 357 l 1
 277 390 l 2
 279 391 323 389 356 359 c 0
 385 333 397 304 397 264 c 2
 397 166 l 1
 401 166 418 164 435 155 c 0
 456 144 466 129 467 127 c 1
 467 388 l 1
 543 388 l 1
 543 68 l 1
231 198 m 0
 231 198 l 0
 231 214 223 223 210 223 c 0
 180 223 180 173 212 173 c 0
 224 173 231 182 231 198 c 0
367 72 m 0
 366 117 322 117 321 73 c 0
 320 55 328 43 345 43 c 0
 359 43 368 54 367 72 c 0
EndSplineSet
MinimumDistance: x9,-1 
EndChar
StartChar: uni0E13
Encoding: 179 3603 147
OldEncoding: 3603
Width: 625
Flags: HW
HStem: -1 39 101 39 350 51
VStem: 71 78 299 78 456 78
Fore
605 147 m 0
 605 147 l 0
 628 96 614 7 540 -3 c 0
 473 -12 443 21 443 69 c 2
 443 114 l 1
 443 114 420 103 399 60 c 0
 379 20 372 0 371 0 c 2
 289 0 l 1
 289 263 l 2
 289 313 268 339 210 339 c 0
 162 339 134 315 134 315 c 1
 136 314 148 307 169 292 c 0
 187 278 204 259 204 259 c 1
 201 259 177 258 161 237 c 0
 147 217 146 190 146 180 c 2
 146 132 l 1
 147 132 210 133 214 74 c 0
 219 17 176 -1 146 -1 c 0
 98 -1 69 30 69 85 c 2
 69 180 l 2
 69 187 71 215 84 233 c 0
 99 252 117 259 117 259 c 1
 117 259 101 276 76 290 c 0
 54 302 33 311 30 312 c 1
 43 330 100 391 209 390 c 0
 327 389 366 330 366 268 c 2
 366 112 l 1
 375 130 388 143 402 156 c 1
 418 173 441 185 441 187 c 2
 441 388 l 1
 518 388 l 1
 518 203 l 2
 518 199 578 207 605 147 c 0
562 64 m 0
 562 64 l 0
 571 90 566 124 547 140 c 0
 532 151 523 150 518 150 c 1
 518 71 l 2
 518 38 553 41 562 64 c 0
153 91 m 0
 125 91 124 39 153 39 c 0
 184 39 184 91 153 91 c 0
EndSplineSet
MinimumDistance: x16,-1 
EndChar
StartChar: uni0E14
Encoding: 180 3604 148
OldEncoding: 3604
Width: 458
Flags: HW
HStem: 0 39 351 51
VStem: 337 78
Fore
403 0 m 1
 325 0 l 1
 325 250 l 2
 325 303 298 334 225 334 c 0
 147 335 118 295 115 251 c 0
 111 204 122 196 135 149 c 0
 145 113 149 80 149 79 c 1
 150 80 164 101 173 114 c 0
 182 126 194 145 195 147 c 1
 194 147 133 169 152 236 c 0
 161 265 193 283 226 280 c 0
 259 277 289 258 290 211 c 0
 291 157 266 133 225 74 c 0
 192 26 176 1 176 0 c 2
 94 0 l 1
 94 0 89 54 75 104 c 0
 57 166 32 200 45 270 c 0
 58 343 118 395 224 395 c 0
 336 395 403 340 403 254 c 2
 403 0 l 1
192 210 m 0
 192 197 200 184 217 184 c 0
 252 184 253 236 218 236 c 0
 201 236 192 223 192 210 c 0
EndSplineSet
MinimumDistance: x4,-1 
EndChar
StartChar: uni0E15
Encoding: 181 3605 149
OldEncoding: 3605
Width: 468
Flags: HW
HStem: 0 39
VStem: 103 95 349 78
Fore
414 0 m 1
 338 0 l 1
 338 251 l 2
 338 269 340 287 330 305 c 0
 318 327 298 331 296 330 c 2
 232 298 l 1
 169 330 l 1
 169 330 134 324 120 269 c 0
 110 225 116 192 134 150 c 0
 155 101 164 64 164 64 c 1
 171 81 172 90 182 107 c 0
 194 127 200 143 200 143 c 1
 200 143 150 158 151 213 c 0
 152 257 194 289 245 275 c 0
 297 260 300 195 277 155 c 0
 257 117 256 120 232 74 c 0
 217 45 209 31 197 0 c 1
 99 0 l 1
 99 3 100 36 88 76 c 0
 66 154 28 193 51 282 c 0
 77 379 163 392 166 391 c 2
 231 361 l 1
 297 391 l 2
 299 391 339 389 375 359 c 0
 404 335 414 303 414 264 c 2
 414 0 l 1
247 211 m 0
 246 247 194 245 195 209 c 0
 196 174 248 174 247 211 c 0
EndSplineSet
MinimumDistance: x4,-1 
EndChar
StartChar: uni0E16
Encoding: 182 3606 150
OldEncoding: 3606
Width: 433
Flags: HW
HStem: -2 39 102 39 351 51
VStem: 72 78 314 78
Fore
380 0 m 1
 304 0 l 1
 304 267 l 2
 304 317 273 339 215 339 c 0
 176 339 145 322 135 312 c 1
 137 311 149 307 170 292 c 0
 188 278 203 262 203 262 c 1
 201 262 181 254 163 232 c 0
 148 213 146 190 146 180 c 2
 146 137 l 1
 148 137 218 143 221 68 c 0
 223 16 182 -4 145 -2 c 0
 91 1 70 37 70 91 c 2
 70 180 l 2
 70 187 72 215 85 233 c 0
 100 252 118 259 118 259 c 1
 118 259 102 276 77 290 c 0
 55 302 34 311 31 312 c 1
 44 330 104 392 213 392 c 0
 332 392 380 330 380 268 c 2
 380 0 l 1
154 92 m 0
 121 92 121 41 154 41 c 0
 188 41 188 92 154 92 c 0
EndSplineSet
MinimumDistance: x4,-1 
EndChar
StartChar: uni0E17
Encoding: 183 3607 151
OldEncoding: 3607
Width: 471
Flags: HW
HStem: 0 39 255 39 362 39
VStem: 107 78 349 78
Fore
414 0 m 1
 338 0 l 1
 338 276 l 2
 338 299 334 328 312 328 c 0
 270 328 238 247 216 174 c 0
 186 74 181 12 181 0 c 1
 104 0 l 1
 104 246 l 1
 103 246 79 243 55 257 c 0
 28 274 18 303 25 336 c 0
 33 371 65 389 95 389 c 0
 173 389 180 328 180 299 c 2
 180 240 l 1
 181 216 l 1
 184 234 188 272 223 326 c 0
 259 381 288 392 331 390 c 0
 393 388 414 341 414 297 c 2
 414 0 l 1
122 318 m 0
 122 331 114 344 97 344 c 0
 60 344 64 293 97 293 c 0
 113 292 122 305 122 318 c 0
EndSplineSet
MinimumDistance: x4,-1 x19,17 y17,19 y17,18 
EndChar
StartChar: uni0E18
Encoding: 184 3608 152
OldEncoding: 3608
Width: 422
Flags: HW
HStem: 0 51<51 125 202 244 244 249.5> 362 39
VStem: 85 78 296 78
Fore
126 260 m 1
 126 260 l 0
 87 265 50 278 48 278 c 1
 48 283 65 387 179 390 c 0
 236 392 273 358 324 367 c 0
 355 372 365 389 367 390 c 1
 390 341 l 1
 390 341 371 317 338 314 c 0
 271 309 242 343 182 339 c 0
 142 337 133 312 133 311 c 1
 135 311 196 301 233 290 c 0
 276 278 313 264 340 242 c 1
 364 220 363 202 363 184 c 2
 363 85 l 2
 363 62 361 44 349 25 c 0
 339 10 319 0 298 0 c 2
 51 0 l 1
 51 51 l 1
 125 51 l 1
 126 260 l 1
202 246 m 1
 202 51 l 1
 244 51 l 2
 255 51 266 52 274 58 c 0
 284 66 286 80 286 93 c 2
 286 173 l 2
 286 197 291 213 258 227 c 0
 239 235 222 241 202 246 c 1
EndSplineSet
MinimumDistance: x12,-1 
EndChar
StartChar: uni0E19
Encoding: 185 3609 153
OldEncoding: 3609
Width: 484
Flags: HW
HStem: -4 20 255 39 362 39
VStem: 105 78 312 78
Fore
455 49 m 0
 455 49 l 0
 434 -4 373 -18 332 13 c 0
 311 28 302 54 302 84 c 2
 302 154 l 1
 300 153 275 147 237 99 c 0
 204 59 178 7 178 0 c 1
 101 0 l 1
 102 246 l 1
 101 246 77 243 53 257 c 0
 26 274 16 303 23 336 c 0
 31 371 63 389 93 389 c 0
 171 389 178 328 178 299 c 2
 178 124 l 1
 178 124 195 145 235 179 c 0
 264 203 300 221 302 221 c 1
 302 388 l 1
 378 388 l 1
 379 225 l 1
 381 225 420 216 443 187 c 0
 468 154 474 99 455 49 c 0
417 133 m 0
 417 133 l 0
 413 149 399 169 379 166 c 1
 378 71 l 1
 378 49 400 41 412 66 c 0
 424 89 421 116 417 133 c 0
119 318 m 0
 119 331 111 344 94 344 c 0
 57 344 61 293 94 293 c 0
 110 292 119 305 119 318 c 0
EndSplineSet
MinimumDistance: x12,-1 
EndChar
StartChar: uni0E1A
Encoding: 186 3610 154
OldEncoding: 3610
Width: 469
Flags: HW
HStem: 0 49 247 38 351 38
VStem: 112 76<53 246 246 246> 336 76<95 388>
Fore
412 67 m 1
 412 67 l 0
 412 53 408 30 393 17 c 0
 378 5 362 0 346 0 c 2
 65 0 l 1
 65 53 l 1
 112 53 l 1
 112 246 l 1
 111 246 86 243 63 257 c 0
 36 274 26 303 33 336 c 0
 40 371 73 389 103 389 c 0
 180 389 188 328 188 299 c 2
 188 53 l 1
 301 53 l 2
 311 53 322 53 329 61 c 0
 338 72 336 84 336 95 c 2
 336 388 l 1
 412 388 l 1
 412 67 l 1
129 317 m 0
 129 330 120 343 103 343 c 0
 67 343 71 292 103 292 c 0
 120 291 129 304 129 317 c 0
EndSplineSet
MinimumDistance: x4,-1 x19,0 x19,20 
EndChar
StartChar: uni0E1B
Encoding: 187 3611 155
OldEncoding: 3611
Width: 469
Flags: HW
HStem: 0 51 254 39 362 39
VStem: 115 78 347 78
AnchorPoint: "AboveBase" 304 400 basechar 0
Fore
412 67 m 1
 412 67 l 0
 412 53 408 30 393 17 c 0
 378 5 362 0 346 0 c 2
 65 0 l 1
 65 53 l 1
 112 53 l 1
 112 246 l 1
 111 246 86 243 63 257 c 0
 36 274 26 303 33 336 c 0
 40 371 73 389 103 389 c 0
 180 389 188 328 188 299 c 2
 188 53 l 1
 301 53 l 2
 311 53 322 53 329 61 c 0
 338 72 336 84 336 95 c 2
 336 577 l 1
 412 577 l 1
 412 67 l 1
129 318 m 0
 129 331 120 344 103 344 c 0
 67 344 71 293 103 293 c 0
 120 292 129 305 129 318 c 0
EndSplineSet
MinimumDistance: x4,-1 x19,0 x19,20 
EndChar
StartChar: uni0E1C
Encoding: 188 3612 156
OldEncoding: 3612
Width: 440
Flags: HW
HStem: 0 39 256 39 362 39
VStem: 62 78 318 78
Fore
384 0 m 1
 307 0 l 0
 302 16 288 48 269 78 c 0
 246 113 223 135 222 137 c 1
 204 117 196 111 176 78 c 0
 159 52 143 16 138 0 c 1
 60 0 l 1
 60 299 l 2
 60 328 68 389 146 389 c 0
 176 389 208 371 215 336 c 0
 222 303 212 274 185 257 c 0
 162 243 138 246 137 246 c 1
 137 112 l 2
 137 113 158 144 176 165 c 0
 197 190 205 196 222 211 c 1
 224 210 248 189 270 165 c 0
 288 144 307 113 307 112 c 2
 307 388 l 1
 384 388 l 1
 384 0 l 1
146 344 m 0
 112 344 112 293 146 293 c 0
 179 293 179 344 146 344 c 0
EndSplineSet
MinimumDistance: x4,-1 
EndChar
StartChar: uni0E1D
Encoding: 189 3613 157
OldEncoding: 3613
Width: 440
Flags: HW
HStem: 0 39 254 39 362 39
VStem: 62 78 318 78
AnchorPoint: "AboveBase" 275 400 basechar 0
Fore
384 0 m 1
 307 0 l 0
 302 16 287 51 269 78 c 0
 246 112 223 135 222 137 c 1
 204 117 198 112 176 78 c 0
 157 51 143 16 138 0 c 1
 60 0 l 1
 60 299 l 2
 60 328 68 389 146 389 c 0
 176 389 208 371 215 336 c 0
 222 303 212 274 185 257 c 0
 162 243 138 246 137 246 c 1
 137 113 l 2
 137 114 159 144 176 164 c 0
 197 189 205 196 222 211 c 1
 224 210 248 190 269 165 c 0
 285 145 307 115 307 114 c 2
 307 580 l 1
 384 580 l 1
 384 0 l 1
148 345 m 0
 114 345 114 294 148 294 c 0
 181 294 181 345 148 345 c 0
EndSplineSet
MinimumDistance: x4,-1 
EndChar
StartChar: uni0E1E
Encoding: 190 3614 158
OldEncoding: 3614
Width: 487
Flags: HW
HStem: 0 39 362 39
VStem: 368 78
Fore
433 0 m 1
 357 0 l 1
 267 292 l 1
 180 0 l 1
 103 0 l 1
 103 250 l 1
 103 250 86 246 61 256 c 0
 34 267 17 300 24 334 c 0
 32 369 57 389 95 389 c 0
 162 389 179 343 179 303 c 2
 179 175 l 1
 242 388 l 1
 289 388 l 1
 356 175 l 1
 356 387 l 1
 433 387 l 1
 433 0 l 1
94 346 m 0
 61 346 61 295 94 295 c 0
 127 295 127 346 94 346 c 0
EndSplineSet
MinimumDistance: x4,-1 x3,17 y17,3 y17,2 
EndChar
StartChar: uni0E1F
Encoding: 191 3615 159
OldEncoding: 3615
Width: 491
Flags: HW
HStem: 0 39 362 39
VStem: 367 78
AnchorPoint: "AboveBase" 326 400 basechar 0
Fore
432 0 m 1
 356 0 l 1
 266 292 l 1
 179 0 l 1
 102 0 l 1
 102 250 l 1
 102 250 85 246 60 256 c 0
 33 267 16 300 23 334 c 0
 31 369 56 389 94 389 c 0
 161 389 178 343 178 303 c 2
 178 175 l 1
 241 388 l 1
 288 388 l 1
 355 175 l 1
 355 614 l 1
 432 614 l 1
 432 0 l 1
92 346 m 0
 59 346 59 295 92 295 c 0
 125 295 125 346 92 346 c 0
EndSplineSet
MinimumDistance: x4,-1 x3,17 y17,3 y17,2 
EndChar
StartChar: uni0E20
Encoding: 192 3616 160
OldEncoding: 3616
Width: 444
Flags: HW
HStem: -2 39 351 51
VStem: 93 78 323 78
Fore
389 0 m 1
 312 0 l 1
 312 267 l 2
 312 317 293 340 236 340 c 0
 183 341 155 315 155 315 c 1
 157 314 170 307 190 292 c 0
 208 278 223 262 223 262 c 1
 221 262 202 254 183 232 c 0
 168 213 167 190 167 180 c 2
 167 73 l 2
 167 31 145 -2 99 -2 c 0
 52 -2 24 32 34 81 c 0
 44 131 90 129 90 129 c 1
 90 180 l 2
 90 187 92 215 106 233 c 0
 120 252 139 259 139 259 c 1
 139 259 122 276 97 290 c 0
 76 302 54 311 51 312 c 1
 64 330 123 391 234 391 c 0
 352 391 389 330 389 268 c 2
 389 0 l 1
97 87 m 0
 69 87 68 39 97 39 c 0
 125 39 125 87 97 87 c 0
EndSplineSet
MinimumDistance: x4,-1 
EndChar
StartChar: uni0E21
Encoding: 193 3617 161
OldEncoding: 3617
Width: 469
Flags: HW
HStem: -3 20 158 51 362 39
VStem: 139 78 348 78
Fore
413 70 m 1
 413 70 l 0
 413 44 407 18 382 7 c 0
 357 -5 331 -6 306 9 c 0
 290 19 276 39 264 62 c 0
 233 123 213 129 211 133 c 1
 211 77 l 1
 212 49 205 27 178 12 c 0
 150 -5 99 -12 66 18 c 0
 33 48 25 124 57 167 c 0
 87 206 134 207 135 207 c 1
 135 250 l 1
 135 250 118 246 93 256 c 0
 66 267 49 300 56 334 c 0
 64 369 89 389 127 389 c 0
 194 389 211 343 211 303 c 2
 211 202 l 1
 211 202 236 201 273 154 c 0
 299 119 307 99 326 80 c 0
 327 80 337 83 337 102 c 2
 337 388 l 1
 413 388 l 1
 413 70 l 1
135 75 m 0
 135 149 l 0
 133 149 107 161 95 123 c 0
 87 97 89 51 116 51 c 0
 130 51 135 63 135 75 c 0
125 345 m 0
 92 345 92 294 125 294 c 0
 158 294 158 345 125 345 c 0
EndSplineSet
MinimumDistance: x10,-1 
EndChar
StartChar: uni0E22
Encoding: 194 3618 162
OldEncoding: 3618
Width: 429
Flags: HW
HStem: 0 51 156 39
VStem: 67 78 309 78
Fore
375 82 m 1
 375 82 l 0
 375 61 368 32 348 17 c 0
 331 4 313 0 291 0 c 2
 65 0 l 1
 65 97 l 2
 65 123 72 140 93 159 c 0
 105 170 119 176 137 177 c 1
 113 178 92 189 79 206 c 1
 65 221 59 242 59 266 c 2
 59 299 l 2
 59 328 77 389 148 389 c 0
 181 389 211 369 218 336 c 0
 225 304 217 271 188 257 c 0
 158 242 134 250 134 250 c 1
 133 233 136 223 152 211 c 0
 164 202 176 198 190 198 c 2
 227 198 l 1
 227 149 l 1
 187 149 l 2
 171 149 158 142 149 129 c 0
 141 116 142 106 142 90 c 2
 142 53 l 1
 253 53 l 2
 268 53 280 55 289 66 c 0
 296 75 299 82 299 94 c 2
 299 388 l 1
 375 388 l 1
 375 82 l 1
149 343 m 0
 116 343 116 292 149 292 c 0
 183 292 183 343 149 343 c 0
EndSplineSet
MinimumDistance: x4,-1 
EndChar
StartChar: uni0E23
Encoding: 195 3619 163
OldEncoding: 3619
Width: 360
Flags: HW
HStem: -1 39
VStem: 232 78
Fore
345 338 m 1
 345 338 l 0
 341 336 322 316 289 317 c 0
 240 319 211 341 160 344 c 0
 119 347 111 322 105 318 c 1
 107 318 164 314 213 293 c 0
 253 276 301 258 301 213 c 2
 301 85 l 2
 301 45 279 -1 216 -1 c 0
 180 -1 151 17 145 54 c 0
 139 97 163 123 182 132 c 0
 205 142 224 138 224 138 c 1
 224 191 l 2
 224 212 223 229 201 242 c 0
 178 256 143 266 102 274 c 0
 56 282 30 279 25 279 c 1
 25 279 29 359 112 385 c 0
 189 409 234 364 286 370 c 0
 311 372 318 388 321 390 c 1
 345 338 l 1
216 94 m 0
 183 94 183 43 216 43 c 0
 250 43 250 94 216 94 c 0
EndSplineSet
MinimumDistance: x5,-1 
EndChar
StartChar: uni0E24
Encoding: 196 3620 164
OldEncoding: 3620
Width: 442
Flags: HW
HStem: -2 39 102 39 351 51
VStem: 74 78 316 78
Fore
382 -142 m 1
 306 -142 l 1
 306 267 l 2
 306 317 275 341 217 341 c 0
 165 341 137 315 137 315 c 1
 139 314 151 307 172 292 c 0
 190 278 205 262 205 262 c 1
 203 262 183 254 165 232 c 0
 149 213 148 190 148 180 c 2
 148 137 l 1
 150 137 220 143 223 68 c 0
 225 16 184 -4 146 -2 c 0
 93 1 72 37 72 91 c 2
 72 180 l 2
 72 187 74 215 87 233 c 0
 102 252 120 259 120 259 c 1
 120 259 104 276 79 290 c 0
 57 302 36 311 33 312 c 1
 46 330 112 391 215 391 c 0
 334 391 382 330 382 268 c 2
 382 -142 l 1
155 92 m 0
 122 92 122 41 155 41 c 0
 189 41 189 92 155 92 c 0
EndSplineSet
MinimumDistance: x4,-1 
EndChar
StartChar: uni0E25
Encoding: 197 3621 165
OldEncoding: 3621
Width: 431
Flags: HW
HStem: -4 20
VStem: 63 78 304 78
Fore
371 0 m 1
 294 0 l 1
 294 31 l 2
 294 51 278 96 255 142 c 0
 232 187 204 217 169 216 c 0
 141 216 137 192 137 167 c 2
 137 136 l 1
 163 141 203 131 217 93 c 0
 230 61 219 20 187 5 c 0
 154 -11 114 -4 90 18 c 0
 67 40 59 80 61 142 c 0
 64 218 94 256 134 269 c 0
 169 280 210 277 243 251 c 0
 267 232 294 188 294 186 c 2
 294 251 l 2
 294 299 279 336 209 339 c 0
 114 344 87 299 82 289 c 1
 34 319 l 1
 36 322 49 356 104 378 c 0
 150 398 245 402 296 378 c 0
 372 343 371 294 371 238 c 2
 371 0 l 1
149 92 m 0
 115 92 115 40 149 40 c 0
 184 40 184 92 149 92 c 0
EndSplineSet
MinimumDistance: x4,-1 
EndChar
StartChar: uni0E26
Encoding: 198 3622 166
OldEncoding: 3622
Width: 450
Flags: HW
HStem: -2 39 351 51
VStem: 97 78 327 78
Fore
393 -149 m 1
 316 -149 l 1
 316 267 l 2
 316 317 297 341 240 341 c 0
 187 342 159 314 159 314 c 1
 161 313 174 307 194 292 c 0
 212 278 227 262 227 262 c 1
 225 262 206 254 187 232 c 0
 172 213 171 190 171 180 c 2
 171 73 l 2
 171 31 148 -2 103 -2 c 0
 56 -2 28 32 38 81 c 0
 48 131 94 129 94 129 c 1
 94 180 l 2
 94 187 96 215 110 233 c 0
 124 252 143 259 143 259 c 1
 143 259 126 276 101 290 c 0
 80 302 58 311 55 312 c 1
 68 330 134 392 238 392 c 0
 356 392 393 330 393 268 c 2
 393 -149 l 1
101 88 m 0
 72 88 72 40 101 40 c 0
 129 40 129 88 101 88 c 0
EndSplineSet
MinimumDistance: x4,-1 
EndChar
StartChar: uni0E27
Encoding: 199 3623 167
OldEncoding: 3623
Width: 387
Flags: HW
HStem: -1 39
VStem: 268 78
Fore
336 85 m 1
 336 85 l 0
 336 45 314 -5 251 -1 c 0
 213 1 188 19 180 54 c 0
 173 87 190 121 217 132 c 0
 242 142 259 138 259 138 c 1
 259 241 l 2
 259 285 253 338 173 336 c 0
 118 336 91 317 80 275 c 1
 15 301 l 1
 15 302 21 334 63 363 c 0
 122 403 229 395 274 372 c 0
 331 341 336 301 336 248 c 2
 336 85 l 1
250 93 m 0
 217 93 217 42 250 42 c 0
 284 42 284 93 250 93 c 0
EndSplineSet
MinimumDistance: x4,-1 
EndChar
StartChar: uni0E28
Encoding: 200 3624 168
OldEncoding: 3624
Width: 457
Flags: HW
HStem: 0 39 363 39
VStem: 96 78 339 78
Fore
326 375 m 1
 326 375 l 1
 327 375 l 1
 326 375 l 1
232 274 m 1
 232 274 l 0
 236 277 240 280 243 284 c 0
 282 331 289 329 289 329 c 1
 273 336 251 339 220 338 c 0
 144 336 120 292 116 248 c 0
 113 201 137 113 139 110 c 1
 139 113 144 193 165 231 c 0
 177 253 192 274 232 274 c 1
 232 274 l 1
451 428 m 1
 451 428 l 0
 451 427 445 400 418 370 c 0
 400 349 381 337 381 337 c 1
 382 335 395 321 400 301 c 0
 406 274 404 265 404 248 c 2
 404 0 l 1
 328 0 l 1
 328 244 l 2
 328 259 329 250 327 271 c 0
 325 287 321 294 320 296 c 1
 280 260 l 1
 294 249 299 235 302 220 c 0
 307 189 297 157 260 143 c 0
 226 130 200 147 200 147 c 1
 197 138 190 112 186 85 c 0
 181 51 174 20 174 0 c 1
 93 0 l 1
 93 14 l 2
 93 28 88 68 79 94 c 0
 66 130 42 185 46 248 c 0
 50 329 107 390 224 392 c 0
 293 393 317 376 326 375 c 1
 329 376 339 381 352 399 c 0
 361 411 367 427 367 428 c 1
 451 428 l 1
235 229 m 0
 202 229 202 181 235 181 c 0
 267 181 267 229 235 229 c 0
EndSplineSet
MinimumDistance: x36,-1 
EndChar
StartChar: uni0E29
Encoding: 201 3625 169
OldEncoding: 3625
Width: 488
Flags: HW
HStem: 0 51 143 64 255 39 362 39
VStem: 116 78 348 78
Fore
510 229 m 1
 510 229 l 1
 510 229 504 199 465 168 c 0
 441 149 415 139 413 139 c 1
 413 67 l 2
 413 53 409 30 394 17 c 0
 379 5 363 0 347 0 c 2
 66 0 l 1
 66 53 l 1
 113 53 l 1
 113 246 l 1
 112 246 87 243 64 257 c 0
 37 274 27 303 34 336 c 0
 41 371 74 389 104 389 c 0
 181 389 189 328 189 299 c 2
 189 53 l 1
 302 53 l 2
 312 53 323 53 330 61 c 0
 339 72 337 84 337 95 c 2
 337 126 l 1
 333 125 275 125 242 146 c 0
 202 172 186 232 227 264 c 0
 254 285 305 277 319 246 c 0
 338 207 312 180 312 180 c 1
 312 180 316 178 324 178 c 0
 332 177 336 178 337 178 c 1
 337 388 l 1
 413 388 l 1
 413 200 l 1
 415 200 430 208 442 222 c 0
 457 239 459 257 459 261 c 1
 510 229 l 1
129 318 m 0
 129 318 l 0
 129 331 120 344 103 344 c 0
 67 344 71 293 103 293 c 0
 120 292 129 305 129 318 c 0
267 238 m 0
 236 238 236 192 267 192 c 0
 297 192 297 238 267 238 c 0
EndSplineSet
MinimumDistance: x8,-1 x2,4 x2,3 
EndChar
StartChar: uni0E2A
Encoding: 202 3626 170
OldEncoding: 3626
Width: 429
Flags: HW
HStem: -1 20 229 39 420 20
VStem: 63 78 305 78
Fore
404 427 m 1
 404 427 l 0
 400 407 395 396 381 378 c 0
 363 354 344 340 344 340 c 1
 345 338 362 321 366 306 c 0
 374 273 372 251 372 238 c 2
 372 0 l 1
 295 0 l 1
 294 28 l 1
 293 48 282 93 259 139 c 0
 236 184 205 227 170 226 c 0
 142 226 138 192 138 167 c 2
 138 139 l 1
 164 144 204 134 218 96 c 0
 231 64 220 23 188 8 c 0
 155 -8 115 -1 91 21 c 0
 68 43 60 81 61 145 c 0
 62 226 93 255 135 269 c 0
 152 274 182 284 208 297 c 0
 239 312 261 327 263 328 c 1
 242 337 229 342 186 339 c 0
 112 336 91 297 84 288 c 1
 34 320 l 1
 36 323 54 357 109 377 c 0
 151 393 210 394 253 387 c 0
 293 381 306 370 306 370 c 1
 306 370 316 380 324 398 c 0
 331 414 330 424 330 427 c 1
 404 427 l 1
295 184 m 0
 295 251 l 0
 295 262 295 263 294 275 c 0
 293 293 289 292 289 292 c 1
 287 291 272 275 253 267 c 0
 236 259 228 256 228 256 c 2
 229 256 242 251 259 232 c 0
 276 213 294 186 295 184 c 0
153 95 m 0
 119 95 119 43 153 43 c 0
 188 43 188 95 153 95 c 0
EndSplineSet
MinimumDistance: x8,-1 
EndChar
StartChar: uni0E2B
Encoding: 203 3627 171
OldEncoding: 3627
Width: 467
Flags: HW
HStem: 0 39 255 39 362 39
VStem: 104 78 346 78
Fore
411 0 m 1
 335 0 l 1
 335 179 l 2
 335 191 337 207 327 212 c 0
 308 220 300 208 298 206 c 0
 293 202 269 173 241 126 c 1
 212 81 189 51 178 0 c 1
 101 0 l 1
 101 246 l 1
 100 246 76 243 52 257 c 0
 25 274 15 303 22 336 c 0
 30 371 62 389 92 389 c 0
 170 389 178 328 178 299 c 2
 178 147 l 1
 178 147 201 187 222 212 c 0
 252 249 276 262 276 262 c 1
 274 262 246 291 260 339 c 0
 269 369 296 391 336 391 c 0
 380 391 410 361 413 327 c 0
 419 268 380 253 378 252 c 1
 380 251 390 245 398 234 c 0
 409 217 411 205 411 186 c 2
 411 0 l 1
119 315 m 0
 119 315 l 0
 119 338 109 341 94 341 c 0
 57 341 61 290 94 290 c 0
 110 289 119 302 119 315 c 0
337 343 m 0
 298 343 298 284 337 284 c 0
 376 284 376 343 337 343 c 0
EndSplineSet
MinimumDistance: x9,-1 y6,8 y6,7 
EndChar
StartChar: uni0E2C
Encoding: 204 3628 172
OldEncoding: 3628
Width: 492
Flags: HW
HStem: 0 39 319 29 362 39
VStem: 367 78
Fore
494 428 m 1
 494 428 l 0
 494 426 482 399 465 375 c 0
 450 355 432 340 432 340 c 1
 432 0 l 1
 356 0 l 1
 266 189 l 1
 179 0 l 1
 102 0 l 1
 102 250 l 1
 102 250 85 246 60 256 c 0
 33 267 16 300 23 334 c 0
 31 369 56 389 94 389 c 0
 161 389 178 343 178 303 c 2
 178 124 l 1
 241 273 l 1
 288 273 l 1
 355 124 l 1
 355 309 l 1
 354 309 314 290 258 309 c 0
 219 323 209 367 233 402 c 0
 245 419 283 439 340 430 c 0
 379 423 399 398 399 398 c 1
 399 398 410 407 418 420 c 0
 427 435 429 448 429 448 c 1
 494 428 l 1
355 366 m 0
 355 366 l 0
 355 383 332 393 312 393 c 0
 291 393 267 385 267 366 c 0
 267 345 292 338 312 338 c 0
 332 338 355 348 355 366 c 0
93 346 m 0
 60 346 60 295 93 295 c 0
 126 295 126 346 93 346 c 0
EndSplineSet
MinimumDistance: x9,-1 x5,3 y3,5 y3,4 
EndChar
StartChar: uni0E2D
Encoding: 205 3629 173
OldEncoding: 3629
Width: 437
Flags: HW
HStem: 0 51 236 39
VStem: 70 78 312 78
Fore
378 87 m 1
 378 87 l 0
 378 59 372 37 351 19 c 0
 333 4 308 0 287 0 c 2
 153 0 l 2
 128 0 110 4 89 22 c 0
 80 31 68 52 68 74 c 2
 68 180 l 2
 68 221 89 267 152 267 c 0
 188 267 216 246 223 211 c 0
 230 178 213 144 186 134 c 0
 161 124 145 128 145 128 c 1
 145 87 l 2
 145 76 144 68 153 60 c 0
 160 54 171 53 180 53 c 2
 262 53 l 2
 279 53 286 55 294 64 c 0
 303 74 302 84 302 98 c 2
 302 263 l 2
 302 299 287 333 216 336 c 0
 118 342 98 291 93 281 c 1
 43 317 l 1
 45 320 50 346 104 373 c 0
 151 396 251 398 304 375 c 0
 379 343 378 291 378 263 c 2
 378 87 l 1
154 223 m 0
 121 223 121 172 154 172 c 0
 188 172 188 223 154 223 c 0
EndSplineSet
MinimumDistance: x4,-1 
EndChar
StartChar: uni0E2E
Encoding: 206 3630 174
OldEncoding: 3630
Width: 428
Flags: HW
HStem: 0 51 210 39 281 39 363 39
VStem: 63 78 305 78
Fore
395 390 m 1
 395 390 l 0
 395 389 389 371 378 352 c 0
 369 337 356 325 354 324 c 1
 355 322 363 316 368 299 c 0
 373 280 372 270 372 261 c 2
 372 87 l 2
 372 59 365 37 344 19 c 0
 326 4 302 0 280 0 c 2
 144 0 l 2
 119 0 101 4 80 22 c 0
 71 31 59 52 59 74 c 2
 59 155 l 2
 59 196 80 242 144 242 c 0
 179 242 209 221 216 186 c 0
 223 152 205 119 177 109 c 0
 152 99 136 103 136 103 c 1
 136 83 l 2
 136 74 139 65 144 60 c 0
 151 54 162 53 172 53 c 2
 255 53 l 2
 273 53 279 55 287 64 c 0
 296 74 295 84 295 98 c 2
 295 267 l 2
 295 273 295 274 294 281 c 0
 294 285 290 289 290 289 c 1
 274 282 223 273 181 272 c 0
 133 272 53 286 53 328 c 0
 53 369 120 391 195 393 c 0
 276 395 310 366 310 366 c 2
 311 366 317 369 323 380 c 0
 329 391 331 410 331 411 c 1
 395 390 l 1
273 334 m 0
 273 334 l 0
 270 335 252 351 199 352 c 0
 169 352 124 349 125 330 c 0
 126 311 171 312 201 312 c 0
 266 314 272 334 273 334 c 0
144 197 m 0
 110 197 110 147 144 147 c 0
 177 147 177 197 144 197 c 0
EndSplineSet
MinimumDistance: x6,-1 
EndChar
StartChar: uni0E2F
Encoding: 207 3631 175
OldEncoding: 3631
Width: 407
Flags: HW
HStem: -4 20 279 39 372 29
VStem: 297 78
Fore
364 117 m 1
 364 117 l 0
 364 74 363 38 321 14 c 0
 287 -6 249 -4 248 -4 c 1
 214 50 l 1
 215 50 258 47 281 72 c 0
 291 84 288 110 288 124 c 2
 288 255 l 2
 288 254 260 216 190 214 c 0
 128 213 72 244 64 303 c 0
 58 343 80 387 135 389 c 0
 185 390 207 352 197 317 c 0
 187 278 143 277 139 277 c 2
 139 277 158 255 200 264 c 0
 245 273 258 293 273 318 c 0
 288 343 290 385 290 388 c 1
 290 388 332 393 355 366 c 1
 366 351 364 333 364 313 c 2
 364 117 l 1
136 354 m 0
 108 354 108 311 136 311 c 0
 164 311 164 354 136 354 c 0
EndSplineSet
MinimumDistance: x4,-1 
EndChar
StartChar: uni0E30
Encoding: 208 3632 176
OldEncoding: 3632
Width: 347
Flags: HW
Fore
178 282 m 0
 178 282 l 1
 178 282 208 286 243 310 c 0
 288 341 307 383 307 383 c 1
 307 298 l 2
 307 296 282 263 230 243 c 0
 181 224 146 216 99 228 c 0
 50 240 16 294 48 343 c 0
 70 376 120 383 151 365 c 0
 201 335 178 284 178 282 c 0
178 69 m 0
 178 69 l 1
 178 69 208 73 243 97 c 0
 288 127 307 170 307 170 c 1
 307 84 l 2
 307 82 282 49 230 29 c 0
 181 10 146 3 99 15 c 0
 50 26 16 81 48 130 c 0
 70 163 120 170 151 151 c 0
 201 121 178 71 178 69 c 0
112 59 m 0
 112 59 l 0
 153 59 152 122 111 122 c 0
 69 122 70 59 112 59 c 0
112 273 m 0
 153 273 152 336 111 336 c 0
 69 336 70 273 112 273 c 0
EndSplineSet
MinimumDistance: x12,-1 
EndChar
StartChar: uni0E31
Encoding: 209 3633 177
OldEncoding: 3633
Width: 0
Flags: HW
AnchorPoint: "AboveMark" -111 645 basemark 0
AnchorPoint: "AboveBase" -57 400 mark 0
Fore
23 513 m 1
 23 513 l 0
 22 513 -3 479 -69 457 c 0
 -137 434 -213 449 -243 461 c 0
 -314 489 -309 570 -267 596 c 0
 -225 621 -164 600 -156 552 c 0
 -150 516 -173 496 -173 496 c 1
 -169 496 -119 489 -69 513 c 0
 -6 544 23 596 23 596 c 1
 23 513 l 1
-198 540 m 4
 -199 580 -259 579 -258 539 c 0
 -257 499 -197 500 -198 540 c 4
EndSplineSet
MinimumDistance: x2,-1 
EndChar
StartChar: uni0E32
Encoding: 210 3634 178
OldEncoding: 3634
Width: 322
Flags: HW
HStem: 0 39 351 51
VStem: 6 59 233 78
Fore
66 293 m 1
 9 312 l 1
 9 313 17 390 144 390 c 0
 255 390 282 311 282 242 c 2
 282 0 l 1
 205 0 l 1
 205 235 l 2
 205 278 196 331 136 331 c 0
 74 330 66 294 66 293 c 1
EndSplineSet
MinimumDistance: x6,-1 
EndChar
StartChar: uni0E33
Encoding: 211 3635 179
OldEncoding: 3635
Width: 322
Flags: HW
HStem: 0 39 351 51
VStem: 11 59 238 78
Fore
-111 607 m 0
 -111 607 l 0
 -2 607 -2 444 -111 444 c 0
 -220 444 -220 607 -111 607 c 0
-111 487 m 0
 -111 487 l 0
 -61 487 -61 562 -111 562 c 0
 -162 562 -162 487 -111 487 c 0
63 293 m 1
 6 312 l 1
 6 313 14 390 141 390 c 0
 252 390 279 311 279 242 c 2
 279 0 l 1
 202 0 l 1
 202 235 l 2
 202 278 193 331 133 331 c 0
 71 330 63 294 63 293 c 1
EndSplineSet
MinimumDistance: x6,-1 
MultipleSubs: 0 1 'ccmp' uni0E4D uni0E32
EndChar
StartChar: uni0E34
Encoding: 212 3636 180
OldEncoding: 3636
Width: 0
Flags: HW
HStem: 483 39 576 39
VStem: -385 78
AnchorPoint: "AboveMark" -96 645 basemark 0
AnchorPoint: "AboveBase" -57 400 mark 0
Fore
-213 596 m 0
 -213 596 l 0
 -87 595 -46 453 -49 416 c 1
 -49 416 -104 463 -222 468 c 0
 -320 473 -372 445 -373 445 c 1
 -369 517 -319 597 -213 596 c 0
-213 553 m 0
 -288 555 -301 500 -301 500 c 1
 -301 500 -267 509 -217 507 c 0
 -164 505 -118 488 -118 488 c 1
 -118 488 -139 552 -213 553 c 0
EndSplineSet
EndChar
StartChar: uni0E35
Encoding: 213 3637 181
OldEncoding: 3637
Width: 0
Flags: HW
HStem: 472 39
VStem: -384 78 -138 78
AnchorPoint: "AboveMark" -96 645 basemark 0
AnchorPoint: "AboveBase" -57 400 mark 0
Fore
-372 434 m 1
 -372 434 l 0
 -371 506 -319 566 -257 580 c 0
 -208 592 -162 580 -133 563 c 1
 -133 612 l 5
 -58 612 l 1
 -58 460 l 1
 -58 460 -55 449 -52 435 c 0
 -49 420 -48 407 -48 405 c 1
 -48 405 -103 452 -221 457 c 0
 -319 462 -372 434 -372 434 c 1
-212 542 m 0
 -287 544 -300 489 -300 489 c 1
 -300 489 -266 498 -216 496 c 0
 -163 494 -117 477 -117 477 c 1
 -117 477 -138 541 -212 542 c 0
EndSplineSet
EndChar
StartChar: uni0E36
Encoding: 214 3638 182
OldEncoding: 3638
Width: 0
Flags: HW
HStem: 471 39
VStem: -385 78
AnchorPoint: "AboveMark" -102 645 basemark 0
AnchorPoint: "AboveBase" -57 400 mark 0
Fore
-373 433 m 0
 -373 433 l 0
 -373 467 -353 531 -301 562 c 0
 -252 591 -195 586 -168 577 c 1
 -168 579 -163 597 -137 615 c 0
 -111 632 -75 627 -56 611 c 0
 -36 594 -31 569 -38 545 c 0
 -45 519 -57 509 -78 499 c 1
 -70 485 -64 475 -59 459 c 0
 -53 440 -53 451 -52 414 c 1
 -52 414 -104 451 -222 456 c 0
 -320 461 -372 433 -373 433 c 0
-213 541 m 0
 -213 541 l 0
 -288 543 -301 488 -301 488 c 1
 -301 488 -267 497 -217 495 c 0
 -164 493 -118 476 -118 476 c 1
 -118 476 -139 540 -213 541 c 0
-100 531 m 0
 -58 526 -55 595 -102 592 c 4
 -134 590 -140 535 -100 531 c 0
EndSplineSet
EndChar
StartChar: uni0E37
Encoding: 215 3639 183
OldEncoding: 3639
Width: 0
Flags: HW
HStem: 479 39 567 39
VStem: -393 78 -229 59 -123 59
AnchorPoint: "AboveMark" -141 645 basemark 0
AnchorPoint: "AboveBase" -57 400 mark 0
Fore
-381 441 m 0
 -381 441 l 0
 -381 444 -380 501 -337 547 c 1
 -289 596 -229 592 -220 592 c 1
 -220 622 l 1
 -160 622 l 1
 -160 583 l 1
 -154 582 -147 579 -141 574 c 0
 -134 569 -128 559 -127 559 c 1
 -127 622 l 1
 -62 622 l 5
 -62 446 l 1
 -56 412 l 1
 -56 412 -112 459 -230 464 c 0
 -328 469 -380 441 -381 441 c 0
-221 549 m 0
 -296 551 -308 496 -308 496 c 1
 -308 496 -275 505 -225 503 c 0
 -172 501 -126 484 -126 484 c 1
 -126 484 -146 548 -221 549 c 0
EndSplineSet
EndChar
StartChar: uni0E38
Encoding: 216 3640 184
OldEncoding: 3640
Width: 0
Flags: HW
VStem: -120 63
AnchorPoint: "BelowBase" -57 -17 mark 0
Fore
-57 -201 m 5
 -126 -201 l 1
 -126 -127 l 1
 -136 -129 -147 -128 -161 -118 c 0
 -187 -100 -191 -64 -172 -38 c 0
 -155 -17 -118 -15 -99 -21 c 0
 -63 -33 -57 -62 -57 -93 c 2
 -57 -201 l 5
-111 -71 m 0
 -111 -62 -112 -54 -130 -54 c 0
 -155 -54 -151 -89 -131 -89 c 0
 -109 -89 -111 -80 -111 -71 c 0
EndSplineSet
MinimumDistance: x4,-1 
EndChar
StartChar: uni0E39
Encoding: 217 3641 185
OldEncoding: 3641
Width: 0
Flags: HW
HStem: -200 46 -54 35
VStem: -125 70
AnchorPoint: "BelowBase" -57 -17 mark 0
Fore
-153 -148 m 1
 -153 -148 l 1
 -153 -148 -141 -147 -145 -147 c 0
 -148 -147 -139 -146 -133 -138 c 0
 -127 -129 -127 -115 -128 -117 c 0
 -128 -126 -129 -20 -128 -20 c 2
 -52 -20 l 1
 -52 -20 -53 -147 -53 -148 c 0
 -53 -149 -55 -163 -65 -173 c 0
 -75 -183 -84 -192 -99 -193 c 0
 -106 -193 -124 -193 -124 -193 c 1
 -233 -193 l 1
 -233 -143 l 1
 -268 -146 -299 -132 -300 -82 c 0
 -301 -45 -273 -15 -231 -17 c 0
 -183 -20 -167 -56 -167 -97 c 2
 -167 -147 l 1
 -153 -148 l 1
-239 -101 m 0
 -210 -101 -214 -54 -241 -55 c 0
 -268 -56 -267 -101 -239 -101 c 0
EndSplineSet
MinimumDistance: x16,-1 
EndChar
StartChar: uni0E3A
Encoding: 218 3642 186
OldEncoding: 3642
Width: 0
Flags: HW
AnchorPoint: "BelowBase" -57 -17 mark 0
Fore
-103 -56 m 0
 -27 -56 -27 -170 -103 -170 c 0
 -178 -170 -178 -56 -103 -56 c 0
EndSplineSet
EndChar
StartChar: dottedcircle
Encoding: 221 9676 188
OldEncoding: 65537
Width: 469
Flags: W
HStem: -9 49<242 244> 15 49<145 151> 22 49<326 328> 75 49<80 88> 83 48<380 385> 167 49<403 407> 172 49<56 63> 255 49<380 385> 259 49<85 87> 314 49<318 326> 319 49<151 153> 341 49<241 245>
VStem: 32 49<196 200> 56 49<99 107> 61 48<284 286> 120 49<40 46> 127 49<343 345> 218 49<15 22 366 370> 294 49<338 346> 302 49<46 48> 356 48<107 109 280 286> 379 49<192 198>
Fore
78 295 m 6
144 354 m 6
137 51 m 6
73 110 m 6
319 57 m 6
372 118 m 6
372 291 m 6
311 349 m 6
396 203 m 6
49 207 m 6
234 377 m 6
85 308 m 4,11,12
 99 308 109 297 109 284 c 4,13,14
 109 270 99 259 85 259 c 4,15,16
 72 259 61 270 61 284 c 4,17,18
 61 297 72 308 85 308 c 4,11,12
85 284 m 4,19,-1
 85 284 l 4,20,-1
 85 284 l 4,21,-1
 85 284 l 4,22,-1
 85 284 l 4,19,-1
151 368 m 4,23,24
 165 368 176 357 176 343 c 4,25,26
 176 330 165 319 151 319 c 4,27,28
 138 319 127 330 127 343 c 4,29,30
 127 357 138 368 151 368 c 4,23,24
151 343 m 4,31,-1
 151 343 l 4,32,-1
 151 343 l 4,33,-1
 151 343 l 4,34,-1
 151 343 l 4,31,-1
145 64 m 4,35,36
 158 64 169 53 169 40 c 4,37,38
 169 26 158 15 145 15 c 4,39,40
 131 15 120 26 120 40 c 4,41,42
 120 53 131 64 145 64 c 4,35,36
145 40 m 4,43,-1
 145 40 l 4,44,-1
 145 40 l 4,45,-1
 145 40 l 4,46,-1
 145 40 l 4,43,-1
80 124 m 4,47,48
 94 124 105 113 105 99 c 4,49,50
 105 86 94 75 80 75 c 4,51,52
 67 75 56 86 56 99 c 4,53,54
 56 113 67 124 80 124 c 4,47,48
80 99 m 4,55,-1
 80 99 l 4,56,-1
 80 99 l 4,57,-1
 80 99 l 4,58,-1
 80 99 l 4,55,-1
326 71 m 4,59,60
 340 71 351 60 351 46 c 4,61,62
 351 33 340 22 326 22 c 4,63,64
 313 22 302 33 302 46 c 4,65,66
 302 60 313 71 326 71 c 4,59,60
326 46 m 4,67,-1
 326 46 l 4,68,-1
 326 46 l 4,69,-1
 326 46 l 4,70,-1
 326 46 l 4,67,-1
380 131 m 4,71,72
 393 131 404 120 404 107 c 4,73,74
 404 93 393 83 380 83 c 4,75,76
 366 83 356 93 356 107 c 4,77,78
 356 120 366 131 380 131 c 4,71,72
380 107 m 4,79,-1
 380 107 l 4,80,-1
 380 107 l 4,81,-1
 380 107 l 4,82,-1
 380 107 l 4,79,-1
380 304 m 4,83,84
 393 304 404 293 404 280 c 4,85,86
 404 266 393 255 380 255 c 4,87,88
 366 255 356 266 356 280 c 4,89,90
 356 293 366 304 380 304 c 4,83,84
380 280 m 4,91,-1
 380 280 l 4,92,-1
 380 280 l 4,93,-1
 380 280 l 4,94,-1
 380 280 l 4,91,-1
318 363 m 4,95,96
 332 363 343 352 343 338 c 4,97,98
 343 325 332 314 318 314 c 4,99,100
 305 314 294 325 294 338 c 4,101,102
 294 352 305 363 318 363 c 4,95,96
318 338 m 4,103,-1
 318 338 l 4,104,-1
 318 338 l 4,105,-1
 318 338 l 4,106,-1
 318 338 l 4,103,-1
403 216 m 4,107,108
 417 216 428 205 428 192 c 4,109,110
 428 178 417 167 403 167 c 4,111,112
 390 167 379 178 379 192 c 4,113,114
 379 205 390 216 403 216 c 4,107,108
403 192 m 4,115,-1
 403 192 l 4,116,-1
 403 192 l 4,117,-1
 403 192 l 4,118,-1
 403 192 l 4,115,-1
56 221 m 4,119,120
 70 221 81 210 81 196 c 4,121,122
 81 183 70 172 56 172 c 4,123,124
 43 172 32 183 32 196 c 4,125,126
 32 210 43 221 56 221 c 4,119,120
56 196 m 4,127,-1
 56 196 l 4,128,-1
 56 196 l 4,129,-1
 56 196 l 4,130,-1
 56 196 l 4,127,-1
242 40 m 4,131,132
 256 40 267 29 267 15 c 4,133,134
 267 2 256 -9 242 -9 c 4,135,136
 229 -9 218 2 218 15 c 4,137,138
 218 29 229 40 242 40 c 4,131,132
242 15 m 4,139,-1
 242 15 l 4,140,-1
 242 15 l 4,141,-1
 242 15 l 4,142,-1
 242 15 l 4,139,-1
241 390 m 4,143,144
 255 390 266 379 266 366 c 4,145,146
 266 352 255 341 241 341 c 4,147,148
 228 341 217 352 217 366 c 4,149,150
 217 379 228 390 241 390 c 4,143,144
241 366 m 4,151,-1
 241 366 l 4,152,-1
 241 366 l 4,153,-1
 241 366 l 4,154,-1
 241 366 l 4,151,-1
EndSplineSet
EndChar
StartChar: uni0E3F
Encoding: 223 3647 189
OldEncoding: 3647
Width: 422
Flags: HW
HStem: -11 80 174 80 348 80
VStem: 42 95 298 106
Fore
178 267 m 1
 178 399 l 1
 132 399 l 1
 132 267 l 1
 178 267 l 1
178 65 m 1
 178 208 l 1
 132 208 l 1
 132 65 l 1
 178 65 l 1
241 207 m 0
 241 66 l 0
 255 67 268 70 280 78 c 0
 298 91 308 115 308 139 c 0
 308 162 296 185 277 197 c 0
 267 204 254 206 241 207 c 0
241 399 m 0
 241 268 l 0
 253 269 265 273 275 281 c 0
 291 294 299 315 299 336 c 0
 299 357 290 379 271 391 c 0
 263 396 252 398 241 399 c 0
178 533 m 1
 241 533 l 1
 241 459 l 1
 272 459 305 459 333 440 c 0
 364 418 380 386 380 345 c 0
 380 298 349 256 298 241 c 1
 297 235 l 1
 355 222 392 175 392 119 c 0
 392 82 372 49 344 26 c 0
 316 3 279 2 241 2 c 1
 241 -79 l 1
 178 -79 l 1
 178 2 l 1
 54 2 l 1
 54 459 l 1
 178 459 l 1
 178 533 l 1
EndSplineSet
MinimumDistance: x10,-1 y1,17 y1,0 y3,1 y2,4 x4,2 x4,3 
EndChar
StartChar: uni0E40
Encoding: 224 3648 190
OldEncoding: 3648
Width: 235
Flags: HW
HStem: -1 39 103 39
VStem: 62 78
Fore
215 54 m 0
 215 54 l 0
 209 20 184 1 145 -1 c 0
 78 -4 60 45 60 85 c 2
 60 388 l 1
 137 388 l 1
 137 138 l 1
 138 138 153 142 178 131 c 0
 204 120 222 91 215 54 c 0
145 94 m 0
 111 94 111 43 145 43 c 0
 178 43 178 94 145 94 c 0
EndSplineSet
MinimumDistance: x9,-1 
EndChar
StartChar: uni0E41
Encoding: 225 3649 191
OldEncoding: 3649
Width: 424
Flags: HW
HStem: -1 39 103 39
VStem: 59 78 258 78
Fore
404 54 m 0
 404 54 l 0
 398 20 373 1 334 -1 c 0
 267 -4 249 45 249 85 c 2
 249 388 l 1
 326 388 l 1
 326 138 l 1
 327 138 342 142 368 131 c 0
 393 120 412 91 404 54 c 0
212 54 m 0
 212 54 l 0
 206 20 181 1 142 -1 c 0
 75 -4 57 45 57 85 c 2
 57 388 l 1
 134 388 l 1
 134 138 l 1
 135 138 150 142 176 131 c 0
 201 120 219 91 212 54 c 0
329 93 m 0
 329 93 l 0
 296 93 296 42 329 42 c 0
 362 42 362 93 329 93 c 0
146 93 m 0
 113 93 113 42 146 42 c 0
 180 42 180 93 146 93 c 0
EndSplineSet
MinimumDistance: x1,-1 
EndChar
StartChar: uni0E42
Encoding: 226 3650 192
OldEncoding: 3650
Width: 254
Flags: HW
HStem: -1 39 103 39 636 51
VStem: -27 78 81 78
Fore
319 636 m 1
 319 636 l 0
 318 636 304 615 261 614 c 0
 210 612 145 661 92 642 c 0
 62 632 56 603 56 603 c 1
 57 603 100 594 124 576 c 0
 157 552 155 534 155 504 c 2
 155 138 l 1
 156 138 172 142 197 131 c 0
 222 120 241 91 234 54 c 0
 227 20 203 1 163 -1 c 0
 96 -4 79 45 79 85 c 2
 79 504 l 2
 79 523 75 540 58 549 c 0
 20 569 -24 567 -26 567 c 1
 -26 570 -27 649 47 680 c 0
 129 715 169 672 249 666 c 0
 284 664 292 687 296 689 c 1
 319 636 l 1
164 93 m 0
 131 93 131 42 164 42 c 0
 197 42 197 93 164 93 c 0
EndSplineSet
MinimumDistance: x3,-1 
EndChar
StartChar: uni0E43
Encoding: 227 3651 193
OldEncoding: 3651
Width: 295
Flags: HW
HStem: -1 39 103 39 583 39
VStem: 127 78
Fore
277 54 m 0
 277 54 l 0
 271 20 246 1 207 -1 c 0
 140 -4 122 45 122 85 c 2
 122 437 l 2
 122 469 128 489 142 512 c 0
 167 555 176 644 115 655 c 0
 38 669 26 608 26 606 c 1
 28 606 48 614 81 598 c 0
 113 581 117 505 84 483 c 0
 34 449 -23 499 -28 549 c 0
 -37 634 8 697 94 701 c 0
 151 704 196 680 215 636 c 0
 233 597 222 554 211 523 c 0
 200 491 199 473 199 442 c 2
 199 138 l 1
 200 138 215 142 241 131 c 0
 266 120 284 91 277 54 c 0
50 506 m 0
 50 506 l 0
 84 506 79 575 45 575 c 0
 11 575 16 506 50 506 c 0
209 93 m 0
 175 93 175 42 209 42 c 0
 242 42 242 93 209 93 c 0
EndSplineSet
MinimumDistance: x17,-1 
EndChar
StartChar: uni0E44
Encoding: 228 3652 194
OldEncoding: 3652
Width: 299
Flags: HW
HStem: -1 39 103 39 532 192
VStem: 122 78
Fore
273 54 m 0
 273 54 l 0
 266 20 242 1 202 -1 c 0
 135 -4 117 45 117 85 c 1
 118 463 l 1
 118 490 125 506 137 532 c 0
 151 564 166 605 148 613 c 0
 131 621 122 602 104 573 c 0
 90 552 74 514 52 516 c 0
 24 518 25 562 -6 611 c 0
 -14 624 -29 620 -32 620 c 1
 -16 702 l 1
 -14 702 10 706 27 683 c 0
 45 659 46 611 62 609 c 0
 88 606 108 706 174 691 c 0
 211 682 227 660 225 617 c 0
 223 575 208 549 200 510 c 0
 195 487 194 480 194 462 c 2
 194 138 l 1
 195 138 210 142 236 131 c 0
 261 120 280 91 273 54 c 0
203 94 m 0
 169 94 169 43 203 43 c 0
 236 43 236 94 203 94 c 0
EndSplineSet
MinimumDistance: x9,-1 
EndChar
StartChar: uni0E45
Encoding: 229 3653 195
OldEncoding: 3653
Width: 201
Flags: HW
HStem: 351 51
VStem: 8 59 235 78
Fore
-60 291 m 1
 -117 310 l 1
 -117 311 -109 388 19 388 c 0
 129 388 156 309 156 240 c 2
 156 -125 l 1
 79 -125 l 1
 79 233 l 2
 79 276 70 329 10 329 c 0
 -51 328 -60 292 -60 291 c 1
EndSplineSet
MinimumDistance: x6,-1 
EndChar
StartChar: uni0E46
Encoding: 230 3654 196
OldEncoding: 3654
Width: 441
Flags: HW
HStem: 351 51
VStem: 429 78
Fore
393 55 m 1
 393 55 l 0
 393 -12 397 -68 354 -112 c 0
 315 -151 276 -154 275 -154 c 1
 226 -101 l 1
 229 -101 274 -90 293 -71 c 0
 314 -49 316 -27 316 1 c 2
 316 281 l 2
 316 296 316 309 308 320 c 0
 298 334 287 339 286 339 c 2
 229 302 l 1
 175 336 l 2
 174 336 157 330 152 312 c 0
 146 290 151 283 151 281 c 1
 154 282 189 295 214 263 c 0
 237 235 222 177 173 172 c 0
 94 163 68 247 84 308 c 0
 95 353 127 383 173 390 c 1
 229 355 l 1
 289 390 l 1
 293 390 329 390 356 369 c 0
 397 337 393 301 393 283 c 2
 393 55 l 1
165 251 m 0
 140 251 140 213 165 213 c 0
 190 213 190 251 165 251 c 0
EndSplineSet
MinimumDistance: x4,-1 
EndChar
StartChar: uni0E47
Encoding: 231 3655 197
OldEncoding: 3655
Width: 0
Flags: HW
HStem: 453 39 549 39
VStem: -269 95
AnchorPoint: "AboveMark" -202 430 mark 0
AnchorPoint: "AboveBase" -57 400 mark 0
Fore
-16 713 m 1
 -16 713 l 1
 -16 713 -13 619 -87 607 c 0
 -145 597 -178 617 -234 614 c 0
 -268 611 -282 581 -282 551 c 0
 -282 523 -262 513 -261 513 c 1
 -261 515 -258 548 -231 555 c 0
 -203 563 -170 525 -170 525 c 1
 -170 525 -162 567 -116 566 c 0
 -81 565 -59 535 -63 492 c 0
 -66 460 -88 441 -116 440 c 0
 -167 438 -187 497 -215 495 c 0
 -247 493 -238 440 -238 439 c 5
 -280 440 -318 459 -333 499 c 0
 -354 558 -338 634 -275 654 c 0
 -224 671 -152 647 -105 660 c 0
 -80 667 -84 692 -81 713 c 1
 -16 713 l 1
-116 527 m 0
 -140 528 -145 481 -115 481 c 0
 -88 481 -92 526 -116 527 c 0
EndSplineSet
EndChar
StartChar: uni0E48
Encoding: 232 3656 198
OldEncoding: 3656
Width: 0
Flags: HW
HStem: 668 137
VStem: -135 78
AnchorPoint: "AboveMark" -95 645 mark 0
Fore
-131 647 m 1
 -131 779 l 1
 -59 779 l 5
 -59 647 l 1
 -131 647 l 1
EndSplineSet
MinimumDistance: x2,-1 
Substitution: 0 65534 'loww' uni0E48.low
Substitution: 0 65534 'amni' uni0E4D
EndChar
StartChar: uni0E49
Encoding: 233 3657 199
OldEncoding: 3657
Width: 0
Flags: HW
HStem: 791 38
AnchorPoint: "AboveMark" -128 645 mark 0
Fore
-215 666 m 0
 -215 666 l 0
 -202 683 -200 690 -200 690 c 1
 -216 690 -241 699 -250 720 c 0
 -265 754 -246 803 -200 805 c 0
 -162 806 -135 786 -130 754 c 0
 -124 717 -144 688 -156 680 c 1
 -137 682 -119 688 -99 698 c 0
 -75 709 -63 719 -48 733 c 0
 -18 761 -1 797 -1 797 c 1
 -1 710 l 1
 -1 710 -36 674 -95 655 c 0
 -146 639 -214 635 -246 639 c 5
 -246 639 -228 649 -215 666 c 0
-195 721 m 0
 -161 721 -162 773 -197 773 c 0
 -231 773 -229 721 -195 721 c 0
EndSplineSet
MinimumDistance: x2,-1 
Substitution: 0 65534 'loww' uni0E49.low
Substitution: 0 65534 'amni' uni0E4D
EndChar
StartChar: uni0E4A
Encoding: 234 3658 200
OldEncoding: 3658
Width: 0
Flags: HW
HStem: 734 19 797 39
VStem: -9 59
AnchorPoint: "AboveMark" -146 645 mark 0
Fore
-220 752 m 0
 -220 752 l 0
 -225 741 -223 731 -223 729 c 1
 -222 729 -202 739 -181 729 c 0
 -155 716 -154 674 -173 657 c 0
 -200 632 -243 648 -257 678 c 0
 -276 720 -263 799 -215 808 c 0
 -177 816 -156 787 -155 787 c 0
 -154 787 -132 810 -104 810 c 0
 -78 810 -52 792 -49 754 c 0
 -45 723 -60 697 -60 697 c 1
 -57 698 -36 709 -21 736 c 0
 -7 762 -4 794 -4 806 c 1
 49 779 l 1
 49 779 34 710 -25 676 c 0
 -63 655 -119 647 -135 647 c 5
 -132 648 -102 667 -95 709 c 0
 -90 738 -95 768 -120 768 c 0
 -135 768 -157 751 -157 751 c 2
 -158 751 -176 769 -198 769 c 0
 -210 769 -216 761 -220 752 c 0
-207 668 m 0
 -178 668 -178 711 -207 711 c 0
 -236 711 -236 668 -207 668 c 0
EndSplineSet
MinimumDistance: x4,-1 
Substitution: 0 65534 'loww' uni0E4A.low
Substitution: 0 65534 'amni' uni0E4D
EndChar
StartChar: uni0E4B
Encoding: 235 3659 201
OldEncoding: 3659
Width: 0
Flags: HW
HStem: 716 39
VStem: -136 78
AnchorPoint: "AboveMark" -95 645 mark 0
Fore
-132 800 m 1
 -58 800 l 1
 -58 739 l 1
 8 739 l 1
 8 694 l 5
 -58 694 l 1
 -58 642 l 1
 -132 642 l 1
 -132 694 l 1
 -198 694 l 1
 -198 739 l 1
 -132 739 l 1
 -132 800 l 1
EndSplineSet
MinimumDistance: y7,5 y7,6 y10,0 y10,11 x4,2 x4,3 x10,8 x10,9 
Substitution: 0 65534 'loww' uni0E4B.low
Substitution: 0 65534 'amni' uni0E4D
EndChar
StartChar: uni0E4C
Encoding: 236 3660 202
OldEncoding: 3660
Width: 0
Flags: HW
HStem: 678 19
VStem: -3 59
AnchorPoint: "AboveMark" -78 600 mark 0
Fore
-47 702 m 0
 -47 702 l 0
 -80 699 -82 684 -82 684 c 1
 -80 684 -23 684 -23 625 c 0
 -24 575 -97 560 -127 597 c 0
 -153 628 -146 686 -110 711 c 0
 -74 736 -43 728 -14 750 c 0
 1 760 1 789 1 792 c 1
 54 792 l 1
 54 789 50 751 34 734 c 1
 17 718 -2 706 -47 702 c 0
-78 603 m 0
 -42 603 -42 658 -78 658 c 0
 -113 658 -113 603 -78 603 c 0
EndSplineSet
MinimumDistance: x5,-1 
Substitution: 0 65534 'loww' uni0E4C.low
EndChar
StartChar: uni0E4D
Encoding: 237 3661 203
OldEncoding: 3661
Width: 0
Flags: HW
AnchorPoint: "AboveMark" -129 450 mark 0
AnchorPoint: "AboveMark" -129 645 basemark 0
AnchorPoint: "AboveBase" -57 400 mark 0
Fore
-129 617 m 0
 -129 617 l 0
 -20 617 -20 454 -129 454 c 4
 -238 454 -238 617 -129 617 c 0
-129 497 m 0
 -79 497 -79 572 -129 572 c 0
 -179 572 -179 497 -129 497 c 0
EndSplineSet
Substitution: 0 65534 'G006' uni0E4B
Substitution: 0 65534 'G005' uni0E4A
Substitution: 0 65534 'G004' uni0E49
Substitution: 0 65534 'G003' uni0E48
EndChar
StartChar: uni0E4E
Encoding: 238 3662 204
OldEncoding: 3662
Width: 0
Flags: HW
HStem: 477 27 673 22
VStem: -198 56
AnchorPoint: "AboveBase" -57 400 mark 0
Fore
-137 604 m 1
 -149 613 -155 625 -155 641 c 2
 -155 642 l 1
 -144 692 -81 703 -38 704 c 0
 -11 705 3 700 27 689 c 1
 -12 659 l 1
 -15 659 l 2
 -16 659 -21 659 -28 661 c 0
 -32 662 -36 663 -42 664 c 0
 -59 664 -84 656 -87 635 c 0
 -87 630 -84 625 -77 621 c 0
 -69 617 -59 614 -48 614 c 2
 -34 614 l 1
 -53 573 l 1
 -59 573 l 2
 -82 573 -133 565 -133 532 c 0
 -133 519 -121 513 -109 513 c 0
 -90 513 -83 517 -71 530 c 1
 -34 500 l 1
 -64 475 -90 468 -129 468 c 0
 -168 468 -207 482 -207 527 c 0
 -207 567 -173 596 -137 604 c 1
EndSplineSet
MinimumDistance: x8,-1 
EndChar
StartChar: uni0E4F
Encoding: 239 3663 205
OldEncoding: 3663
Width: 389
Flags: HW
HStem: 0 33
Fore
193 330 m 0
 193 330 l 0
 413 330 413 0 193 0 c 0
 -26 0 -26 330 193 330 c 0
193 22 m 0
 193 22 l 0
 383 22 383 308 193 308 c 0
 4 308 4 22 193 22 c 0
193 259 m 0
 193 259 l 0
 68 259 68 71 193 71 c 0
 319 71 319 259 193 259 c 0
195 235 m 0
 289 235 289 94 195 94 c 0
 101 94 101 235 195 235 c 0
EndSplineSet
MinimumDistance: x0,-1 
EndChar
StartChar: uni0E50
Encoding: 240 3664 206
OldEncoding: 3664
Width: 455
Flags: HW
HStem: -6 51 238 51
VStem: 49 78 329 78
Fore
48 138 m 0
 48 138 l 0
 48 224 110 280 221 280 c 0
 331 280 395 224 395 138 c 0
 395 50 333 -7 221 -6 c 0
 108 -5 48 50 48 138 c 0
221 230 m 0
 152 230 121 189 121 137 c 0
 121 85 154 44 219 44 c 0
 288 44 321 83 321 137 c 0
 321 189 291 230 221 230 c 0
EndSplineSet
MinimumDistance: x8,-1 
EndChar
StartChar: uni0E51
Encoding: 241 3665 207
OldEncoding: 3665
Width: 455
Flags: HW
HStem: -2 39 124 39 246 39
VStem: 53 78 338 78
Fore
418 133 m 0
 418 133 l 0
 421 53 374 -13 325 -36 c 1
 283 -4 l 1
 285 -3 351 12 344 133 c 0
 341 183 316 231 241 232 c 0
 176 232 139 189 135 133 c 0
 132 95 149 38 197 40 c 0
 213 41 212 44 222 50 c 1
 196 54 177 77 177 103 c 0
 177 134 200 160 238 158 c 0
 284 156 299 119 295 82 c 0
 290 42 251 -6 181 -2 c 0
 112 2 64 48 66 134 c 0
 68 216 123 276 241 276 c 0
 365 276 415 212 418 133 c 0
234 123 m 0
 207 123 207 82 234 82 c 0
 262 82 262 123 234 123 c 0
EndSplineSet
MinimumDistance: x5,-1 
EndChar
StartChar: uni0E52
Encoding: 242 3666 208
OldEncoding: 3666
Width: 455
Flags: HW
HStem: 0 51 245 39
VStem: 87 78 197 59 373 78
Fore
434 94 m 1
 434 94 l 0
 434 71 432 48 415 28 c 0
 399 9 379 0 352 0 c 2
 174 0 l 2
 147 0 127 6 107 24 c 0
 87 43 81 67 81 95 c 2
 81 263 l 2
 81 281 81 305 64 321 c 0
 41 344 5 342 3 342 c 1
 45 399 l 1
 73 398 96 386 118 369 c 0
 151 342 157 307 157 264 c 2
 157 113 l 2
 157 96 153 83 162 70 c 0
 170 58 183 50 197 50 c 2
 305 50 l 2
 320 50 332 51 346 63 c 0
 354 71 357 83 357 96 c 2
 357 193 l 2
 357 208 355 230 341 230 c 0
 328 230 317 215 318 203 c 1
 291 203 l 1
 292 216 280 229 266 229 c 0
 251 229 247 216 245 205 c 0
 242 188 245 176 245 175 c 1
 261 181 278 178 294 168 c 0
 318 152 317 99 284 85 c 0
 233 64 184 106 187 184 c 0
 190 241 214 272 257 275 c 0
 295 278 307 250 306 250 c 0
 303 248 318 277 366 275 c 0
 409 275 434 240 434 196 c 2
 434 94 l 1
261 146 m 0
 239 146 239 112 261 112 c 0
 284 112 284 146 261 146 c 0
EndSplineSet
MinimumDistance: x4,-1 
EndChar
StartChar: uni0E53
Encoding: 243 3667 209
OldEncoding: 3667
Width: 455
Flags: HW
HStem: -2 20 234 51
VStem: 64 78 228 59 360 78
Fore
425 132 m 0
 425 132 l 0
 425 41 405 3 404 0 c 1
 328 0 l 1
 332 8 348 49 348 127 c 0
 349 165 342 218 309 219 c 0
 284 220 278 189 278 167 c 2
 278 0 l 1
 213 0 l 1
 213 167 l 2
 213 191 200 221 176 220 c 0
 148 220 141 190 139 156 c 0
 137 124 141 108 141 107 c 1
 142 107 191 110 194 56 c 0
 196 16 168 -3 137 -2 c 0
 72 -1 62 60 62 136 c 0
 63 217 99 278 170 276 c 0
 215 276 231 254 246 222 c 1
 263 255 280 277 327 276 c 0
 395 276 425 211 425 132 c 0
139 74 m 0
 111 74 111 31 139 31 c 0
 167 31 167 74 139 74 c 0
EndSplineSet
MinimumDistance: x4,-1 
EndChar
StartChar: uni0E54
Encoding: 244 3668 210
OldEncoding: 3668
Width: 455
Flags: HW
HStem: -4 20 57 64 169 39
VStem: 52 78 409 59
Fore
443 355 m 1
 443 355 l 0
 443 309 424 258 380 236 c 0
 333 211 283 225 222 227 c 0
 139 230 111 183 113 127 c 0
 115 82 138 23 211 47 c 0
 236 54 251 55 252 55 c 0
 249 55 188 77 184 131 c 0
 182 154 194 194 240 195 c 0
 276 196 294 171 295 142 c 0
 295 104 265 95 265 95 c 1
 266 93 270 76 295 68 c 0
 318 60 330 60 350 55 c 0
 375 49 384 35 385 35 c 1
 356 -4 l 1
 356 -4 338 12 299 13 c 0
 239 14 172 -22 109 8 c 0
 74 24 42 50 40 121 c 0
 37 203 79 258 133 271 c 0
 209 289 272 261 324 275 c 0
 373 288 380 340 383 388 c 1
 443 355 l 1
241 158 m 0
 217 158 217 121 241 121 c 0
 266 121 266 158 241 158 c 0
EndSplineSet
MinimumDistance: x6,-1 
EndChar
StartChar: uni0E55
Encoding: 245 3669 211
OldEncoding: 3669
Width: 455
Flags: HW
HStem: -6 20 58 64 170 39 240 39 365 39
VStem: 52 78
Fore
447 361 m 1
 447 361 l 0
 447 359 441 313 415 287 c 0
 356 228 265 253 262 254 c 1
 262 254 252 235 203 233 c 0
 116 230 94 185 97 128 c 0
 98 83 120 23 194 47 c 0
 218 54 229 56 230 56 c 0
 227 56 170 77 166 131 c 0
 165 154 175 194 222 195 c 0
 259 196 277 171 277 142 c 0
 278 104 247 95 247 95 c 1
 248 93 253 76 277 68 c 0
 300 60 312 60 332 56 c 0
 360 51 367 36 368 36 c 1
 338 -3 l 1
 338 -3 310 12 281 13 c 0
 221 13 155 -23 91 6 c 0
 55 22 24 51 22 122 c 0
 19 200 49 247 102 265 c 0
 142 278 173 277 178 277 c 1
 178 277 146 299 159 343 c 0
 169 379 200 393 235 392 c 0
 269 391 294 375 302 347 c 0
 312 315 297 299 297 299 c 1
 300 299 342 290 365 320 c 0
 386 347 385 392 385 392 c 1
 447 361 l 1
230 292 m 0
 230 292 l 0
 273 292 273 356 230 356 c 0
 188 356 188 292 230 292 c 0
224 159 m 0
 199 159 199 122 224 122 c 0
 248 122 248 159 224 159 c 0
EndSplineSet
MinimumDistance: x15,-1 
EndChar
StartChar: uni0E56
Encoding: 246 3670 212
OldEncoding: 3670
Width: 455
Flags: HW
HStem: -2 80 132 39 248 39
Fore
427 81 m 0
 427 81 l 0
 399 15 344 -3 271 -2 c 0
 208 -1 138 22 132 87 c 0
 128 121 147 160 198 159 c 0
 237 159 255 130 255 97 c 0
 254 63 230 51 230 51 c 1
 233 50 283 27 330 57 c 0
 364 79 370 134 361 171 c 0
 351 206 322 239 258 237 c 0
 216 235 182 222 158 191 c 1
 120 191 l 1
 120 191 116 269 91 307 c 0
 55 359 23 363 23 363 c 1
 85 404 l 1
 87 404 121 384 144 337 c 0
 168 289 167 251 167 250 c 1
 169 252 201 284 298 278 c 0
 445 270 451 136 427 81 c 0
193 123 m 0
 164 123 164 81 193 81 c 0
 221 81 221 123 193 123 c 0
EndSplineSet
MinimumDistance: x8,-1 
EndChar
StartChar: uni0E57
Encoding: 247 3671 213
OldEncoding: 3671
Width: 455
Flags: HW
HStem: -3 20 82 19 246 39
VStem: 55 78 214 36
Fore
482 372 m 1
 482 372 l 1
 482 372 454 362 448 306 c 0
 440 224 448 165 412 98 c 0
 368 15 301 -2 216 -2 c 1
 216 -1 245 29 260 118 c 0
 266 152 264 231 224 231 c 0
 192 230 185 178 185 176 c 1
 150 176 l 1
 150 178 146 230 108 231 c 0
 82 232 67 197 65 169 c 0
 61 118 73 100 73 99 c 1
 74 99 101 119 135 103 c 0
 175 84 174 7 113 -2 c 0
 42 -12 1 53 -4 137 c 0
 -7 204 23 272 93 275 c 0
 153 278 167 234 168 231 c 1
 168 231 180 274 226 276 c 0
 291 280 321 235 326 185 c 0
 335 95 302 66 302 66 c 1
 305 68 343 68 363 137 c 0
 382 202 375 243 380 314 c 0
 386 389 423 407 424 409 c 1
 482 372 l 1
104 74 m 0
 77 74 77 33 104 33 c 0
 130 33 130 74 104 74 c 0
EndSplineSet
MinimumDistance: x2,-1 
EndChar
StartChar: uni0E58
Encoding: 248 3672 214
OldEncoding: 3672
Width: 455
Flags: HW
HStem: -3 20
VStem: 414 59
Fore
459 365 m 1
 459 365 l 1
 459 365 450 260 371 233 c 0
 305 210 228 241 176 222 c 0
 141 209 126 174 126 128 c 0
 126 69 149 59 149 59 c 1
 149 61 151 112 190 115 c 0
 233 119 246 76 304 46 c 0
 335 29 345 57 347 57 c 0
 345 57 297 69 295 111 c 0
 293 147 328 188 379 170 c 0
 433 150 430 83 405 46 c 0
 381 8 338 -10 295 2 c 0
 243 16 229 59 200 53 c 0
 175 49 181 1 181 0 c 1
 179 0 113 -20 69 49 c 0
 35 103 39 234 130 266 c 0
 199 290 246 262 319 275 c 0
 398 288 395 406 395 407 c 1
 459 365 l 1
357 139 m 0
 328 139 328 94 357 94 c 0
 386 94 386 139 357 139 c 0
EndSplineSet
MinimumDistance: x4,-1 
EndChar
StartChar: uni0E59
Encoding: 249 3673 215
OldEncoding: 3673
Width: 455
Flags: HW
HStem: -2 51 128 39
VStem: 53 78 458 59
Fore
469 383 m 1
 469 383 l 1
 469 383 482 244 420 215 c 0
 376 195 345 235 324 219 c 0
 307 207 306 159 321 127 c 0
 351 61 383 48 386 47 c 1
 349 -2 l 1
 349 -2 306 12 274 101 c 0
 250 165 220 238 155 235 c 0
 107 233 92 185 90 152 c 0
 88 105 94 69 118 50 c 0
 141 33 151 47 153 47 c 1
 132 60 124 84 128 111 c 0
 133 139 153 155 182 154 c 0
 227 154 239 110 233 72 c 0
 225 26 194 -4 140 -2 c 0
 66 0 17 58 19 146 c 0
 21 218 69 269 127 276 c 0
 241 292 271 209 271 209 c 1
 271 211 263 264 298 275 c 0
 331 284 363 253 389 262 c 0
 409 269 408 310 408 341 c 0
 409 382 403 407 403 409 c 1
 469 383 l 1
198 96 m 0
 199 126 163 128 162 98 c 0
 162 68 198 66 198 96 c 0
EndSplineSet
MinimumDistance: x9,-1 
EndChar
StartChar: uni0E5A
Encoding: 250 3674 216
OldEncoding: 3674
Width: 520
Flags: HW
HStem: 221 49 372 29
VStem: 126 34<341.5 349> 251 79<117 121 121 128 128 263 262.5 263> 425 74
Fore
99 372 m 0
 99 372 l 0
 90 372 84 370 79 364 c 0
 75 359 73 353 72 345 c 0
 72 338 74 332 79 326 c 0
 84 321 90 319 99 318 c 0
 107 318 114 321 119 326 c 0
 124 332 126 338 126 345 c 0
 126 353 124 359 119 364 c 0
 115 369 108 372 99 372 c 0
472 322 m 0
 472 301 474 115 470 76 c 0
 467 36 447 17 421 2 c 0
 394 -13 363 -12 363 -12 c 1
 333 42 l 1
 333 42 367 40 384 62 c 0
 398 80 397 119 397 119 c 1
 397 193 399 270 398 312 c 0
 397 328 383 337 364 337 c 0
 349 337 338 324 330 316 c 1
 330 121 l 2
 330 93 327 71 322 55 c 0
 317 40 306 25 285 14 c 0
 262 2 237 -3 210 -4 c 1
 175 52 l 1
 208 52 231 59 244 74 c 0
 249 80 252 90 252 105 c 0
 252 108 252 112 251 117 c 1
 251 128 l 1
 251 263 l 2
 251 262 247 258 239 250 c 1
 231 244 220 237 205 231 c 0
 191 225 172 221 150 221 c 0
 116 220 87 230 63 245 c 0
 38 261 24 283 20 312 c 1
 20 338 26 359 39 375 c 0
 51 391 69 400 94 401 c 0
 115 402 131 395 143 384 c 0
 154 373 160 360 160 343 c 0
 160 339 160 334 158 327 c 0
 154 310 145 299 132 294 c 0
 119 289 107 287 98 286 c 1
 100 284 104 281 112 276 c 0
 119 272 128 270 141 270 c 0
 145 270 151 270 161 272 c 0
 182 276 197 282 207 291 c 0
 217 300 224 306 233 322 c 0
 240 333 244 343 247 361 c 0
 250 376 250 375 253 388 c 1
 264 416 320 406 322 380 c 1
 358 400 359 401 386 404 c 1
 487 401 472 330 472 322 c 0
EndSplineSet
MinimumDistance: x3,-1 
EndChar
StartChar: uni0E5B
Encoding: 251 3675 217
OldEncoding: 3675
Width: 724
Flags: HW
HStem: 4 41 68 36 325 41
VStem: 38 44
Fore
173 163 m 0
 173 163 l 0
 194 179 202 213 202 238 c 0
 202 281 183 315 138 315 c 0
 121 315 103 306 85 281 c 0
 68 258 59 229 59 195 c 0
 59 159 69 130 88 107 c 0
 108 84 129 73 153 73 c 0
 196 73 225 103 241 143 c 0
 262 192 282 288 297 340 c 1
 323 340 l 1
 353 209 l 1
 373 325 l 1
 400 325 l 1
 426 204 l 1
 460 312 l 1
 494 212 l 1
 518 289 l 1
 524 276 565 193 580 193 c 0
 599 193 610 191 621 192 c 0
 649 192 670 192 684 192 c 2
 717 192 l 1
 717 153 l 1
 717 153 704 152 671 152 c 0
 649 151 640 151 636 151 c 2
 631 151 l 1
 628 151 l 2
 619 150 610 150 586 150 c 0
 565 150 549 152 535 169 c 2
 534 170 l 2
 533 171 535 172 536 173 c 1
 533 173 530 175 529 177 c 1
 493 62 l 1
 462 168 l 1
 425 58 l 1
 390 166 l 1
 369 47 l 1
 342 47 l 1
 309 201 l 1
 285 119 258 25 153 25 c 0
 59 25 12 116 12 196 c 0
 12 242 24 281 47 313 c 0
 71 346 102 363 138 363 c 0
 213 363 249 304 249 237 c 0
 249 186 225 112 157 112 c 0
 134 112 115 123 101 142 c 0
 89 160 82 179 82 196 c 0
 82 276 181 270 181 196 c 0
 181 185 179 173 173 163 c 0
119 196 m 0
 119 182 125 166 135 166 c 0
 144 166 144 182 144 196 c 0
 144 211 139 222 132 222 c 0
 125 222 119 211 119 196 c 0
EndSplineSet
MinimumDistance: x15,-1 
EndChar
StartChar: uni0E38.low
Encoding: 252 63256 218
OldEncoding: 63256
Width: 0
Flags: HW
VStem: -120 63
Fore
-126 -390 m 1
 -126 -311 l 0
 -136 -313 -147 -312 -161 -302 c 0
 -187 -285 -191 -248 -172 -222 c 0
 -155 -201 -118 -199 -99 -205 c 0
 -63 -217 -57 -246 -57 -277 c 2
 -57 -390 l 5
 -126 -390 l 1
-130 -274 m 0
 -102 -274 -101 -231 -130 -231 c 0
 -159 -231 -160 -274 -130 -274 c 0
EndSplineSet
MinimumDistance: x7,-1 
EndChar
StartChar: uni0E39.low
Encoding: 253 63257 219
OldEncoding: 63257
Width: 0
Flags: HW
HStem: -735 46 -589 35
VStem: -125 70
Fore
-153 -326 m 1
 -153 -326 l 1
 -153 -326 -141 -326 -145 -326 c 0
 -148 -326 -139 -325 -133 -316 c 0
 -127 -308 -127 -293 -128 -295 c 0
 -128 -305 -129 -199 -128 -199 c 2
 -52 -199 l 1
 -52 -199 -53 -325 -53 -326 c 0
 -53 -327 -55 -344 -65 -354 c 0
 -75 -365 -84 -374 -99 -374 c 0
 -106 -375 -124 -374 -124 -374 c 1
 -233 -375 l 1
 -233 -322 l 1
 -268 -324 -299 -311 -300 -261 c 0
 -301 -224 -273 -194 -231 -196 c 0
 -183 -198 -167 -235 -167 -276 c 2
 -167 -326 l 1
 -153 -326 l 1
-239 -280 m 0
 -210 -280 -214 -233 -241 -234 c 0
 -268 -235 -267 -280 -239 -280 c 0
EndSplineSet
MinimumDistance: x16,-1 
EndChar
StartChar: uni0E3A.low
Encoding: 254 63258 220
OldEncoding: 63258
Width: 0
Flags: HW
Fore
-103 -184 m 0
 -31 -184 -31 -293 -103 -293 c 0
 -175 -293 -175 -184 -103 -184 c 0
EndSplineSet
EndChar
StartChar: DEL
Encoding: 255 63259 221
OldEncoding: 63259
Width: 0
VWidth: 2048
Flags: HW
HStem: 0 10G<-300 0>
VStem: -300 300<0 500>
Fore
-300 500 m 1
 0 500 l 1
 0 0 l 1
 -300 0 l 1
 -300 500 l 1
EndSplineSet
EndChar
StartChar: exclamdown
Encoding: 256 161 222
OldEncoding: 161
Width: 217
VWidth: 2048
Flags: HW
HStem: -130 10G<62 159> 249 89<66 156>
VStem: 62 97<-130 -20>
Fore
156 338 m 1
 156 249 l 1
 66 249 l 1
 66 338 l 1
 156 338 l 1
136 216 m 1
 159 -20 l 1
 159 -130 l 1
 62 -130 l 1
 62 -20 l 1
 85 216 l 1
 136 216 l 1
EndSplineSet
MinimumDistance: x5,-1 
EndChar
StartChar: cent
Encoding: 257 162 223
OldEncoding: 162
Width: 363
VWidth: 2048
Flags: HW
VStem: 27 92<160 185>
DStem: 242 10 323 -11 167 -241 246 -263 409 564 486 530 293 176 367 136 526 951 606 928 452 705 533 686
Fore
237 259 m 1
 179 66 l 1
 193 65 l 2
 228 63 249 85 258 130 c 1
 346 115 l 1
 328 33 276 -8 190 -8 c 0
 181 -8 170 -7 158 -5 c 1
 120 -128 l 1
 82 -118 l 1
 118 5 l 1
 57 34 27 89 27 170 c 0
 27 288 87 346 208 346 c 1
 214 345 218 345 221 344 c 1
 257 464 l 1
 296 453 l 1
 260 335 l 1
 301 319 328 287 342 238 c 1
 253 223 l 1
 251 237 246 249 237 259 c 1
200 275 m 1
 192 276 l 2
 143 279 119 245 119 175 c 0
 119 134 127 104 143 86 c 1
 200 275 l 1
EndSplineSet
MinimumDistance: x14,-1 
EndChar
StartChar: sterling
Encoding: 258 163 224
OldEncoding: 163
Width: 363
VWidth: 2048
Flags: HW
HStem: -7 81<253 265> 198 70<4 54 159 243> 404 72<183 192>
VStem: 41 87<335 353>
Fore
318 91 m 1
 353 15 l 1
 322 0 293 -7 265 -7 c 0
 248 -7 223 -3 190 6 c 0
 157 15 133 20 118 20 c 0
 92 20 65 10 38 -8 c 1
 4 69 l 1
 52 104 75 141 72 180 c 1
 70 198 l 1
 4 198 l 1
 4 269 l 1
 54 269 l 1
 45 294 41 319 41 345 c 0
 41 384 56 417 86 441 c 0
 115 464 149 476 190 476 c 0
 275 476 323 435 335 353 c 1
 249 340 l 1
 242 382 222 404 187 404 c 0
 170 404 156 398 145 387 c 0
 134 375 128 361 128 344 c 0
 128 322 133 297 144 269 c 1
 243 269 l 1
 243 198 l 1
 159 198 l 1
 159 184 l 2
 160 155 144 121 111 82 c 1
 125 88 139 91 155 90 c 2
 175 89 l 2
 177 89 186 87 201 83 c 0
 227 76 244 73 253 73 c 0
 270 73 292 79 318 91 c 1
EndSplineSet
MinimumDistance: x19,-1 
EndChar
StartChar: currency
Encoding: 259 164 225
OldEncoding: 164
Width: 363
VWidth: 2048
Flags: HW
HStem: 91 77<178 187> 296 77<178 187>
VStem: 39 77<229 238> 245 77<229 238>
Fore
57 300 m 1
 14 342 l 1
 67 398 l 1
 111 355 l 1
 131 367 154 374 180 374 c 0
 206 374 229 367 250 355 c 1
 292 398 l 1
 346 344 l 1
 304 302 l 1
 316 279 322 256 322 232 c 0
 322 207 316 183 304 163 c 1
 347 120 l 1
 293 66 l 1
 250 109 l 1
 226 97 203 91 181 91 c 0
 155 91 132 97 112 109 c 1
 70 67 l 1
 16 121 l 1
 58 163 l 1
 45 185 39 208 39 232 c 0
 39 258 45 281 57 300 c 1
116 232 m 0
 116 214 122 199 135 186 c 0
 148 174 163 167 181 167 c 0
 199 167 214 174 226 187 c 0
 239 199 245 214 245 232 c 0
 245 250 239 265 226 278 c 0
 214 290 199 296 181 296 c 0
 162 296 147 290 135 278 c 0
 122 265 116 250 116 232 c 0
EndSplineSet
MinimumDistance: x9,-1 
EndChar
StartChar: yen
Encoding: 260 165 226
OldEncoding: 165
Width: 363
VWidth: 2048
Flags: HW
HStem: 0 10G<135 224> 87 71<16 135 224 344> 196 70<16 100 260 344> 458 10G<0 99 262 360>
VStem: 135 89<0 86 158 196>
DStem: 1 957 202 957 204 545 332 679 536 957 737 957 403 679 532 545
Fore
135 87 m 1
 16 87 l 1
 16 158 l 1
 135 158 l 1
 135 196 l 1
 16 196 l 1
 16 266 l 1
 100 266 l 1
 0 467 l 1
 99 467 l 1
 162 332 l 2
 170 314 176 299 180 287 c 1
 183 299 189 314 197 332 c 2
 262 467 l 1
 360 467 l 1
 260 266 l 1
 344 266 l 1
 344 196 l 1
 224 196 l 1
 224 158 l 1
 344 158 l 1
 344 87 l 1
 224 87 l 1
 224 0 l 1
 135 0 l 1
 135 87 l 1
EndSplineSet
MinimumDistance: x14,-1 y0,23 y0,24 x19,21 x19,20 x18,16 x18,17 x4,6 x4,5 x0,2 x0,1 
EndChar
StartChar: brokenbar
Encoding: 261 166 227
OldEncoding: 166
Width: 182
VWidth: 2048
Flags: HW
VStem: 56 71<-137 115 224 476>
Fore
56 224 m 1
 56 476 l 1
 127 476 l 1
 127 224 l 1
 56 224 l 1
56 -137 m 1
 56 115 l 1
 127 115 l 1
 127 -137 l 1
 56 -137 l 1
EndSplineSet
MinimumDistance: x2,-1 
EndChar
StartChar: section
Encoding: 262 167 228
OldEncoding: 167
Width: 363
VWidth: 2048
Flags: HW
HStem: -137 68<177 193> 407 68<167 188>
VStem: 19 81<199 217> 45 90<372 378> 232 89<-36 -26> 262 78<140 155>
Fore
314 368 m 1
 227 359 l 1
 227 391 210 407 178 407 c 0
 150 407 136 397 136 377 c 0
 136 364 146 349 167 333 c 0
 170 331 186 321 215 302 c 0
 256 276 284 256 298 243 c 0
 326 216 340 186 340 155 c 0
 340 116 321 82 283 55 c 1
 308 30 321 3 321 -26 c 0
 321 -62 307 -91 278 -111 c 0
 253 -128 222 -137 184 -137 c 0
 97 -137 47 -99 37 -21 c 1
 124 -11 l 1
 132 -50 153 -69 187 -69 c 0
 217 -69 232 -56 232 -31 c 0
 232 -17 219 -1 192 18 c 1
 174 30 155 42 136 54 c 0
 97 78 71 98 57 112 c 0
 32 138 19 167 19 199 c 0
 19 245 39 279 78 301 c 1
 56 325 45 349 45 373 c 0
 45 406 59 432 86 451 c 0
 109 467 139 476 174 476 c 0
 255 476 302 440 314 368 c 1
234 93 m 1
 253 110 262 125 262 140 c 0
 262 155 246 174 214 197 c 2
 127 260 l 1
 109 248 100 233 100 217 c 0
 100 196 114 175 143 156 c 2
 234 93 l 1
EndSplineSet
MinimumDistance: x7,-1 
EndChar
StartChar: dieresis
Encoding: 263 168 229
OldEncoding: 168
Width: 217
VWidth: 2048
Flags: HW
HStem: 398 77<1 79 139 216>
VStem: 1 77<398 476> 139 77<398 476>
Fore
1 398 m 1
 1 476 l 1
 79 476 l 1
 79 398 l 1
 1 398 l 1
139 398 m 1
 139 476 l 1
 216 476 l 1
 216 398 l 1
 139 398 l 1
EndSplineSet
MinimumDistance: x6,-1 
EndChar
StartChar: copyright
Encoding: 264 169 230
OldEncoding: 169
Width: 480
VWidth: 2048
Flags: HW
HStem: -12 48<231 255> 96 46<238 248> 323 45<238 248> 429 48<231 255>
VStem: -3 48<222 247> 122 56<222 239> 438 48<222 247>
Fore
241 477 m 0
 310 477 367 453 415 406 c 0
 462 359 486 301 486 233 c 0
 486 165 462 108 414 60 c 0
 367 12 309 -12 241 -12 c 0
 174 -12 116 12 68 60 c 0
 21 108 -3 165 -3 233 c 0
 -3 301 21 359 68 406 c 0
 115 453 173 477 241 477 c 0
241 429 m 0
 186 429 140 410 102 372 c 0
 64 334 45 288 45 233 c 0
 45 178 64 132 102 94 c 0
 140 56 187 37 241 37 c 0
 296 37 342 56 380 94 c 0
 418 132 438 179 438 233 c 0
 438 288 418 334 380 372 c 0
 342 410 296 429 241 429 c 0
301 196 m 1
 352 179 l 1
 335 124 299 96 245 96 c 0
 206 96 175 109 153 134 c 0
 132 158 122 190 122 230 c 0
 122 271 132 304 152 329 c 0
 174 355 206 368 246 368 c 0
 298 368 334 342 352 291 c 1
 300 278 l 1
 289 308 270 323 244 323 c 0
 200 323 178 293 178 232 c 0
 178 172 198 142 239 142 c 0
 269 142 290 160 301 196 c 1
EndSplineSet
EndChar
StartChar: ordfeminine
Encoding: 265 170 231
OldEncoding: 170
Width: 241
VWidth: 2048
Flags: HW
HStem: 237 48<89 109> 425 50<111 126>
VStem: 12 66<305 312> 151 65<330 349>
Fore
81 399 m 1
 21 411 l 1
 30 454 62 476 117 476 c 0
 155 476 181 470 194 459 c 0
 209 447 216 422 216 385 c 2
 216 309 l 2
 216 274 219 251 226 243 c 1
 165 243 l 1
 162 248 160 256 158 265 c 1
 139 246 116 237 89 237 c 0
 37 237 12 260 12 306 c 0
 12 331 22 350 44 361 c 0
 55 367 77 374 111 381 c 0
 129 384 142 388 151 392 c 1
 151 398 l 2
 150 416 139 425 119 425 c 0
 99 425 87 417 81 399 c 1
151 349 m 1
 142 345 134 343 126 341 c 0
 94 335 78 325 78 311 c 0
 78 293 88 285 109 285 c 0
 137 285 151 302 151 336 c 2
 151 349 l 1
EndSplineSet
MinimumDistance: x4,-1 
EndChar
StartChar: guillemotleft
Encoding: 266 171 232
OldEncoding: 171
Width: 363
VWidth: 2048
Flags: HW
Fore
202 313 m 1
 119 169 l 1
 202 22 l 1
 131 22 l 1
 31 169 l 1
 131 313 l 1
 202 313 l 1
327 313 m 1
 244 169 l 1
 327 22 l 1
 256 22 l 1
 156 169 l 1
 256 313 l 1
 327 313 l 1
EndSplineSet
EndChar
StartChar: logicalnot
Encoding: 267 172 233
OldEncoding: 172
Width: 381
VWidth: 2048
Flags: HW
HStem: 261 82<27 272>
VStem: 272 82<120 261>
Fore
272 120 m 1
 272 261 l 1
 27 261 l 1
 27 342 l 1
 354 342 l 1
 354 120 l 1
 272 120 l 1
EndSplineSet
MinimumDistance: x4,-1 y1,5 y1,0 x1,3 x1,2 
EndChar
StartChar: minus
Encoding: 268 173 234
OldEncoding: 173
Width: 217
VWidth: 2048
Flags: HW
HStem: 125 90<21 197>
Fore
21 125 m 1
 21 214 l 1
 197 214 l 1
 197 125 l 1
 21 125 l 1
EndSplineSet
EndChar
StartChar: registered
Encoding: 269 174 235
OldEncoding: 174
Width: 480
VWidth: 2048
Flags: HW
HStem: -12 48<231 256> 320 41<184 224> 429 48<231 256>
VStem: -3 48<222 247> 131 53<102 208 250 320> 285 56<284 289> 438 48<222 247>
Fore
241 477 m 0
 310 477 368 454 415 406 c 0
 462 359 486 302 486 233 c 0
 486 165 462 108 414 60 c 0
 367 12 309 -12 241 -12 c 0
 174 -12 116 12 68 60 c 0
 21 108 -3 165 -3 233 c 0
 -3 302 21 359 68 406 c 0
 115 454 173 477 241 477 c 0
242 429 m 0
 187 429 141 410 103 372 c 0
 65 334 45 287 45 233 c 0
 45 179 65 132 103 94 c 0
 141 55 187 36 242 36 c 0
 297 36 343 55 381 93 c 0
 419 131 438 178 438 233 c 0
 438 288 419 334 381 372 c 0
 343 410 297 429 242 429 c 0
131 102 m 1
 131 361 l 1
 267 361 l 2
 288 361 306 354 320 341 c 0
 334 327 341 310 341 288 c 0
 341 248 318 223 271 215 c 1
 283 212 294 203 307 186 c 1
 326 154 l 1
 357 102 l 1
 292 102 l 1
 270 144 l 2
 259 166 250 181 243 188 c 0
 230 202 215 208 197 208 c 2
 184 208 l 1
 184 102 l 1
 131 102 l 1
184 250 m 1
 205 250 l 2
 232 250 249 250 256 252 c 0
 275 256 285 267 285 285 c 0
 285 293 283 299 279 304 c 1
 275 315 250 320 205 320 c 2
 184 320 l 1
 184 250 l 1
EndSplineSet
EndChar
StartChar: macron
Encoding: 270 175 236
OldEncoding: 175
Width: 360
VWidth: 2048
Flags: HW
HStem: 495 59<-6 366>
Fore
-6 495 m 1
 -6 553 l 1
 366 553 l 1
 366 495 l 1
 -6 495 l 1
EndSplineSet
EndChar
StartChar: degree
Encoding: 271 176 237
OldEncoding: 176
Width: 261
VWidth: 2048
Flags: HW
HStem: 272 53<122 130> 422 53<122 130>
VStem: 27 53<366 375> 178 53<366 375>
Fore
27 374 m 0
 27 402 37 426 57 446 c 0
 77 466 101 476 129 476 c 0
 158 476 182 466 201 446 c 0
 221 426 231 402 231 374 c 0
 231 345 221 321 201 301 c 0
 182 282 158 272 129 272 c 0
 100 272 76 282 57 301 c 0
 37 321 27 345 27 374 c 0
81 374 m 0
 81 360 85 349 95 339 c 0
 104 330 116 325 129 325 c 0
 143 325 154 329 164 339 c 0
 173 348 178 360 178 374 c 0
 178 387 173 398 163 408 c 0
 154 418 142 422 129 422 c 0
 116 422 104 418 95 408 c 0
 85 398 81 387 81 374 c 0
EndSplineSet
MinimumDistance: x4,-1 
EndChar
StartChar: plusminus
Encoding: 272 177 238
OldEncoding: 177
Width: 358
VWidth: 2048
Flags: HW
HStem: 0 84<16 343> 235 84<16 138 220 343>
VStem: 138 82<113 235 319 440>
Fore
138 113 m 1
 138 235 l 1
 16 235 l 1
 16 319 l 1
 138 319 l 1
 138 440 l 1
 220 440 l 1
 220 319 l 1
 343 319 l 1
 343 235 l 1
 220 235 l 1
 220 113 l 1
 138 113 l 1
16 0 m 1
 16 84 l 1
 343 84 l 1
 343 0 l 1
 16 0 l 1
EndSplineSet
MinimumDistance: x8,-1 y4,6 y4,5 y1,11 y1,0 x7,9 x7,8 x1,3 x1,2 
EndChar
StartChar: twosuperior
Encoding: 273 178 239
OldEncoding: 178
Width: 217
VWidth: 2048
Flags: HW
HStem: 232 50<102 202> 428 45<102 111>
VStem: 141 61<401 406>
Fore
202 282 m 1
 202 232 l 1
 8 232 l 1
 10 264 37 300 87 339 c 0
 123 367 141 388 141 402 c 0
 141 419 130 428 109 428 c 0
 89 428 78 416 75 391 c 1
 14 396 l 1
 19 447 51 473 110 473 c 0
 134 473 155 468 172 458 c 0
 192 445 202 428 202 405 c 0
 202 388 197 373 187 359 c 0
 180 349 160 331 128 304 c 2
 102 282 l 1
 202 282 l 1
EndSplineSet
MinimumDistance: x0,-1 
EndChar
StartChar: threesuperior
Encoding: 274 179 240
OldEncoding: 179
Width: 217
VWidth: 2048
Flags: HW
HStem: 228 45<104 115> 339 42<88 109> 428 45<98 110>
VStem: 131 61<404 410> 142 62<301 309>
Fore
13 302 m 1
 71 308 l 1
 75 285 87 273 107 273 c 0
 131 273 142 285 142 308 c 0
 142 329 131 339 109 339 c 0
 103 339 93 338 81 335 c 1
 88 381 l 1
 117 381 131 390 131 407 c 0
 131 421 122 428 104 428 c 0
 86 428 76 417 73 396 c 1
 16 405 l 1
 26 450 56 473 106 473 c 0
 127 473 146 468 163 458 c 0
 182 445 192 429 192 408 c 0
 192 390 182 375 161 362 c 1
 190 351 205 332 205 305 c 0
 205 281 194 262 172 248 c 0
 153 235 132 228 107 228 c 0
 53 228 21 253 13 302 c 1
EndSplineSet
MinimumDistance: x15,-1 
EndChar
StartChar: acute
Encoding: 275 180 241
OldEncoding: 180
Width: 217
VWidth: 2048
Flags: HW
Fore
60 380 m 1
 104 476 l 1
 204 476 l 1
 116 380 l 1
 60 380 l 1
EndSplineSet
EndChar
StartChar: mu
Encoding: 276 181 242
OldEncoding: 181
Width: 376
VWidth: 2048
Flags: HW
HStem: -130 10G<35 125> -8 72<187 193> 0 10G<260 343> 329 10G<35 125 253 343>
VStem: 35 89<-130 41 167 338> 253 90<167 338>
Fore
35 338 m 1
 125 338 l 1
 125 185 l 2
 125 104 146 64 188 64 c 0
 231 64 253 104 253 184 c 2
 253 338 l 1
 343 338 l 1
 343 0 l 1
 260 0 l 1
 260 41 l 1
 243 8 220 -8 192 -8 c 0
 164 -8 141 8 125 41 c 1
 125 -130 l 1
 35 -130 l 1
 35 338 l 1
EndSplineSet
MinimumDistance: x6,-1 
EndChar
StartChar: paragraph
Encoding: 277 182 243
OldEncoding: 182
Width: 363
VWidth: 2048
Flags: HW
HStem: -128 10G<125 203 249 324> 458 10G<169 360>
VStem: 125 78<-128 206> 249 75<-128 384>
Fore
203 -128 m 1
 125 -128 l 1
 125 206 l 1
 87 206 56 218 34 242 c 0
 11 266 -0 297 -0 335 c 0
 -0 363 6 387 19 409 c 0
 33 433 53 449 78 457 c 0
 98 464 129 467 169 467 c 2
 360 467 l 1
 360 384 l 1
 324 384 l 1
 324 -128 l 1
 249 -128 l 1
 249 384 l 1
 203 384 l 1
 203 -128 l 1
EndSplineSet
MinimumDistance: x8,-1 y8,10 x10,8 x10,9 
EndChar
StartChar: periodcentered
Encoding: 278 183 244
OldEncoding: 183
Width: 181
VWidth: 2048
Flags: HW
VStem: 47 89<183 272>
Fore
47 183 m 1
 47 272 l 1
 136 272 l 1
 136 183 l 1
 47 183 l 1
EndSplineSet
MinimumDistance: x2,-1 
EndChar
StartChar: cedilla
Encoding: 279 184 245
OldEncoding: 184
Width: 217
VWidth: 2048
Flags: HW
HStem: -134 40<59 84> -38 34<84 104>
VStem: 125 61<-70 -63>
Fore
12 -128 m 1
 12 -91 l 1
 32 -93 52 -94 72 -94 c 0
 107 -94 125 -84 125 -64 c 0
 125 -47 111 -38 84 -38 c 0
 71 -38 57 -40 43 -44 c 1
 51 -12 l 1
 68 -7 86 -4 104 -4 c 0
 159 -4 186 -24 186 -64 c 0
 186 -111 149 -134 74 -134 c 0
 48 -134 27 -132 12 -128 c 1
EndSplineSet
MinimumDistance: x8,-1 
EndChar
StartChar: onesuperior
Encoding: 280 185 246
OldEncoding: 185
Width: 217
VWidth: 2048
Flags: HW
VStem: 97 61<232 396>
Fore
158 232 m 1
 97 232 l 1
 97 396 l 1
 78 382 56 372 29 364 c 1
 29 414 l 1
 71 427 97 447 109 473 c 1
 158 473 l 1
 158 232 l 1
EndSplineSet
MinimumDistance: x0,-1 
EndChar
StartChar: ordmasculine
Encoding: 281 186 247
OldEncoding: 186
Width: 238
VWidth: 2048
Flags: HW
HStem: 236 54<111 121> 419 56<111 121>
VStem: 8 67<345 361> 161 69<345 361>
Fore
8 355 m 0
 8 392 18 420 36 442 c 0
 56 464 84 476 119 476 c 0
 154 476 181 464 201 441 c 0
 220 420 229 391 229 355 c 0
 229 319 220 290 202 269 c 0
 183 247 155 236 119 236 c 0
 84 236 56 247 37 270 c 0
 18 291 8 320 8 355 c 0
76 355 m 0
 76 312 90 290 118 290 c 0
 146 290 161 312 161 355 c 0
 161 398 146 419 118 419 c 0
 90 419 76 398 76 355 c 0
EndSplineSet
MinimumDistance: x4,-1 
EndChar
StartChar: guillemotright
Encoding: 282 187 248
OldEncoding: 187
Width: 363
VWidth: 2048
Flags: HW
Fore
159 22 m 1
 242 167 l 1
 159 313 l 1
 229 313 l 1
 330 167 l 1
 229 22 l 1
 159 22 l 1
34 22 m 1
 117 167 l 1
 34 313 l 1
 104 313 l 1
 205 167 l 1
 104 22 l 1
 34 22 l 1
EndSplineSet
EndChar
StartChar: onequarter
Encoding: 283 188 249
OldEncoding: 188
Width: 544
VWidth: 2048
Flags: HW
HStem: 33 46<389 447 504 538>
VStem: 98 61<232 396> 447 57<-13 33 80 151>
DStem: 789 969 893 969 222 -35 326 -35 931 467 916 310 681 160 797 163
Fore
158 232 m 1
 98 232 l 1
 98 396 l 1
 78 382 55 371 29 364 c 1
 29 414 l 1
 72 427 98 447 109 473 c 1
 158 473 l 1
 158 232 l 1
159 -17 m 1
 108 -17 l 1
 385 473 l 1
 436 473 l 1
 159 -17 l 1
447 -13 m 1
 447 33 l 1
 333 33 l 1
 333 78 l 1
 455 228 l 1
 504 228 l 1
 504 80 l 1
 538 80 l 1
 538 33 l 1
 504 33 l 1
 504 -13 l 1
 447 -13 l 1
447 80 m 1
 447 151 l 1
 389 80 l 1
 447 80 l 1
EndSplineSet
MinimumDistance: x18,-1 x15,17 y17,15 y17,16 y12,21 y12,11 x17,19 x17,18 y14,12 x12,14 x12,13 
EndChar
StartChar: onehalf
Encoding: 284 189 250
OldEncoding: 189
Width: 544
VWidth: 2048
Flags: HW
HStem: -13 50<428 528> 183 45<428 438>
VStem: 98 61<232 396> 467 61<154 163>
DStem: 789 969 893 969 222 -35 326 -35
Fore
158 232 m 1
 98 232 l 1
 98 396 l 1
 78 382 55 371 29 364 c 1
 29 414 l 1
 72 427 98 447 109 473 c 1
 158 473 l 1
 158 232 l 1
159 -17 m 1
 108 -17 l 1
 385 473 l 1
 436 473 l 1
 159 -17 l 1
528 37 m 1
 528 -13 l 1
 334 -13 l 1
 336 18 363 54 414 94 c 0
 450 122 467 143 467 157 c 0
 467 174 457 183 435 183 c 0
 415 183 404 170 401 146 c 1
 341 151 l 1
 347 202 379 228 437 228 c 0
 461 228 481 223 498 212 c 0
 518 200 528 182 528 159 c 0
 528 139 520 120 503 102 c 0
 497 94 480 80 454 59 c 0
 443 50 434 43 428 37 c 1
 528 37 l 1
EndSplineSet
MinimumDistance: x11,-1 
EndChar
StartChar: threequarters
Encoding: 285 190 251
OldEncoding: 190
Width: 544
VWidth: 2048
Flags: HW
HStem: 33 46<389 447 504 538> 228 45<104 115> 339 42<88 109> 428 45<98 110>
VStem: 131 61<404 410> 142 62<301 312> 447 57<-13 33 80 151>
DStem: 805 969 908 969 238 -35 342 -35 930 467 916 310 680 160 797 163
Fore
13 302 m 1
 71 308 l 1
 75 285 87 273 107 273 c 0
 131 273 142 285 142 308 c 0
 142 329 131 339 109 339 c 0
 103 339 93 338 81 335 c 1
 88 381 l 1
 117 381 131 390 131 407 c 0
 131 421 122 428 104 428 c 0
 86 428 76 417 73 396 c 1
 16 405 l 1
 26 450 56 473 106 473 c 0
 127 473 146 468 163 458 c 0
 182 445 192 429 192 408 c 0
 192 390 182 375 161 362 c 1
 190 351 205 332 205 305 c 0
 205 281 194 262 172 248 c 0
 153 235 132 228 107 228 c 0
 53 228 21 253 13 302 c 1
167 -17 m 1
 116 -17 l 1
 393 473 l 1
 443 473 l 1
 167 -17 l 1
447 -13 m 1
 447 33 l 1
 332 33 l 1
 332 78 l 1
 454 228 l 1
 504 228 l 1
 504 80 l 1
 538 80 l 1
 538 33 l 1
 504 33 l 1
 504 -13 l 1
 447 -13 l 1
447 80 m 1
 447 151 l 1
 389 80 l 1
 447 80 l 1
EndSplineSet
MinimumDistance: x29,-1 x26,28 y28,26 y28,27 y23,32 y23,22 x28,30 x28,29 y25,23 x23,25 x23,24 
EndChar
StartChar: questiondown
Encoding: 286 191 252
OldEncoding: 191
Width: 398
VWidth: 2048
Flags: HW
HStem: -134 68<188 205> 249 89<154 243>
VStem: 32 87<-9 4> 154 89<249 338>
Fore
243 338 m 1
 243 249 l 1
 154 249 l 1
 154 338 l 1
 243 338 l 1
162 218 m 1
 243 218 l 1
 244 194 l 1
 246 152 223 111 176 72 c 0
 155 56 143 45 139 40 c 0
 126 26 120 12 120 -3 c 0
 120 -23 128 -38 145 -50 c 0
 160 -60 177 -65 197 -65 c 0
 244 -65 274 -39 286 13 c 1
 368 3 l 1
 354 -88 298 -134 201 -134 c 0
 157 -134 120 -123 87 -101 c 0
 51 -76 32 -42 32 -0 c 0
 32 25 42 49 62 73 c 0
 73 87 93 105 121 129 c 0
 140 144 152 157 156 167 c 0
 160 176 162 193 162 218 c 1
EndSplineSet
MinimumDistance: x0,-1 
EndChar
StartChar: AE
Encoding: 293 198 259
OldEncoding: 198
Width: 652
VWidth: 2048
Flags: HW
HStem: 0 79<381 622> 110 82<160 287> 206 79<381 595> 388 79<381 613>
VStem: 287 94<78 110 191 206 284 388>
DStem: 390 957 515 812 -56 0 327 392 390 957 256 225 -56 0 158 0
Fore
-27 0 m 1
 190 467 l 1
 613 467 l 1
 613 388 l 1
 381 388 l 1
 381 284 l 1
 595 284 l 1
 595 206 l 1
 381 206 l 1
 381 79 l 1
 622 79 l 1
 622 0 l 1
 287 0 l 1
 287 110 l 1
 125 110 l 1
 77 0 l 1
 -27 0 l 1
160 191 m 1
 288 191 l 1
 288 396 l 1
 251 396 l 1
 160 191 l 1
EndSplineSet
MinimumDistance: x10,-1 x11,13 y13,11 y13,12 x9,11 x9,10 x5,7 x5,6 x4,2 x4,3 
EndChar
StartChar: Eth
Encoding: 303 208 269
OldEncoding: 208
Width: 471
VWidth: 2048
Flags: HW
HStem: 0 79<142 226> 204 59<-1 47 142 242> 378 10G<142 184> 458 10G<47 220>
VStem: 47 94<79 204 263 388> 342 98<210 250>
Fore
47 467 m 1
 220 467 l 2
 266 467 302 462 328 451 c 0
 360 438 386 414 407 378 c 0
 429 341 439 291 439 228 c 0
 439 76 368 -0 225 0 c 2
 47 0 l 1
 47 204 l 1
 -1 204 l 1
 -1 263 l 1
 47 263 l 1
 47 467 l 1
142 388 m 1
 142 263 l 1
 242 263 l 1
 242 204 l 1
 142 204 l 1
 142 79 l 1
 212 79 l 2
 265 79 301 91 319 116 c 0
 334 137 342 175 342 231 c 0
 342 312 322 361 283 377 c 0
 264 385 232 388 184 388 c 2
 142 388 l 1
EndSplineSet
MinimumDistance: x4,-1 x1,10 y10,1 y10,0 x5,7 y7,5 y7,6 x12,14 x12,13 x7,9 x7,8 
EndChar
StartChar: multiply
Encoding: 310 215 276
OldEncoding: 215
Width: 381
VWidth: 2048
Flags: HW
DStem: 71 669 193 791 270 471 391 593 270 471 388 353 72 274 191 155 388 353 509 474 587 153 709 275 588 790 707 671 391 593 509 474
Fore
35 134 m 1
 132 230 l 1
 35 327 l 1
 94 386 l 1
 191 290 l 1
 287 386 l 1
 345 328 l 1
 249 231 l 1
 346 134 l 1
 287 75 l 1
 189 172 l 1
 93 76 l 1
 35 134 l 1
EndSplineSet
MinimumDistance: x8,-1 
EndChar
StartChar: Oslash
Encoding: 311 216 277
OldEncoding: 216
Width: 507
VWidth: 2048
Flags: HW
HStem: -8 76<246 263> 395 81<246 263>
VStem: 28 98<223 248> 384 98<215 248>
DStem: 153 153 240 65 41 27 134 -54 689 753 760 650 287 302 358 199 912 1003 1003 923 809 887 894 801
Fore
395 433 m 1
 445 490 l 1
 490 451 l 1
 437 391 l 1
 466 348 481 295 481 231 c 0
 481 160 462 103 423 60 c 0
 383 15 328 -8 257 -8 c 0
 198 -8 152 5 117 32 c 1
 65 -26 l 1
 20 13 l 1
 75 75 l 1
 43 116 28 170 28 237 c 0
 28 308 48 366 87 409 c 0
 128 453 183 476 254 476 c 0
 310 476 357 461 395 433 c 1
336 368 m 1
 315 386 287 395 255 395 c 0
 169 395 125 341 125 234 c 0
 125 200 130 171 140 147 c 1
 336 368 l 1
371 317 m 1
 175 97 l 1
 197 78 223 68 254 68 c 0
 298 68 332 85 354 119 c 0
 374 148 384 186 384 232 c 0
 384 268 380 296 371 317 c 1
EndSplineSet
MinimumDistance: x2,-1 
EndChar
StartChar: Thorn
Encoding: 317 222 283
OldEncoding: 222
Width: 435
VWidth: 2048
Flags: HW
HStem: 0 10G<47 142> 458 10G<47 142>
VStem: 47 95<0 88 167 300 379 467> 308 98<226 243>
Fore
47 0 m 1
 47 467 l 1
 142 467 l 1
 142 379 l 1
 199 379 l 2
 250 379 282 378 296 375 c 0
 330 370 357 354 377 329 c 0
 396 305 406 274 406 235 c 0
 406 169 378 124 324 103 c 0
 300 93 260 88 204 88 c 2
 142 88 l 1
 142 0 l 1
 47 0 l 1
142 300 m 1
 142 167 l 1
 193 167 l 2
 231 167 257 170 271 175 c 0
 296 185 308 205 308 235 c 0
 308 266 295 285 268 294 c 0
 255 298 228 300 188 300 c 2
 142 300 l 1
EndSplineSet
MinimumDistance: x7,-1 
EndChar
StartChar: germandbls
Encoding: 318 223 284
OldEncoding: 223
Width: 398
VWidth: 2048
Flags: HW
HStem: 0 10G<44 134> 405 70<177 185>
VStem: 44 89<0 320> 179 95<249 269> 222 92<369 379> 286 90<89 102>
Fore
44 0 m 1
 44 304 l 2
 44 361 53 403 71 429 c 0
 92 460 130 476 184 476 c 0
 220 476 249 469 272 455 c 0
 300 437 313 412 313 379 c 0
 313 360 308 340 296 319 c 0
 285 300 279 288 276 281 c 1
 273 269 l 1
 273 261 276 253 282 247 c 0
 286 241 298 228 320 206 c 0
 357 167 376 132 376 101 c 0
 376 69 365 43 343 23 c 0
 321 2 294 -8 263 -8 c 0
 216 -8 182 12 159 53 c 1
 222 89 l 1
 231 72 242 64 255 64 c 0
 276 64 286 75 286 97 c 0
 286 110 268 134 232 168 c 0
 197 202 179 229 179 249 c 0
 179 261 186 282 200 312 c 0
 215 342 222 361 222 372 c 0
 222 394 209 405 183 405 c 0
 159 405 144 393 138 369 c 0
 135 359 134 337 134 304 c 2
 134 0 l 1
 44 0 l 1
EndSplineSet
MinimumDistance: x11,-1 
EndChar
StartChar: ae
Encoding: 325 230 291
OldEncoding: 230
Width: 580
VWidth: 2048
Flags: HW
HStem: -8 63<143 167> -8 68<387 403> 143 56<326 461> 278 68<176 185 387 397>
VStem: 28 90<91 102>
Fore
458 108 m 1
 545 92 l 1
 521 26 471 -8 396 -8 c 0
 347 -8 307 8 275 39 c 1
 236 8 192 -8 143 -8 c 0
 110 -8 83 0 62 17 c 0
 39 35 28 60 28 92 c 0
 28 131 45 159 78 177 c 0
 95 186 130 196 182 206 c 0
 203 210 221 215 237 220 c 1
 237 229 l 2
 237 262 218 278 181 278 c 0
 148 278 128 264 119 235 c 1
 38 251 l 1
 57 314 109 346 192 346 c 0
 237 346 272 336 296 315 c 1
 321 336 352 346 388 346 c 0
 496 346 550 278 550 143 c 1
 325 143 l 1
 332 88 355 61 395 61 c 0
 426 61 447 76 458 108 c 1
461 199 m 1
 461 251 438 278 392 278 c 0
 372 278 355 270 343 253 c 0
 332 238 326 220 326 199 c 1
 461 199 l 1
236 162 m 1
 187 149 160 142 156 140 c 1
 130 132 118 119 118 100 c 0
 118 70 134 56 167 56 c 0
 197 56 217 67 227 89 c 0
 233 103 236 128 236 162 c 1
EndSplineSet
MinimumDistance: x26,-1 
EndChar
StartChar: eth
Encoding: 335 240 301
OldEncoding: 240
Width: 398
VWidth: 2048
Flags: HW
HStem: -8 73<190 207> 268 70<175 199> 458 10G<106 199>
VStem: 26 94<156 180> 282 93<164 175>
DStem: 359 842 408 790 217 775 245 712
Fore
106 467 m 1
 199 467 l 1
 234 439 l 1
 292 467 l 1
 306 436 l 1
 260 415 l 1
 336 338 375 257 375 174 c 0
 375 120 359 77 328 43 c 0
 295 9 252 -8 199 -8 c 0
 147 -8 106 9 74 43 c 0
 42 76 26 118 26 170 c 0
 26 214 40 253 67 286 c 0
 96 321 132 338 175 338 c 0
 199 338 222 331 246 316 c 1
 243 321 239 328 235 335 c 0
 230 343 218 360 199 386 c 1
 120 348 l 1
 106 378 l 1
 175 411 l 1
 154 430 131 449 106 467 c 1
120 169 m 0
 120 141 126 117 138 98 c 0
 152 76 173 65 200 65 c 0
 225 65 246 76 261 97 c 0
 275 116 282 139 282 166 c 0
 282 193 275 216 261 235 c 0
 246 257 225 268 199 268 c 0
 173 268 153 258 139 237 c 0
 126 219 120 196 120 169 c 0
EndSplineSet
MinimumDistance: x6,-1 
EndChar
StartChar: divide
Encoding: 342 247 308
OldEncoding: 247
Width: 358
VWidth: 2048
Flags: HW
HStem: 59 89<134 224> 189 83<16 342> 313 89<134 224>
VStem: 134 89<59 148 313 402>
Fore
134 313 m 1
 134 402 l 1
 224 402 l 1
 224 313 l 1
 134 313 l 1
16 189 m 1
 16 272 l 1
 342 272 l 1
 342 189 l 1
 16 189 l 1
134 59 m 1
 134 148 l 1
 224 148 l 1
 224 59 l 1
 134 59 l 1
EndSplineSet
MinimumDistance: x2,-1 
EndChar
StartChar: oslash
Encoding: 343 248 309
OldEncoding: 248
Width: 398
VWidth: 2048
Flags: HW
HStem: -8 70<192 208> 278 68<199 208>
VStem: 28 89<164 180> 288 89<156 180>
DStem: 141 102 212 39 65 14 137 -48 515 534 571 454 257 236 315 158 686 731 759 671 618 652 688 590
Fore
302 318 m 1
 335 357 l 1
 371 328 l 1
 336 288 l 1
 363 255 377 215 377 169 c 0
 377 118 361 75 328 42 c 0
 295 9 253 -8 202 -8 c 0
 166 -8 133 1 104 19 c 1
 67 -23 l 1
 32 7 l 1
 69 50 l 1
 42 83 28 124 28 171 c 0
 28 223 44 265 76 298 c 0
 108 330 150 346 202 346 c 0
 240 346 273 337 302 318 c 1
251 261 m 1
 237 272 221 278 203 278 c 0
 175 278 153 267 138 245 c 0
 124 225 117 201 117 172 c 0
 117 152 120 132 125 115 c 1
 251 261 l 1
279 222 m 1
 154 77 l 1
 167 67 183 62 202 62 c 0
 230 62 252 73 268 94 c 0
 281 113 288 138 288 167 c 0
 288 187 285 205 279 222 c 1
EndSplineSet
MinimumDistance: x4,-1 
EndChar
StartChar: thorn
Encoding: 349 254 315
OldEncoding: 254
Width: 398
VWidth: 2048
Flags: HW
HStem: -129 10G<44 134> -8 71<212 233> 278 68<208 233> 458 10G<44 134>
VStem: 44 89<-129 42 160 192 299 467> 283 91<160 184>
Fore
44 467 m 1
 134 467 l 1
 134 299 l 1
 165 331 198 346 233 346 c 0
 279 346 315 328 340 291 c 0
 363 259 375 219 375 171 c 0
 375 123 363 82 341 49 c 0
 315 11 279 -8 233 -8 c 0
 196 -8 163 9 134 42 c 1
 134 -129 l 1
 44 -129 l 1
 44 467 l 1
133 177 m 0
 133 101 160 63 212 63 c 0
 259 63 283 98 283 168 c 0
 283 241 258 278 208 278 c 0
 158 278 133 244 133 177 c 0
EndSplineSet
MinimumDistance: x5,-1 
EndChar
StartChar: dotlessi
Encoding: 351 305 317
OldEncoding: 305
Width: 181
VWidth: 2048
Flags: HW
HStem: 0 10G<47 136> 329 10G<47 136>
VStem: 47 89<0 338>
Fore
47 0 m 1
 47 338 l 1
 136 338 l 1
 136 0 l 1
 47 0 l 1
EndSplineSet
MinimumDistance: x2,-1 
EndChar
StartChar: OE
Encoding: 352 338 318
OldEncoding: 338
Width: 652
VWidth: 2048
Flags: HW
HStem: -8 83<209 225> 0 80<414 633> 206 79<414 606> 388 79<414 624> 395 81<205 224>
VStem: 23 97<226 250>
Fore
633 80 m 1
 633 0 l 1
 332 0 l 1
 332 55 l 1
 308 13 267 -8 210 -8 c 0
 135 -8 81 27 49 96 c 0
 32 132 23 179 23 234 c 0
 23 301 36 356 63 399 c 0
 95 450 142 476 206 476 c 0
 260 476 302 456 332 416 c 1
 332 467 l 1
 624 467 l 1
 624 388 l 1
 414 388 l 1
 414 284 l 1
 606 284 l 1
 606 206 l 1
 414 206 l 1
 414 80 l 1
 633 80 l 1
224 395 m 0
 155 395 120 343 120 241 c 0
 120 130 155 75 224 75 c 0
 292 75 327 130 327 239 c 0
 327 343 292 395 224 395 c 0
EndSplineSet
MinimumDistance: x20,-1 
EndChar
StartChar: oe
Encoding: 353 339 319
OldEncoding: 339
Width: 616
VWidth: 2048
Flags: HW
HStem: -8 74<191 208> -8 68<431 442> 143 56<368 503> 272 74<191 208> 280 66<426 442>
VStem: 28 92<156 180>
Fore
498 109 m 1
 585 95 l 1
 562 26 513 -8 438 -8 c 0
 390 -8 350 8 318 40 c 1
 285 8 245 -8 200 -8 c 0
 149 -8 108 9 76 42 c 0
 44 76 28 118 28 168 c 0
 28 222 44 264 75 297 c 0
 106 330 148 346 201 346 c 0
 248 346 288 331 319 299 c 1
 349 331 386 346 432 346 c 0
 537 346 589 278 589 143 c 1
 367 143 l 1
 367 120 373 101 385 86 c 0
 398 69 416 61 438 61 c 0
 467 61 487 77 498 109 c 1
503 199 m 1
 503 221 498 240 486 255 c 0
 473 272 456 280 434 280 c 0
 412 280 396 272 384 255 c 0
 373 240 368 221 368 199 c 1
 503 199 l 1
120 164 m 0
 120 139 127 117 141 98 c 0
 156 77 176 66 200 66 c 0
 227 66 247 78 261 101 c 0
 273 120 278 144 278 172 c 0
 278 200 272 223 260 241 c 0
 247 262 227 272 200 272 c 0
 147 272 120 236 120 164 c 0
EndSplineSet
MinimumDistance: x20,-1 
EndChar
StartChar: florin
Encoding: 357 402 323
OldEncoding: 402
Width: 363
VWidth: 2048
Flags: HW
HStem: 271 67<99 152 254 308> 399 76<278 296>
DStem: 312 556 498 556 214 -14 385 -83
Fore
88 271 m 1
 100 338 l 1
 164 338 l 1
 169 367 l 2
 176 408 186 435 198 450 c 0
 214 467 240 476 279 476 c 0
 307 476 336 471 364 462 c 1
 347 390 l 1
 326 396 309 399 296 399 c 0
 276 399 263 385 257 356 c 2
 254 338 l 1
 320 338 l 1
 308 271 l 1
 243 271 l 1
 188 -41 l 2
 182 -76 172 -100 158 -114 c 0
 142 -130 117 -137 83 -137 c 0
 49 -137 19 -133 -6 -125 c 1
 12 -54 l 1
 35 -59 53 -62 65 -62 c 0
 80 -62 90 -56 95 -44 c 0
 98 -39 101 -26 104 -7 c 1
 152 271 l 1
 88 271 l 1
EndSplineSet
MinimumDistance: x13,-1 
EndChar
StartChar: circumflex
Encoding: 358 710 324
OldEncoding: 710
Width: 217
VWidth: 2048
Flags: HW
Fore
1 381 m 1
 68 476 l 1
 151 476 l 1
 217 381 l 1
 145 381 l 1
 108 429 l 1
 73 381 l 1
 1 381 l 1
EndSplineSet
EndChar
StartChar: caron
Encoding: 359 711 325
OldEncoding: 711
Width: 217
VWidth: 2048
Flags: HW
DStem: 2 974 150 974 139 781 221 876
Fore
1 476 m 1
 73 476 l 1
 108 428 l 1
 145 476 l 1
 217 476 l 1
 151 381 l 1
 68 381 l 1
 1 476 l 1
EndSplineSet
MinimumDistance: x2,-1 
EndChar
StartChar: ring
Encoding: 361 730 327
OldEncoding: 730
Width: 217
VWidth: 2048
Flags: HW
HStem: 365 34<102 110> 456 34<102 110>
VStem: 46 34<421 429> 137 34<421 429>
Fore
171 428 m 0
 171 410 165 396 153 384 c 0
 140 371 126 365 109 365 c 0
 91 365 76 371 64 383 c 0
 52 395 46 410 46 428 c 0
 46 445 52 460 64 472 c 0
 76 484 91 490 109 490 c 0
 126 490 141 484 153 472 c 0
 165 460 171 445 171 428 c 0
137 428 m 0
 137 447 128 456 109 456 c 0
 90 456 81 447 81 428 c 0
 81 409 90 399 109 399 c 0
 128 399 137 409 137 428 c 0
EndSplineSet
MinimumDistance: x0,-1 
EndChar
StartChar: tilde
Encoding: 362 732 328
OldEncoding: 732
Width: 217
VWidth: 2048
Flags: HW
HStem: 456 10G<175 216>
VStem: -4 41<384 392>
Fore
37 384 m 1
 -4 384 l 1
 -4 396 l 2
 -4 442 15 465 54 465 c 0
 67 465 86 460 109 449 c 0
 125 442 138 438 149 438 c 0
 164 438 173 447 175 465 c 1
 216 465 l 1
 216 412 197 385 160 385 c 0
 154 385 147 386 138 388 c 1
 102 401 l 2
 81 408 67 412 59 412 c 0
 44 412 37 403 37 384 c 1
EndSplineSet
MinimumDistance: x0,-1 
EndChar
StartChar: quotesinglbase
Encoding: 365 8218 331
OldEncoding: 8218
Width: 181
VWidth: 2048
Flags: HW
HStem: -10 10G<44 88>
Fore
44 89 m 1
 134 89 l 1
 134 25 l 2
 134 -10 129 -37 119 -55 c 0
 107 -76 86 -92 55 -104 c 1
 37 -67 l 1
 71 -57 88 -35 88 0 c 1
 44 0 l 1
 44 89 l 1
EndSplineSet
EndChar
StartChar: quotedblbase
Encoding: 366 8222 332
OldEncoding: 8222
Width: 326
VWidth: 2048
Flags: HW
HStem: -10 10G<52 95 202 245>
VStem: 52 89<12 89> 202 89<12 89>
Fore
202 89 m 1
 292 89 l 1
 292 25 l 2
 292 -10 286 -37 276 -56 c 0
 264 -77 243 -93 212 -104 c 1
 195 -67 l 1
 228 -57 245 -34 245 0 c 1
 202 0 l 1
 202 89 l 1
52 89 m 1
 141 89 l 1
 141 25 l 2
 141 -10 136 -37 125 -56 c 0
 113 -77 92 -93 62 -104 c 1
 44 -67 l 1
 78 -56 95 -34 95 0 c 1
 52 0 l 1
 52 89 l 1
EndSplineSet
MinimumDistance: x1,-1 
EndChar
StartChar: dagger
Encoding: 367 8224 333
OldEncoding: 8224
Width: 363
VWidth: 2048
Flags: HW
HStem: 265 74<21 138 222 338> 452 10G<138 222>
VStem: 138 83<-112 265 338 462>
Fore
138 -112 m 1
 138 265 l 1
 21 265 l 1
 21 338 l 1
 138 338 l 1
 138 462 l 1
 222 462 l 1
 222 338 l 1
 338 338 l 1
 338 265 l 1
 222 265 l 1
 222 -112 l 1
 138 -112 l 1
EndSplineSet
MinimumDistance: x8,-1 y4,6 y4,5 y1,11 y1,0 x7,9 x7,8 x1,3 x1,2 
EndChar
StartChar: daggerdbl
Encoding: 368 8225 334
OldEncoding: 8225
Width: 363
VWidth: 2048
Flags: HW
HStem: -5 74<21 139 223 338> 278 75<21 139 223 338> 452 10G<139 223>
VStem: 139 83<-112 -5 69 278 353 462>
Fore
139 -112 m 1
 139 -5 l 1
 21 -5 l 1
 21 69 l 1
 139 69 l 1
 139 278 l 1
 21 278 l 1
 21 353 l 1
 139 353 l 1
 139 462 l 1
 223 462 l 1
 223 353 l 1
 338 353 l 1
 338 278 l 1
 223 278 l 1
 223 69 l 1
 338 69 l 1
 338 -5 l 1
 223 -5 l 1
 223 -112 l 1
 139 -112 l 1
EndSplineSet
MinimumDistance: x12,-1 y8,10 y8,9 y1,19 y1,0 x15,17 x15,16 x11,13 x11,12 x5,7 x5,6 x1,3 x1,2 
EndChar
StartChar: perthousand
Encoding: 369 8240 335
OldEncoding: 8240
Width: 652
VWidth: 2048
Flags: HW
HStem: -19 50<344 348 555 563> 177 50<344 348 559 563> 230 50<88 95> 426 50<88 95>
VStem: 0 62<340 364> 122 63<340 364> 255 62<90 114> 376 63<90 114> 468 62<90 114> 589 63<90 122>
DStem: 583 974 711 974 183 -34 311 -34
Fore
0 357 m 0
 0 436 31 476 93 476 c 0
 154 476 185 436 185 356 c 0
 185 272 154 230 92 230 c 0
 31 230 0 273 0 357 c 0
77 285 m 0
 82 282 87 280 92 280 c 0
 112 280 122 305 122 353 c 0
 122 402 112 426 92 426 c 0
 72 426 62 402 62 353 c 0
 62 315 67 293 77 285 c 0
89 -17 m 1
 285 476 l 1
 347 476 l 1
 152 -17 l 1
 89 -17 l 1
255 108 m 0
 255 187 286 227 347 227 c 0
 408 227 439 187 439 107 c 0
 439 23 408 -19 347 -19 c 0
 285 -19 255 23 255 108 c 0
332 36 m 1
 337 33 342 31 346 31 c 0
 366 31 376 56 376 104 c 0
 376 153 366 177 346 177 c 0
 326 177 316 153 316 104 c 0
 316 68 321 45 332 36 c 1
468 108 m 0
 468 187 499 227 561 227 c 0
 622 227 653 187 653 107 c 0
 653 23 622 -19 560 -19 c 0
 499 -19 468 23 468 108 c 0
585 154 m 1
 579 169 571 177 560 177 c 0
 541 177 531 153 531 104 c 0
 531 55 540 31 560 31 c 0
 579 31 589 55 589 104 c 0
 589 126 588 143 585 154 c 1
EndSplineSet
EndChar
StartChar: guilsinglleft
Encoding: 370 8249 336
OldEncoding: 8249
Width: 217
VWidth: 2048
Flags: HW
Fore
195 313 m 1
 112 169 l 1
 195 22 l 1
 125 22 l 1
 24 169 l 1
 125 313 l 1
 195 313 l 1
EndSplineSet
EndChar
StartChar: guilsinglright
Encoding: 371 8250 337
OldEncoding: 8250
Width: 217
VWidth: 2048
Flags: HW
Fore
24 22 m 1
 107 167 l 1
 24 313 l 1
 94 313 l 1
 195 167 l 1
 94 22 l 1
 24 22 l 1
EndSplineSet
EndChar
StartChar: trademark
Encoding: 372 8482 338
OldEncoding: 8482
Width: 652
VWidth: 2048
Flags: HW
HStem: 422 45<69 149 203 280>
VStem: 149 53<206 422> 312 50<206 415> 522 50<206 415>
DStem: 742 849 809 957 857 422 906 589 1004 957 1070 849 906 589 955 422
Fore
149 206 m 1
 149 422 l 1
 69 422 l 1
 69 467 l 1
 281 467 l 1
 281 422 l 1
 203 422 l 1
 203 206 l 1
 149 206 l 1
312 206 m 1
 312 467 l 1
 395 467 l 1
 442 288 l 1
 490 467 l 1
 573 467 l 1
 573 206 l 1
 522 206 l 1
 522 415 l 1
 466 206 l 1
 418 206 l 1
 362 415 l 1
 362 206 l 1
 312 206 l 1
EndSplineSet
MinimumDistance: x13,-1 y1,7 y1,0 x6,4 x6,5 x1,3 x1,2 
EndChar
StartChar: uniF71C
Encoding: 375 63260 341
OldEncoding: 63260
Width: 221
VWidth: 2048
Flags: HW
HStem: 0 10G<0 1>
DStem: 0 3 0 3 0 0 3 0
Fore
0 0 m 1
 0 1 l 1
 1 0 l 1
 0 0 l 1
EndSplineSet
MinimumDistance: x2,-1 
EndChar
StartChar: uniF71D
Encoding: 376 63261 342
OldEncoding: 63261
Width: 221
VWidth: 2048
Flags: HW
HStem: -77 75<60 165>
Fore
165 -106 m 1
 165 -77 l 1
 60 -77 l 1
 60 -106 l 1
 19 -106 l 1
 19 -2 l 1
 204 -2 l 1
 204 -106 l 1
 165 -106 l 1
EndSplineSet
MinimumDistance: x6,-1 x4,2 y2,4 y2,3 x7,1 y1,7 y1,0 
EndChar
